<svg width="99" height="34" fill="none" xmlns="http://www.w3.org/2000/svg"><g clip-path="url(#clip0)"><path d="M31.314 0a3.076 3.076 0 00-2.227.86 2.93 2.93 0 00-.887 2.191c0 .812.322 1.592.894 2.17a3.124 3.124 0 004.367.074c.592-.56.94-1.328.967-2.14v-.104a2.918 2.918 0 00-.887-2.19A3.068 3.068 0 0031.314 0z" fill="#50B1EA"/><path d="M30.653 9.929h1.373c.477 0 .935.188 1.273.524.337.336.527.79.527 1.265V26.1c0 .475-.19.93-.527 1.266a1.806 1.806 0 01-1.273.524h-1.373c-.478 0-.935-.189-1.273-.524a1.785 1.785 0 01-.527-1.266V11.718c0-.474.19-.93.527-1.265a1.806 1.806 0 011.273-.524zm35.935 10.843c0 3.14-2.98 3.543-4.43 3.543-2.43 0-4.23-1.289-4.23-3.423V6.61a.428.428 0 00-.432-.43h-3.75a.433.433 0 00-.433.43v14.282c0 2.103-1.8 3.423-4.23 3.423-1.45 0-4.43-.405-4.43-3.543V6.634a.43.43 0 00-.432-.429h-3.96a.433.433 0 00-.433.43V20.89c0 5.919 4.51 7.74 9.333 7.74a8.437 8.437 0 003.558-.757 8.39 8.39 0 002.902-2.182 8.178 8.178 0 002.892 2.203 8.226 8.226 0 003.566.736c4.822 0 9.333-1.827 9.333-7.74V6.631a.426.426 0 00-.266-.397.433.433 0 00-.166-.033h-3.96a.432.432 0 00-.432.43v14.141zm31.136-9.741a10.965 10.965 0 00-4.218-4.085 12.007 12.007 0 00-5.839-1.438 11.582 11.582 0 00-6.012 1.588 11.215 11.215 0 00-4.152 4.206 12.055 12.055 0 00.109 11.73 10.9 10.9 0 004.216 4.103 12.001 12.001 0 005.84 1.438 11.582 11.582 0 006.011-1.588 11.22 11.22 0 004.153-4.206 12.1 12.1 0 00-.108-11.752v.004zm-5.277 11.123a6.72 6.72 0 01-9.458.1l-.1-.1a7.281 7.281 0 01-1.838-5.132 7.151 7.151 0 011.86-5.111 6.69 6.69 0 012.16-1.455 6.724 6.724 0 017.298 1.398l.057.057a7.158 7.158 0 011.858 5.11 7.293 7.293 0 01-1.836 5.135v-.002zm-69.542-5.942V8.255a.428.428 0 00-.432-.43h-3.542A13.411 13.411 0 0010.81 5.5l.014.013h-.23a9.725 9.725 0 00-5.47 1.61 10.964 10.964 0 00-3.78 4.225 12.35 12.35 0 00-1.342 5.716 12.926 12.926 0 001.363 6.055 9.803 9.803 0 003.71 4.034 9.883 9.883 0 005.308 1.424c3.517 0 6.07-1.218 7.657-3.655l.073 2.545a.43.43 0 00.433.417h3.944a.434.434 0 00.432-.43s0-10.966-.018-11.24zm-6.487 5.945a6.69 6.69 0 01-2.187 1.477 6.724 6.724 0 01-7.37-1.477 7.28 7.28 0 01-1.839-5.133 7.152 7.152 0 011.86-5.11 6.72 6.72 0 019.514 0 7.153 7.153 0 011.86 5.11 7.274 7.274 0 01-1.84 5.132l.002.001z" fill="#121212"/></g><defs><clipPath id="clip0"><path fill="#fff" d="M0 0h99v34H0z"/></clipPath></defs></svg>