<svg width="37" height="36" fill="none" xmlns="http://www.w3.org/2000/svg"><g clip-path="url(#clip0)" fill="#000"><path d="M.219 18v18h36V0h-36v18zm20.87-9.468c2.818.63 4.375 2.421 4.357 5.013-.01 1.737-.738 2.988-2.223 3.834l-.522.288.62.243c1.495.585 2.539 1.602 3.007 2.934.225.657.252 1.98.045 2.763-.468 1.737-1.764 2.997-3.7 3.6-1.466.45-1.7.468-7.424.468H9.894l-.027-1.422-.027-1.413h2.259V11.16h-2.25V9.783c0-.765.027-1.413.063-1.449.036-.036 2.376-.054 5.202-.027 4.824.027 5.184.045 5.976.225z"/><path d="M15.249 13.77v2.61h2.187c2.322 0 2.826-.063 3.645-.477 1.179-.585 1.61-2.097.954-3.312-.396-.72-1.161-1.152-2.376-1.341-.324-.045-1.45-.09-2.493-.09h-1.917v2.61zm0 8.235v2.853l2.637-.045c2.772-.045 3.204-.099 4.104-.53.945-.45 1.395-1.189 1.395-2.278-.01-1.332-.747-2.15-2.34-2.574-.621-.17-1.026-.198-3.25-.234l-2.546-.045v2.853z"/></g><defs><clipPath id="clip0"><path fill="#fff" transform="translate(.219)" d="M0 0h36v36H0z"/></clipPath></defs></svg>