<svg width="37" height="36" fill="none" xmlns="http://www.w3.org/2000/svg"><path d="M18.438 1.5a16.5 16.5 0 100 33 16.5 16.5 0 000-33zm0 30a13.5 13.5 0 110-27 13.5 13.5 0 010 27zm.885-19.995a5.01 5.01 0 013.93 2.07 1.5 1.5 0 002.488-.158 1.5 1.5 0 00-.119-1.672 7.98 7.98 0 00-6.3-3.24 8.355 8.355 0 00-7.694 5.745h-2.19a1.5 1.5 0 100 3h1.5v1.5h-1.5a1.5 1.5 0 100 3h2.19a8.355 8.355 0 007.695 5.745 7.98 7.98 0 006.3-3.24 1.5 1.5 0 10-2.37-1.755 5.008 5.008 0 01-3.93 2.07 5.13 5.13 0 01-4.38-2.82h3.495a1.5 1.5 0 100-3h-4.425a6.35 6.35 0 01-.075-.75 6.35 6.35 0 01.074-.75h4.425a1.5 1.5 0 100-3h-3.495a5.13 5.13 0 014.38-2.745z" fill="#000"/></svg>