<svg width="37" height="36" fill="none" xmlns="http://www.w3.org/2000/svg"><g clip-path="url(#clip0)"><path d="M18.37 0C8.6 0 .385 7.917.385 17.686V36l17.984-.017c9.765 0 17.686-8.222 17.686-17.987C36.054 8.23 28.127 0 18.371 0z" fill="#231F20"/><path d="M18.545 6.845A10.965 10.965 0 008.908 23.03l-1.984 6.38 7.123-1.608A10.965 10.965 0 0029.22 15.269a10.964 10.964 0 00-10.665-8.424h-.01z" fill="#FFF9AE"/><path d="M27.242 11.139a10.958 10.958 0 01-13.195 16.646l-7.123 1.63 7.25-.858a10.957 10.957 0 0014.305-2.88 10.96 10.96 0 00-1.238-14.54l.001.002z" fill="#00AEEF"/><path d="M25.224 9.117A10.959 10.959 0 0113.84 27.049l-6.915 2.365 7.123-1.613A10.958 10.958 0 0025.224 9.117v.001z" fill="#00A94F"/><path d="M9.563 23.273a10.964 10.964 0 0117.686-12.138A10.964 10.964 0 008.908 23.03l-1.984 6.38 2.639-6.137z" fill="#F15D22"/><path d="M8.908 23.03A10.963 10.963 0 0125.224 9.117 10.963 10.963 0 008.231 22.86l-1.304 6.554 1.98-6.384z" fill="#E31B23"/></g><defs><clipPath id="clip0"><path fill="#fff" transform="translate(.219)" d="M0 0h36v36H0z"/></clipPath></defs></svg>