<svg width="1318" height="485" fill="none" xmlns="http://www.w3.org/2000/svg"><g filter="url(#filter0_d)"><path d="M989.656 30h278.004v385H989.656V30z" fill="#fff"/></g><g clip-path="url(#clip0)"><path d="M1042.16 78.008c0 1.337-.25 2.618-.69 3.8-1.19.446-2.47.691-3.81.692h-.01c-1.34 0-2.62-.245-3.8-.691a10.654 10.654 0 01-.69-3.8v-.016c0-1.338.24-2.618.69-3.8 1.18-.446 2.46-.692 3.8-.692h.01c1.34 0 2.62.246 3.8.692.45 1.182.7 2.462.7 3.8v.015zM1055.41 75h-10.51l7.43-7.43a17.957 17.957 0 00-1.95-2.299 18.59 18.59 0 00-2.29-1.944l-7.43 7.43V60.25a18.08 18.08 0 00-2.99-.25h-.02c-1.01 0-2.01.084-2.99.25v10.507l-7.43-7.43c-.82.584-1.59 1.234-2.3 1.945v.002c-.71.71-1.36 1.478-1.95 2.296l7.43 7.43h-10.5s-.25 1.974-.25 2.993v.013c0 1.004.08 2.005.25 2.994h10.5l-7.43 7.43a18.17 18.17 0 004.25 4.242l7.43-7.429V95.75c.98.166 1.98.25 2.98.25h.03c1 0 2-.085 2.99-.25V85.243l7.43 7.43c.81-.584 1.58-1.234 2.29-1.944l.01-.002c.71-.71 1.36-1.479 1.94-2.297L1044.9 81h10.51c.16-.987.25-1.986.25-2.987v-.026c0-1-.09-2-.25-2.987z" fill="#FF4A00"/></g><path d="M1023.32 137.16h9.77V139h-12.43v-1.688l9.36-13.523h-9.2v-1.851h11.89v1.652l-9.39 13.57zm20.17 1.84c-.12-.25-.22-.695-.3-1.336-1.01 1.047-2.21 1.57-3.61 1.57-1.25 0-2.28-.351-3.08-1.054-.8-.711-1.2-1.61-1.2-2.696 0-1.32.5-2.343 1.5-3.07 1.01-.734 2.42-1.102 4.24-1.102h2.11v-.996c0-.757-.22-1.359-.68-1.804-.45-.453-1.12-.68-2-.68-.77 0-1.42.195-1.95.586-.52.391-.78.863-.78 1.418h-2.18c0-.633.22-1.242.67-1.828.45-.594 1.06-1.063 1.82-1.406a6.249 6.249 0 012.55-.516c1.46 0 2.6.367 3.43 1.102.83.726 1.26 1.73 1.29 3.011v5.836c0 1.164.15 2.09.45 2.777V139h-2.28zm-3.6-1.652c.68 0 1.33-.176 1.94-.528.61-.351 1.05-.808 1.32-1.371v-2.601h-1.7c-2.65 0-3.98.777-3.98 2.332 0 .679.23 1.211.68 1.593.45.383 1.03.575 1.74.575zm19.54-4.547c0 1.929-.44 3.484-1.32 4.664-.89 1.18-2.08 1.769-3.59 1.769-1.54 0-2.75-.488-3.63-1.464v6.105h-2.17V126.32h1.98l.1 1.407c.89-1.094 2.11-1.641 3.68-1.641 1.53 0 2.73.574 3.61 1.723.89 1.148 1.34 2.746 1.34 4.793v.199zm-2.17-.246c0-1.43-.3-2.559-.91-3.387-.61-.828-1.45-1.242-2.51-1.242-1.31 0-2.3.582-2.95 1.746v6.058c.65 1.157 1.64 1.735 2.97 1.735 1.04 0 1.87-.41 2.48-1.231.61-.828.92-2.054.92-3.679zm7.29 6.445h-2.17v-12.68h2.17V139zm-2.34-16.043c0-.352.1-.648.31-.891.22-.242.54-.363.96-.363.43 0 .75.121.97.363.21.243.32.539.32.891s-.11.645-.32.879c-.22.234-.54.352-.97.352-.42 0-.74-.118-.96-.352-.21-.234-.31-.527-.31-.879zm11.08 16.277c-1.72 0-3.11-.562-4.19-1.687-1.08-1.133-1.62-2.645-1.62-4.535v-.399c0-1.258.24-2.379.72-3.363.48-.992 1.15-1.766 2.01-2.32a5.084 5.084 0 012.81-.844c1.65 0 2.93.543 3.85 1.629.91 1.086 1.37 2.64 1.37 4.664v.902h-8.59c.03 1.25.39 2.262 1.09 3.035.7.766 1.59 1.149 2.67 1.149.77 0 1.41-.156 1.95-.469.53-.312.99-.726 1.39-1.242l1.32 1.031c-1.06 1.633-2.65 2.449-4.78 2.449zm-.27-11.367c-.87 0-1.61.321-2.2.961-.59.633-.96 1.524-1.1 2.672h6.35v-.164c-.06-1.102-.36-1.953-.89-2.555-.53-.609-1.25-.914-2.16-.914zm13.87.399a6.548 6.548 0 00-1.07-.082c-1.42 0-2.39.605-2.89 1.816v9h-2.17v-12.68h2.11l.03 1.465c.71-1.133 1.72-1.699 3.03-1.699.42 0 .74.055.96.164v2.016zm-64.79 47.507h6.51V177h-8.28v-1.125l6.23-9.016h-6.13v-1.234h7.93v1.102l-6.26 9.046zm13.45 1.227c-.09-.167-.15-.464-.21-.891-.67.698-1.47 1.047-2.4 1.047-.84 0-1.52-.234-2.06-.703-.53-.474-.79-1.073-.79-1.797 0-.88.33-1.562 1-2.047.67-.489 1.61-.734 2.82-.734h1.41v-.664c0-.505-.15-.906-.45-1.203-.3-.302-.75-.453-1.34-.453-.51 0-.95.13-1.3.39-.34.261-.52.576-.52.946h-1.45c0-.422.15-.829.44-1.219a3.16 3.16 0 011.22-.938 4.148 4.148 0 011.7-.343c.97 0 1.73.244 2.29.734.55.484.83 1.154.86 2.008v3.89c0 .776.09 1.394.29 1.852V177h-1.51zm-2.4-1.102c.45 0 .88-.117 1.29-.351.4-.235.7-.539.88-.914v-1.735h-1.13c-1.77 0-2.66.519-2.66 1.555 0 .453.15.807.45 1.063.31.255.69.382 1.17.382zm13.02-3.031c0 1.287-.29 2.323-.88 3.11-.59.786-1.39 1.179-2.39 1.179-1.03 0-1.83-.325-2.42-.976v4.07h-1.45v-11.703h1.32l.07.937c.59-.729 1.41-1.093 2.46-1.093 1.01 0 1.81.382 2.4 1.148.6.766.89 1.831.89 3.195v.133zm-1.44-.164c0-.953-.21-1.706-.61-2.258-.41-.552-.97-.828-1.67-.828-.88 0-1.54.388-1.97 1.164v4.039c.43.771 1.09 1.157 1.98 1.157.69 0 1.24-.274 1.65-.821.41-.552.62-1.37.62-2.453zm4.86 4.297h-1.45v-8.453h1.45V177zm-1.57-10.695c0-.235.07-.433.21-.594.15-.162.36-.242.65-.242.28 0 .49.08.64.242.14.161.21.359.21.594 0 .234-.07.429-.21.586-.15.156-.36.234-.64.234-.29 0-.5-.078-.65-.234a.848.848 0 01-.21-.586zm7.39 10.851c-1.14 0-2.07-.375-2.79-1.125-.72-.755-1.08-1.763-1.08-3.023v-.266c0-.838.16-1.586.48-2.242.32-.661.77-1.177 1.34-1.547.58-.375 1.2-.562 1.87-.562 1.1 0 1.96.362 2.57 1.086.61.724.91 1.76.91 3.109v.602h-5.73c.03.833.27 1.507.73 2.023.47.51 1.06.766 1.78.766.51 0 .94-.105 1.3-.313.35-.208.66-.484.93-.828l.88.687c-.71 1.089-1.77 1.633-3.19 1.633zm-.18-7.578c-.58 0-1.07.214-1.46.641-.4.422-.65 1.015-.74 1.781h4.24v-.109c-.05-.735-.24-1.302-.6-1.703-.35-.407-.83-.61-1.44-.61zm9.25.266a4.315 4.315 0 00-.71-.055c-.95 0-1.6.404-1.93 1.211v6h-1.45v-8.453h1.41l.02.976c.47-.755 1.15-1.132 2.02-1.132.28 0 .49.036.64.109v1.344zm6.87 7.156h-1.44v-8.453h1.44V177zm-1.56-10.695c0-.235.07-.433.21-.594.15-.162.36-.242.64-.242s.5.08.64.242c.15.161.22.359.22.594a.81.81 0 01-.22.586c-.14.156-.36.234-.64.234s-.49-.078-.64-.234a.848.848 0 01-.21-.586zm8.8 8.453c0-.391-.14-.693-.44-.906-.29-.219-.81-.407-1.54-.563-.73-.156-1.31-.344-1.74-.562-.43-.219-.75-.48-.96-.782-.2-.302-.3-.661-.3-1.078 0-.693.29-1.278.87-1.758.59-.479 1.34-.718 2.25-.718.96 0 1.74.247 2.33.742.6.495.9 1.127.9 1.898h-1.45c0-.396-.17-.737-.51-1.023-.33-.287-.76-.43-1.27-.43-.52 0-.93.115-1.23.344-.3.229-.45.529-.45.898 0 .349.14.612.42.789.27.177.77.347 1.49.508.72.162 1.31.354 1.76.578.45.224.78.495.99.813.22.312.33.695.33 1.148 0 .755-.3 1.362-.91 1.821-.6.453-1.39.679-2.35.679-.68 0-1.27-.12-1.8-.359-.52-.24-.93-.573-1.22-1a2.469 2.469 0 01-.44-1.399h1.45c.02.485.21.87.57 1.157.37.281.85.422 1.44.422.55 0 .99-.11 1.31-.329.34-.224.5-.52.5-.89zm12.52 2.242c-.08-.167-.15-.464-.2-.891-.68.698-1.48 1.047-2.41 1.047-.83 0-1.52-.234-2.05-.703-.54-.474-.8-1.073-.8-1.797 0-.88.33-1.562 1-2.047.67-.489 1.61-.734 2.83-.734h1.4v-.664c0-.505-.15-.906-.45-1.203-.3-.302-.75-.453-1.34-.453-.51 0-.94.13-1.29.39-.35.261-.53.576-.53.946h-1.45c0-.422.15-.829.45-1.219.3-.396.7-.708 1.21-.938a4.182 4.182 0 011.7-.343c.97 0 1.74.244 2.29.734.55.484.84 1.154.86 2.008v3.89c0 .776.1 1.394.29 1.852V177h-1.51zm-2.4-1.102c.45 0 .88-.117 1.29-.351.41-.235.7-.539.88-.914v-1.735h-1.13c-1.77 0-2.66.519-2.66 1.555 0 .453.15.807.46 1.063.3.255.69.382 1.16.382zm11.81-9.398v2.047h1.58v1.117h-1.58v5.242c0 .339.07.594.21.766.15.167.38.25.72.25.17 0 .4-.031.69-.094V177c-.38.104-.75.156-1.11.156-.64 0-1.13-.195-1.46-.586-.33-.39-.49-.945-.49-1.664v-5.242h-1.54v-1.117h1.54V166.5h1.44zm2.74 6.195c0-.828.16-1.573.48-2.234.33-.662.78-1.172 1.36-1.531.58-.36 1.25-.539 1.99-.539 1.15 0 2.08.398 2.79 1.195.72.797 1.07 1.857 1.07 3.18v.101c0 .823-.16 1.563-.47 2.219a3.613 3.613 0 01-1.36 1.523c-.58.365-1.25.547-2.01.547-1.15 0-2.08-.398-2.79-1.195s-1.06-1.852-1.06-3.164v-.102zm1.45.172c0 .938.22 1.69.65 2.258.44.568 1.02.852 1.75.852s1.32-.287 1.75-.86c.43-.578.65-1.385.65-2.422 0-.927-.22-1.677-.67-2.25-.43-.578-1.02-.867-1.75-.867-.71 0-1.29.284-1.72.852-.44.567-.66 1.38-.66 2.437zm7.67-.172c0-.828.16-1.573.49-2.234.33-.662.78-1.172 1.36-1.531.58-.36 1.24-.539 1.99-.539 1.15 0 2.08.398 2.79 1.195s1.07 1.857 1.07 3.18v.101c0 .823-.16 1.563-.48 2.219a3.527 3.527 0 01-1.35 1.523c-.58.365-1.26.547-2.02.547-1.14 0-2.07-.398-2.78-1.195s-1.07-1.852-1.07-3.164v-.102zm1.46.172c0 .938.21 1.69.64 2.258.44.568 1.03.852 1.75.852.74 0 1.32-.287 1.75-.86.44-.578.65-1.385.65-2.422 0-.927-.22-1.677-.66-2.25-.44-.578-1.02-.867-1.75-.867-.71 0-1.29.284-1.73.852-.44.567-.65 1.38-.65 2.437zm9.62 4.133h-1.44v-12h1.44v12zm8.25-10.5v2.047h1.58v1.117h-1.58v5.242c0 .339.07.594.21.766.14.167.38.25.72.25.17 0 .4-.031.69-.094V177c-.38.104-.75.156-1.11.156-.65 0-1.13-.195-1.46-.586-.33-.39-.49-.945-.49-1.664v-5.242h-1.54v-1.117h1.54V166.5h1.44zm4.72 3.07c.64-.786 1.47-1.179 2.5-1.179 1.79 0 2.69 1.007 2.7 3.023V177h-1.44v-5.594c-.01-.609-.15-1.06-.42-1.351-.28-.292-.7-.438-1.28-.438-.47 0-.88.125-1.23.375-.36.25-.63.578-.83.985V177h-1.45v-12h1.45v4.57zm12.59 7.43c-.09-.167-.16-.464-.21-.891-.67.698-1.47 1.047-2.4 1.047-.84 0-1.52-.234-2.06-.703a2.311 2.311 0 01-.8-1.797c0-.88.34-1.562 1-2.047.68-.489 1.62-.734 2.83-.734h1.41v-.664c0-.505-.15-.906-.45-1.203-.31-.302-.75-.453-1.34-.453-.52 0-.95.13-1.3.39-.35.261-.52.576-.52.946h-1.45c0-.422.15-.829.44-1.219.3-.396.71-.708 1.22-.938a4.148 4.148 0 011.7-.343c.97 0 1.73.244 2.29.734.55.484.83 1.154.85 2.008v3.89c0 .776.1 1.394.3 1.852V177h-1.51zm-2.4-1.102c.45 0 .88-.117 1.29-.351.4-.235.7-.539.88-.914v-1.735h-1.13c-1.77 0-2.66.519-2.66 1.555 0 .453.15.807.45 1.063.31.255.69.382 1.17.382zm7.84-9.398v2.047h1.58v1.117h-1.58v5.242c0 .339.07.594.21.766.14.167.38.25.72.25.17 0 .4-.031.69-.094V177c-.38.104-.75.156-1.11.156-.65 0-1.13-.195-1.46-.586-.33-.39-.49-.945-.49-1.664v-5.242h-1.54v-1.117h1.54V166.5h1.44zm10.63 9.477c.52 0 .97-.157 1.36-.469a1.7 1.7 0 00.64-1.172h1.36c-.02.484-.19.945-.5 1.383-.3.437-.72.786-1.23 1.047-.51.26-1.05.39-1.63.39-1.15 0-2.06-.383-2.75-1.148-.67-.771-1.01-1.823-1.01-3.156v-.243c0-.823.15-1.554.45-2.195.3-.641.74-1.138 1.3-1.492.57-.354 1.24-.531 2.01-.531.94 0 1.73.283 2.36.851.63.568.96 1.305 1 2.211h-1.36c-.05-.547-.25-.995-.63-1.344-.37-.354-.83-.531-1.37-.531-.74 0-1.31.266-1.71.797-.41.526-.61 1.289-.61 2.289v.274c0 .973.2 1.723.61 2.25.4.526.97.789 1.71.789zm4.61-3.282c0-.828.16-1.573.48-2.234.33-.662.78-1.172 1.36-1.531.58-.36 1.25-.539 1.99-.539 1.15 0 2.08.398 2.79 1.195s1.07 1.857 1.07 3.18v.101c0 .823-.16 1.563-.48 2.219a3.527 3.527 0 01-1.35 1.523c-.58.365-1.25.547-2.01.547-1.15 0-2.08-.398-2.79-1.195s-1.06-1.852-1.06-3.164v-.102zm1.45.172c0 .938.21 1.69.65 2.258.43.568 1.02.852 1.75.852s1.31-.287 1.75-.86c.43-.578.65-1.385.65-2.422 0-.927-.23-1.677-.67-2.25-.44-.578-1.02-.867-1.75-.867-.71 0-1.29.284-1.73.852-.43.567-.65 1.38-.65 2.437zm9.42-4.32l.05 1.062c.64-.812 1.49-1.218 2.53-1.218 1.78 0 2.69 1.007 2.7 3.023V177h-1.44v-5.594c-.01-.609-.15-1.06-.43-1.351-.27-.292-.69-.438-1.27-.438-.47 0-.88.125-1.23.375-.36.25-.63.578-.83.985V177h-1.45v-8.453h1.37zm8.83 0l.05 1.062c.64-.812 1.48-1.218 2.53-1.218 1.78 0 2.68 1.007 2.7 3.023V177h-1.45v-5.594c0-.609-.14-1.06-.42-1.351-.27-.292-.69-.438-1.27-.438-.47 0-.88.125-1.24.375-.35.25-.63.578-.82.985V177h-1.45v-8.453h1.37zm10.97 8.609c-1.15 0-2.08-.375-2.8-1.125-.72-.755-1.08-1.763-1.08-3.023v-.266c0-.838.16-1.586.48-2.242.32-.661.77-1.177 1.34-1.547a3.405 3.405 0 011.88-.562c1.1 0 1.95.362 2.56 1.086.61.724.91 1.76.91 3.109v.602h-5.72c.02.833.26 1.507.72 2.023.47.51 1.07.766 1.79.766.51 0 .94-.105 1.29-.313.36-.208.67-.484.93-.828l.88.687c-.7 1.089-1.77 1.633-3.18 1.633zm-.18-7.578c-.59 0-1.08.214-1.47.641-.4.422-.64 1.015-.74 1.781h4.24v-.109c-.04-.735-.24-1.302-.6-1.703-.35-.407-.83-.61-1.43-.61zm8.54 6.399c.52 0 .97-.157 1.36-.469a1.7 1.7 0 00.64-1.172h1.36c-.02.484-.19.945-.5 1.383-.3.437-.71.786-1.23 1.047-.51.26-1.05.39-1.63.39-1.15 0-2.06-.383-2.75-1.148-.67-.771-1.01-1.823-1.01-3.156v-.243c0-.823.15-1.554.45-2.195.3-.641.74-1.138 1.3-1.492.57-.354 1.24-.531 2.01-.531.94 0 1.73.283 2.36.851.63.568.96 1.305 1 2.211h-1.36c-.05-.547-.25-.995-.63-1.344-.37-.354-.83-.531-1.37-.531-.74 0-1.31.266-1.71.797-.41.526-.61 1.289-.61 2.289v.274c0 .973.2 1.723.61 2.25.4.526.97.789 1.71.789zm6.95-9.477v2.047h1.58v1.117h-1.58v5.242c0 .339.07.594.21.766.14.167.38.25.72.25.17 0 .4-.031.69-.094V177c-.38.104-.75.156-1.11.156-.65 0-1.14-.195-1.46-.586-.33-.39-.5-.945-.5-1.664v-5.242h-1.53v-1.117h1.53V166.5h1.45zm8.2 8.258c0-.391-.15-.693-.45-.906-.29-.219-.81-.407-1.54-.563-.73-.156-1.31-.344-1.74-.562-.43-.219-.75-.48-.95-.782-.21-.302-.31-.661-.31-1.078 0-.693.29-1.278.88-1.758.58-.479 1.33-.718 2.25-.718.95 0 1.73.247 2.32.742.6.495.9 1.127.9 1.898h-1.45c0-.396-.17-.737-.51-1.023-.33-.287-.75-.43-1.26-.43-.53 0-.94.115-1.24.344-.3.229-.44.529-.44.898 0 .349.13.612.41.789.28.177.77.347 1.49.508.73.162 1.31.354 1.76.578.45.224.78.495.99.813.22.312.33.695.33 1.148 0 .755-.3 1.362-.91 1.821-.6.453-1.38.679-2.35.679-.67 0-1.27-.12-1.79-.359-.53-.24-.93-.573-1.23-1a2.469 2.469 0 01-.44-1.399h1.45c.02.485.22.87.57 1.157.37.281.85.422 1.44.422.55 0 .99-.11 1.32-.329.33-.224.5-.52.5-.89zm-198.21 25c0-.391-.15-.693-.44-.906-.3-.219-.81-.407-1.54-.563-.73-.156-1.31-.344-1.74-.562-.43-.219-.75-.48-.96-.782-.2-.302-.3-.661-.3-1.078 0-.693.29-1.278.87-1.758.59-.479 1.34-.718 2.25-.718.96 0 1.74.247 2.33.742.6.495.9 1.127.9 1.898h-1.45c0-.396-.17-.737-.51-1.023-.34-.287-.76-.43-1.27-.43-.52 0-.93.115-1.23.344-.3.229-.45.529-.45.898 0 .349.14.612.42.789.27.177.77.347 1.49.508.72.162 1.31.354 1.76.578.44.224.78.495.99.813.22.312.33.695.33 1.148 0 .755-.3 1.362-.91 1.821-.6.453-1.39.679-2.35.679-.68 0-1.28-.12-1.8-.359-.52-.24-.93-.573-1.22-1-.3-.432-.44-.899-.44-1.399h1.44c.03.485.22.87.58 1.157.37.281.85.422 1.44.422.55 0 .98-.11 1.31-.329.34-.224.5-.52.5-.89zm2.95-2.063c0-.828.16-1.573.48-2.234.33-.662.78-1.172 1.36-1.531.58-.36 1.25-.539 1.99-.539 1.15 0 2.08.398 2.79 1.195.72.797 1.07 1.857 1.07 3.18v.101c0 .823-.16 1.563-.47 2.219a3.613 3.613 0 01-1.36 1.523c-.58.365-1.25.547-2.01.547-1.15 0-2.08-.398-2.79-1.195s-1.06-1.852-1.06-3.164v-.102zm1.45.172c0 .938.22 1.69.65 2.258.44.568 1.02.852 1.75.852s1.32-.287 1.75-.86c.43-.578.65-1.385.65-2.422 0-.927-.22-1.677-.67-2.25-.43-.578-1.02-.867-1.75-.867-.71 0-1.29.284-1.72.852-.44.567-.66 1.38-.66 2.437zm8.77 4.133v-7.336h-1.34v-1.117h1.34v-.867c0-.907.24-1.607.72-2.102.49-.495 1.17-.742 2.06-.742.33 0 .66.044.99.133l-.08 1.172a4.06 4.06 0 00-.78-.071c-.47 0-.83.138-1.09.414-.25.271-.38.662-.38 1.172v.891h1.81v1.117h-1.81V202h-1.44zm6.81-10.5v2.047h1.58v1.117h-1.58v5.242c0 .339.07.594.21.766.14.167.38.25.72.25.16 0 .39-.031.69-.094V202c-.38.104-.75.156-1.11.156-.65 0-1.14-.195-1.46-.586-.33-.39-.5-.945-.5-1.664v-5.242h-1.54v-1.117h1.54V191.5h1.45zm10.76 8.508l1.62-6.461h1.45l-2.46 8.453h-1.18l-2.05-6.406-2 6.406h-1.17l-2.46-8.453h1.44l1.67 6.328 1.96-6.328h1.17l2.01 6.461zm9.76 1.992c-.08-.167-.15-.464-.2-.891-.67.698-1.48 1.047-2.41 1.047-.83 0-1.52-.234-2.05-.703a2.311 2.311 0 01-.8-1.797c0-.88.33-1.562 1-2.047.67-.489 1.62-.734 2.83-.734h1.41v-.664c0-.505-.16-.906-.46-1.203-.3-.302-.75-.453-1.33-.453-.52 0-.95.13-1.3.39-.35.261-.52.576-.52.946h-1.46c0-.422.15-.829.45-1.219.3-.396.71-.708 1.22-.938a4.101 4.101 0 011.69-.343c.98 0 1.74.244 2.29.734.55.484.84 1.154.86 2.008v3.89c0 .776.1 1.394.3 1.852V202h-1.52zm-2.4-1.102c.46 0 .89-.117 1.29-.351.41-.235.7-.539.89-.914v-1.735h-1.14c-1.77 0-2.65.519-2.65 1.555 0 .453.15.807.45 1.063.3.255.69.382 1.16.382zm9.97-6.054a4.23 4.23 0 00-.71-.055c-.95 0-1.59.404-1.93 1.211v6h-1.44v-8.453h1.4l.03.976c.47-.755 1.14-1.132 2.01-1.132.28 0 .5.036.64.109v1.344zm4.69 7.312c-1.15 0-2.08-.375-2.8-1.125-.72-.755-1.08-1.763-1.08-3.023v-.266c0-.838.16-1.586.48-2.242a3.7 3.7 0 011.35-1.547c.57-.375 1.2-.562 1.87-.562 1.1 0 1.95.362 2.56 1.086.61.724.92 1.76.92 3.109v.602H1076c.02.833.26 1.507.73 2.023.47.51 1.06.766 1.78.766.51 0 .94-.105 1.29-.313.36-.208.67-.484.93-.828l.89.687c-.71 1.089-1.77 1.633-3.19 1.633zm-.18-7.578c-.58 0-1.07.214-1.47.641-.39.422-.64 1.015-.73 1.781h4.23v-.109c-.04-.735-.24-1.302-.59-1.703-.36-.407-.84-.61-1.44-.61zm11.89 5.305l1.97-6.336h1.55l-3.4 9.758c-.53 1.406-1.36 2.109-2.51 2.109l-.27-.023-.54-.102v-1.172l.39.031c.49 0 .87-.099 1.14-.296.27-.198.5-.56.68-1.086l.32-.86-3.02-8.359h1.58l2.11 6.336zm4.31-2.188c0-.828.16-1.573.48-2.234.33-.662.78-1.172 1.36-1.531.58-.36 1.25-.539 1.99-.539 1.15 0 2.08.398 2.79 1.195s1.07 1.857 1.07 3.18v.101c0 .823-.16 1.563-.48 2.219a3.527 3.527 0 01-1.35 1.523c-.58.365-1.25.547-2.01.547-1.15 0-2.08-.398-2.79-1.195s-1.06-1.852-1.06-3.164v-.102zm1.45.172c0 .938.21 1.69.65 2.258.43.568 1.02.852 1.75.852s1.31-.287 1.75-.86c.43-.578.65-1.385.65-2.422 0-.927-.23-1.677-.67-2.25-.44-.578-1.02-.867-1.75-.867-.71 0-1.29.284-1.73.852-.43.567-.65 1.38-.65 2.437zm13.27 3.297c-.56.662-1.39.992-2.47.992-.91 0-1.59-.26-2.07-.781-.47-.526-.7-1.302-.71-2.328v-5.5h1.45v5.461c0 1.281.52 1.922 1.56 1.922 1.1 0 1.84-.412 2.2-1.235v-6.148h1.45V202h-1.38l-.03-.836zm12.8 0c-.56.662-1.39.992-2.48.992-.9 0-1.59-.26-2.06-.781-.47-.526-.71-1.302-.71-2.328v-5.5h1.44v5.461c0 1.281.52 1.922 1.57 1.922 1.1 0 1.84-.412 2.2-1.235v-6.148h1.45V202H1122l-.03-.836zm8.53-1.406c0-.391-.15-.693-.45-.906-.29-.219-.8-.407-1.53-.563-.73-.156-1.31-.344-1.75-.562-.42-.219-.74-.48-.95-.782-.2-.302-.3-.661-.3-1.078 0-.693.29-1.278.87-1.758.59-.479 1.34-.718 2.25-.718.96 0 1.74.247 2.33.742.6.495.9 1.127.9 1.898h-1.46c0-.396-.17-.737-.5-1.023-.34-.287-.76-.43-1.27-.43-.53 0-.94.115-1.23.344-.3.229-.45.529-.45.898 0 .349.14.612.42.789.27.177.77.347 1.49.508.72.162 1.31.354 1.75.578.45.224.78.495 1 .813.22.312.33.695.33 1.148 0 .755-.31 1.362-.91 1.821-.61.453-1.39.679-2.35.679-.68 0-1.28-.12-1.8-.359-.52-.24-.93-.573-1.23-1a2.458 2.458 0 01-.43-1.399h1.44c.03.485.22.87.58 1.157.36.281.84.422 1.44.422.54 0 .98-.11 1.31-.329.33-.224.5-.52.5-.89zm6.84 2.398c-1.15 0-2.08-.375-2.8-1.125-.72-.755-1.08-1.763-1.08-3.023v-.266c0-.838.16-1.586.48-2.242.32-.661.77-1.177 1.34-1.547.58-.375 1.2-.562 1.88-.562 1.1 0 1.95.362 2.56 1.086.61.724.91 1.76.91 3.109v.602h-5.72c.02.833.26 1.507.72 2.023.47.51 1.07.766 1.78.766.51 0 .95-.105 1.3-.313.36-.208.67-.484.93-.828l.88.687c-.7 1.089-1.77 1.633-3.18 1.633zm-.18-7.578c-.59 0-1.08.214-1.47.641-.4.422-.64 1.015-.74 1.781h4.24v-.109c-.04-.735-.24-1.302-.6-1.703-.35-.407-.83-.61-1.43-.61zm12.63 7.578c-1.15 0-2.08-.375-2.8-1.125-.72-.755-1.08-1.763-1.08-3.023v-.266c0-.838.16-1.586.48-2.242.32-.661.77-1.177 1.34-1.547a3.405 3.405 0 011.88-.562c1.1 0 1.95.362 2.56 1.086.61.724.92 1.76.92 3.109v.602h-5.73c.02.833.26 1.507.73 2.023.46.51 1.06.766 1.78.766.51 0 .94-.105 1.29-.313.36-.208.67-.484.93-.828l.89.687c-.71 1.089-1.77 1.633-3.19 1.633zm-.18-7.578c-.58 0-1.07.214-1.47.641-.4.422-.64 1.015-.73 1.781h4.23v-.109c-.04-.735-.24-1.302-.59-1.703-.36-.407-.84-.61-1.44-.61zm7.84 5.461l2.09-6.492h1.48l-3.04 8.453h-1.1l-3.06-8.453h1.48l2.15 6.492zm8.35 2.117c-1.14 0-2.07-.375-2.79-1.125-.72-.755-1.08-1.763-1.08-3.023v-.266c0-.838.16-1.586.48-2.242.32-.661.77-1.177 1.34-1.547.58-.375 1.2-.562 1.87-.562 1.1 0 1.96.362 2.57 1.086.61.724.91 1.76.91 3.109v.602h-5.72c.02.833.26 1.507.72 2.023.47.51 1.06.766 1.78.766.51 0 .95-.105 1.3-.313.35-.208.66-.484.93-.828l.88.687c-.71 1.089-1.77 1.633-3.19 1.633zm-.18-7.578c-.58 0-1.07.214-1.46.641-.4.422-.64 1.015-.74 1.781h4.24v-.109c-.05-.735-.24-1.302-.6-1.703-.35-.407-.83-.61-1.44-.61zm9.25.266a4.315 4.315 0 00-.71-.055c-.95 0-1.59.404-1.93 1.211v6h-1.45v-8.453h1.41l.02.976c.47-.755 1.15-1.132 2.02-1.132.28 0 .49.036.64.109v1.344zm4.24 5.039l1.97-6.336h1.54l-3.39 9.758c-.53 1.406-1.37 2.109-2.51 2.109l-.27-.023-.54-.102v-1.172l.39.031c.49 0 .87-.099 1.14-.296.27-.198.5-.56.68-1.086l.32-.86-3.02-8.359h1.58l2.11 6.336zm8.43-2.18c0-1.297.31-2.338.92-3.125.62-.792 1.42-1.187 2.42-1.187.98 0 1.77.338 2.35 1.015V190h1.44v12h-1.33l-.07-.906c-.57.708-1.38 1.062-2.41 1.062-.98 0-1.78-.401-2.4-1.203-.61-.802-.92-1.849-.92-3.141v-.109zm1.44.164c0 .959.2 1.709.6 2.25.39.542.94.813 1.64.813.92 0 1.58-.412 2.01-1.235v-3.883c-.44-.796-1.1-1.195-2-1.195-.7 0-1.26.274-1.65.821-.4.546-.6 1.356-.6 2.429zm13.16 4.133c-.08-.167-.15-.464-.2-.891-.67.698-1.48 1.047-2.41 1.047-.83 0-1.52-.234-2.05-.703a2.311 2.311 0 01-.8-1.797c0-.88.33-1.562 1-2.047.67-.489 1.61-.734 2.83-.734h1.4v-.664c0-.505-.15-.906-.45-1.203-.3-.302-.75-.453-1.34-.453-.51 0-.94.13-1.29.39-.35.261-.53.576-.53.946h-1.45c0-.422.15-.829.45-1.219.3-.396.71-.708 1.22-.938a4.101 4.101 0 011.69-.343c.97 0 1.74.244 2.29.734.55.484.84 1.154.86 2.008v3.89c0 .776.1 1.394.3 1.852V202h-1.52zm-2.4-1.102c.46 0 .88-.117 1.29-.351.41-.235.7-.539.88-.914v-1.735h-1.13c-1.77 0-2.66.519-2.66 1.555 0 .453.16.807.46 1.063.3.255.69.382 1.16.382zm8.53-1.015l1.96-6.336h1.55l-3.4 9.758c-.52 1.406-1.36 2.109-2.5 2.109l-.28-.023-.54-.102v-1.172l.39.031c.49 0 .87-.099 1.14-.296.28-.198.51-.56.68-1.086l.32-.86-3.01-8.359h1.58l2.11 6.336zm10.74-8.383v2.047h1.58v1.117h-1.58v5.242c0 .339.07.594.21.766.14.167.38.25.72.25.16 0 .39-.031.68-.094V202c-.38.104-.74.156-1.1.156-.65 0-1.14-.195-1.47-.586-.32-.39-.49-.945-.49-1.664v-5.242h-1.54v-1.117h1.54V191.5h1.45zm2.73 6.195c0-.828.16-1.573.49-2.234.32-.662.78-1.172 1.36-1.531.58-.36 1.24-.539 1.99-.539 1.15 0 2.08.398 2.79 1.195s1.07 1.857 1.07 3.18v.101c0 .823-.16 1.563-.48 2.219a3.527 3.527 0 01-1.35 1.523c-.58.365-1.26.547-2.02.547-1.14 0-2.07-.398-2.79-1.195-.7-.797-1.06-1.852-1.06-3.164v-.102zm1.46.172c0 .938.21 1.69.64 2.258.44.568 1.02.852 1.75.852.74 0 1.32-.287 1.75-.86.44-.578.65-1.385.65-2.422 0-.927-.22-1.677-.66-2.25-.44-.578-1.02-.867-1.75-.867-.72 0-1.29.284-1.73.852-.44.567-.65 1.38-.65 2.437zM1025.97 228c-.08-.167-.15-.464-.2-.891-.68.698-1.48 1.047-2.41 1.047-.83 0-1.52-.234-2.06-.703-.53-.474-.79-1.073-.79-1.797 0-.88.33-1.562 1-2.047.67-.489 1.61-.734 2.83-.734h1.4v-.664c0-.505-.15-.906-.45-1.203-.3-.302-.75-.453-1.34-.453-.51 0-.94.13-1.29.39-.35.261-.53.576-.53.946h-1.45c0-.422.15-.829.44-1.219a3.16 3.16 0 011.22-.938 4.148 4.148 0 011.7-.343c.97 0 1.74.244 2.29.734.55.484.84 1.154.86 2.008v3.89c0 .776.1 1.394.29 1.852V228h-1.51zm-2.4-1.102c.45 0 .88-.117 1.29-.351.41-.235.7-.539.88-.914v-1.735h-1.13c-1.77 0-2.66.519-2.66 1.555 0 .453.15.807.46 1.063.3.255.69.382 1.16.382zm11.1.266c-.56.662-1.39.992-2.47.992-.91 0-1.59-.26-2.07-.781-.47-.526-.7-1.302-.71-2.328v-5.5h1.45v5.461c0 1.281.52 1.922 1.56 1.922 1.1 0 1.84-.412 2.2-1.235v-6.148h1.45V228h-1.38l-.03-.836zm5.57-9.664v2.047h1.58v1.117h-1.58v5.242c0 .339.07.594.21.766.14.167.38.25.72.25.17 0 .4-.031.69-.094V228c-.38.104-.75.156-1.11.156-.65 0-1.13-.195-1.46-.586-.33-.39-.49-.945-.49-1.664v-5.242h-1.54v-1.117h1.54V217.5h1.44zm2.74 6.195c0-.828.16-1.573.48-2.234.33-.662.78-1.172 1.36-1.531.58-.36 1.25-.539 1.99-.539 1.15 0 2.08.398 2.79 1.195.72.797 1.07 1.857 1.07 3.18v.101c0 .823-.16 1.563-.47 2.219a3.613 3.613 0 01-1.36 1.523c-.58.365-1.25.547-2.01.547-1.15 0-2.08-.398-2.79-1.195s-1.06-1.852-1.06-3.164v-.102zm1.45.172c0 .938.22 1.69.65 2.258.44.568 1.02.852 1.75.852s1.32-.287 1.75-.86c.43-.578.65-1.385.65-2.422 0-.927-.22-1.677-.67-2.25-.44-.578-1.02-.867-1.75-.867-.71 0-1.29.284-1.72.852-.44.567-.66 1.38-.66 2.437zm9.41-4.32l.04.937c.62-.729 1.46-1.093 2.51-1.093 1.18 0 1.99.453 2.41 1.359.29-.406.65-.734 1.1-.984.45-.25.99-.375 1.6-.375 1.85 0 2.8.981 2.83 2.945V228h-1.45v-5.578c0-.604-.14-1.055-.41-1.352-.28-.302-.74-.453-1.39-.453-.54 0-.98.162-1.34.485-.35.317-.56.747-.62 1.289V228h-1.45v-5.539c0-1.229-.6-1.844-1.8-1.844-.95 0-1.6.404-1.95 1.211V228h-1.44v-8.453h1.36zm17.89 8.453c-.08-.167-.15-.464-.2-.891-.67.698-1.47 1.047-2.41 1.047-.83 0-1.51-.234-2.05-.703a2.311 2.311 0 01-.8-1.797c0-.88.34-1.562 1-2.047.68-.489 1.62-.734 2.83-.734h1.41v-.664c0-.505-.15-.906-.46-1.203-.3-.302-.74-.453-1.33-.453-.52 0-.95.13-1.3.39-.35.261-.52.576-.52.946h-1.45c0-.422.14-.829.44-1.219.3-.396.71-.708 1.22-.938a4.101 4.101 0 011.69-.343c.98 0 1.74.244 2.29.734.56.484.84 1.154.86 2.008v3.89c0 .776.1 1.394.3 1.852V228h-1.52zm-2.39-1.102c.45 0 .88-.117 1.28-.351.41-.235.71-.539.89-.914v-1.735h-1.13c-1.78 0-2.66.519-2.66 1.555 0 .453.15.807.45 1.063.3.255.69.382 1.17.382zm7.84-9.398v2.047h1.58v1.117h-1.58v5.242c0 .339.07.594.21.766.14.167.38.25.72.25.17 0 .4-.031.69-.094V228c-.38.104-.75.156-1.11.156-.65 0-1.14-.195-1.46-.586-.33-.39-.5-.945-.5-1.664v-5.242h-1.53v-1.117h1.53V217.5h1.45zm6.78 10.656c-1.14 0-2.08-.375-2.8-1.125-.71-.755-1.07-1.763-1.07-3.023v-.266c0-.838.15-1.586.47-2.242.33-.661.77-1.177 1.35-1.547.57-.375 1.2-.562 1.87-.562 1.1 0 1.95.362 2.56 1.086.61.724.92 1.76.92 3.109v.602h-5.73c.02.833.26 1.507.73 2.023.47.51 1.06.766 1.78.766.51 0 .94-.105 1.3-.313.35-.208.66-.484.93-.828l.88.687c-.71 1.089-1.77 1.633-3.19 1.633zm-.18-7.578c-.58 0-1.07.214-1.47.641-.39.422-.64 1.015-.73 1.781h4.23v-.109c-.04-.735-.24-1.302-.59-1.703-.36-.407-.83-.61-1.44-.61zm11.09-3.078v2.047h1.58v1.117h-1.58v5.242c0 .339.07.594.21.766.14.167.38.25.72.25.16 0 .39-.031.68-.094V228c-.38.104-.75.156-1.1.156-.65 0-1.14-.195-1.47-.586-.32-.39-.49-.945-.49-1.664v-5.242h-1.54v-1.117h1.54V217.5h1.45zm8.49 10.5c-.08-.167-.15-.464-.2-.891-.68.698-1.48 1.047-2.41 1.047-.83 0-1.52-.234-2.05-.703-.54-.474-.8-1.073-.8-1.797 0-.88.33-1.562 1-2.047.67-.489 1.61-.734 2.83-.734h1.4v-.664c0-.505-.15-.906-.45-1.203-.3-.302-.75-.453-1.34-.453-.51 0-.94.13-1.29.39-.35.261-.53.576-.53.946h-1.45c0-.422.15-.829.45-1.219.3-.396.7-.708 1.21-.938a4.182 4.182 0 011.7-.343c.97 0 1.74.244 2.29.734.55.484.84 1.154.86 2.008v3.89c0 .776.1 1.394.3 1.852V228h-1.52zm-2.4-1.102c.45 0 .88-.117 1.29-.351.41-.235.7-.539.88-.914v-1.735H1102c-1.77 0-2.66.519-2.66 1.555 0 .453.15.807.46 1.063.3.255.69.382 1.16.382zm10.81-1.14c0-.391-.15-.693-.45-.906-.29-.219-.8-.407-1.54-.563-.73-.156-1.31-.344-1.74-.562-.43-.219-.75-.48-.95-.782-.21-.302-.31-.661-.31-1.078 0-.693.29-1.278.88-1.758.58-.479 1.33-.718 2.25-.718.95 0 1.73.247 2.32.742.6.495.9 1.127.9 1.898h-1.45c0-.396-.17-.737-.51-1.023-.33-.287-.75-.43-1.26-.43-.53 0-.94.115-1.24.344-.29.229-.44.529-.44.898 0 .349.13.612.41.789.28.177.77.347 1.49.508.73.162 1.31.354 1.76.578.45.224.78.495.99.813.22.312.33.695.33 1.148 0 .755-.3 1.362-.91 1.821-.6.453-1.38.679-2.35.679-.67 0-1.27-.12-1.79-.359-.52-.24-.93-.573-1.23-1a2.469 2.469 0 01-.44-1.399h1.45c.02.485.22.87.58 1.157.36.281.84.422 1.43.422.55 0 .99-.11 1.32-.329.33-.224.5-.52.5-.89zm5.68-1.672l-.9.945V228h-1.45v-12h1.45v7.258l.77-.93 2.63-2.781h1.76l-3.29 3.531 3.67 4.922h-1.69l-2.95-3.914zm10.67 1.672c0-.391-.14-.693-.44-.906-.29-.219-.8-.407-1.54-.563-.73-.156-1.31-.344-1.74-.562-.43-.219-.75-.48-.95-.782-.21-.302-.31-.661-.31-1.078 0-.693.29-1.278.88-1.758.58-.479 1.33-.718 2.25-.718.95 0 1.73.247 2.32.742.6.495.9 1.127.9 1.898h-1.45c0-.396-.17-.737-.51-1.023-.33-.287-.75-.43-1.26-.43-.53 0-.94.115-1.24.344-.3.229-.44.529-.44.898 0 .349.13.612.41.789.28.177.77.347 1.49.508.73.162 1.31.354 1.76.578.45.224.78.495.99.813.22.312.33.695.33 1.148 0 .755-.3 1.362-.91 1.821-.6.453-1.38.679-2.35.679-.67 0-1.27-.12-1.79-.359-.53-.24-.93-.573-1.23-1a2.469 2.469 0 01-.44-1.399h1.45c.02.485.22.87.58 1.157.36.281.84.422 1.43.422.55 0 .99-.11 1.31-.329.34-.224.5-.52.5-.89zm12.52 2.242c-.08-.167-.15-.464-.2-.891-.67.698-1.48 1.047-2.41 1.047-.83 0-1.52-.234-2.05-.703a2.311 2.311 0 01-.8-1.797c0-.88.33-1.562 1-2.047.67-.489 1.61-.734 2.83-.734h1.4v-.664c0-.505-.15-.906-.45-1.203-.3-.302-.75-.453-1.34-.453-.51 0-.94.13-1.29.39-.35.261-.53.576-.53.946h-1.45c0-.422.15-.829.45-1.219.3-.396.71-.708 1.22-.938a4.101 4.101 0 011.69-.343c.97 0 1.74.244 2.29.734.55.484.84 1.154.86 2.008v3.89c0 .776.1 1.394.3 1.852V228h-1.52zm-2.4-1.102c.46 0 .88-.117 1.29-.351.41-.235.7-.539.88-.914v-1.735h-1.13c-1.77 0-2.66.519-2.66 1.555 0 .453.16.807.46 1.063.3.255.69.382 1.16.382zm7.25-7.351l.05 1.062c.64-.812 1.49-1.218 2.53-1.218 1.79 0 2.69 1.007 2.7 3.023V228h-1.44v-5.594c-.01-.609-.15-1.06-.42-1.351-.27-.292-.7-.438-1.28-.438-.47 0-.88.125-1.23.375-.36.25-.63.578-.83.985V228h-1.45v-8.453h1.37zm7.11 4.156c0-1.297.31-2.338.92-3.125.62-.792 1.42-1.187 2.42-1.187.99 0 1.77.338 2.35 1.015V216h1.44v12h-1.32l-.07-.906c-.58.708-1.39 1.062-2.42 1.062-.98 0-1.78-.401-2.4-1.203-.61-.802-.92-1.849-.92-3.141v-.109zm1.45.164c0 .959.19 1.709.59 2.25.4.542.94.813 1.64.813.92 0 1.59-.412 2.01-1.235v-3.883c-.43-.796-1.1-1.195-1.99-1.195-.71 0-1.26.274-1.66.821-.4.546-.59 1.356-.59 2.429zm16.83 1.891c0-.391-.15-.693-.45-.906-.29-.219-.81-.407-1.54-.563-.73-.156-1.31-.344-1.74-.562-.43-.219-.75-.48-.95-.782-.21-.302-.31-.661-.31-1.078 0-.693.29-1.278.88-1.758.58-.479 1.33-.718 2.25-.718.95 0 1.73.247 2.32.742.6.495.9 1.127.9 1.898h-1.45c0-.396-.17-.737-.51-1.023-.33-.287-.75-.43-1.26-.43-.53 0-.94.115-1.24.344-.3.229-.44.529-.44.898 0 .349.13.612.41.789.28.177.77.347 1.49.508.73.162 1.31.354 1.76.578.45.224.78.495.99.813.22.312.33.695.33 1.148 0 .755-.3 1.362-.91 1.821-.6.453-1.38.679-2.35.679-.67 0-1.27-.12-1.79-.359-.53-.24-.93-.573-1.23-1a2.469 2.469 0 01-.44-1.399h1.45c.02.485.22.87.57 1.157.37.281.85.422 1.44.422.55 0 .99-.11 1.32-.329.33-.224.5-.52.5-.89zm8.54 2.242c-.08-.167-.15-.464-.2-.891-.67.698-1.48 1.047-2.41 1.047-.83 0-1.52-.234-2.05-.703a2.311 2.311 0 01-.8-1.797c0-.88.33-1.562 1-2.047.67-.489 1.62-.734 2.83-.734h1.41v-.664c0-.505-.16-.906-.46-1.203-.3-.302-.75-.453-1.33-.453-.52 0-.95.13-1.3.39-.35.261-.52.576-.52.946h-1.46c0-.422.15-.829.45-1.219.3-.396.71-.708 1.22-.938a4.101 4.101 0 011.69-.343c.98 0 1.74.244 2.29.734.55.484.84 1.154.86 2.008v3.89c0 .776.1 1.394.3 1.852V228h-1.52zm-2.4-1.102c.46 0 .89-.117 1.29-.351.41-.235.7-.539.89-.914v-1.735h-1.14c-1.77 0-2.65.519-2.65 1.555 0 .453.15.807.45 1.063.3.255.69.382 1.16.382zm8.55-.859l2.09-6.492h1.48l-3.03 8.453h-1.1l-3.06-8.453h1.47l2.15 6.492zm8.36 2.117c-1.15 0-2.08-.375-2.8-1.125-.72-.755-1.08-1.763-1.08-3.023v-.266c0-.838.16-1.586.48-2.242a3.7 3.7 0 011.35-1.547c.57-.375 1.2-.562 1.87-.562 1.1 0 1.95.362 2.56 1.086.61.724.92 1.76.92 3.109v.602h-5.73c.02.833.26 1.507.73 2.023.47.51 1.06.766 1.78.766.51 0 .94-.105 1.29-.313.36-.208.67-.484.93-.828l.89.687c-.71 1.089-1.77 1.633-3.19 1.633zm-.18-7.578c-.58 0-1.07.214-1.47.641-.39.422-.64 1.015-.73 1.781h4.23v-.109c-.04-.735-.24-1.302-.59-1.703-.36-.407-.84-.61-1.44-.61zM1022.71 242.5v2.047h1.58v1.117h-1.58v5.242c0 .339.07.594.21.766.14.167.38.25.72.25.17 0 .4-.031.69-.094V253c-.38.104-.75.156-1.11.156-.65 0-1.13-.195-1.46-.586-.33-.39-.49-.945-.49-1.664v-5.242h-1.54v-1.117h1.54V242.5h1.44zm4.84 10.5h-1.44v-8.453h1.44V253zm-1.56-10.695c0-.235.07-.433.21-.594.15-.162.36-.242.64-.242s.5.08.64.242c.15.161.22.359.22.594a.81.81 0 01-.22.586c-.14.156-.36.234-.64.234s-.49-.078-.64-.234a.848.848 0 01-.21-.586zm5.24 2.242l.04.937c.62-.729 1.46-1.093 2.51-1.093 1.18 0 1.99.453 2.42 1.359.28-.406.64-.734 1.09-.984.45-.25.99-.375 1.6-.375 1.85 0 2.8.981 2.83 2.945V253h-1.45v-5.578c0-.604-.13-1.055-.41-1.352-.28-.302-.74-.453-1.39-.453-.54 0-.98.162-1.34.485-.35.317-.56.747-.61 1.289V253h-1.46v-5.539c0-1.229-.6-1.844-1.8-1.844-.95 0-1.6.404-1.95 1.211V253h-1.44v-8.453h1.36zm16.18 8.609c-1.14 0-2.07-.375-2.79-1.125-.72-.755-1.08-1.763-1.08-3.023v-.266c0-.838.16-1.586.48-2.242.32-.661.77-1.177 1.34-1.547.58-.375 1.2-.562 1.87-.562 1.1 0 1.96.362 2.57 1.086.61.724.91 1.76.91 3.109v.602h-5.73c.03.833.27 1.507.73 2.023.47.51 1.06.766 1.78.766.51 0 .94-.105 1.3-.313.35-.208.66-.484.93-.828l.88.687c-.71 1.089-1.77 1.633-3.19 1.633zm-.18-7.578c-.58 0-1.07.214-1.46.641-.4.422-.65 1.015-.74 1.781h4.24v-.109c-.05-.735-.24-1.302-.6-1.703-.35-.407-.83-.61-1.44-.61zm5.19 6.664c0-.25.07-.458.22-.625.15-.166.38-.25.67-.25.3 0 .52.084.67.25.16.167.24.375.24.625 0 .24-.08.44-.24.602-.15.161-.37.242-.67.242-.29 0-.52-.081-.67-.242a.848.848 0 01-.22-.602zm9.99.758h-1.5v-11.375h1.5V253zm3.89-8.453l.05 1.062c.65-.812 1.49-1.218 2.53-1.218 1.79 0 2.69 1.007 2.71 3.023V253h-1.45v-5.594c0-.609-.15-1.06-.42-1.351-.27-.292-.7-.438-1.27-.438-.47 0-.88.125-1.24.375-.35.25-.63.578-.83.985V253h-1.44v-8.453h1.36zm9.43-2.047v2.047h1.57v1.117h-1.57v5.242c0 .339.07.594.21.766.14.167.38.25.72.25.16 0 .39-.031.68-.094V253c-.38.104-.75.156-1.11.156-.64 0-1.13-.195-1.46-.586-.32-.39-.49-.945-.49-1.664v-5.242h-1.54v-1.117h1.54V242.5h1.45zm6.78 10.656c-1.15 0-2.08-.375-2.8-1.125-.72-.755-1.08-1.763-1.08-3.023v-.266c0-.838.16-1.586.48-2.242.32-.661.77-1.177 1.34-1.547a3.405 3.405 0 011.88-.562c1.1 0 1.95.362 2.56 1.086.61.724.91 1.76.91 3.109v.602h-5.72c.02.833.26 1.507.72 2.023.47.51 1.07.766 1.79.766.51 0 .94-.105 1.29-.313.36-.208.67-.484.93-.828l.89.687c-.71 1.089-1.78 1.633-3.19 1.633zm-.18-7.578c-.59 0-1.07.214-1.47.641-.4.422-.64 1.015-.74 1.781h4.24v-.109c-.04-.735-.24-1.302-.59-1.703-.36-.407-.84-.61-1.44-.61zm4.81 3.125c0-1.318.31-2.364.91-3.141.61-.781 1.42-1.171 2.43-1.171 1.03 0 1.83.364 2.41 1.093l.07-.937h1.32v8.25c0 1.094-.32 1.956-.98 2.586-.64.63-1.51.945-2.6.945-.61 0-1.21-.13-1.79-.39-.59-.261-1.03-.618-1.34-1.071l.75-.867c.62.766 1.38 1.148 2.27 1.148.71 0 1.25-.197 1.64-.593.4-.396.6-.953.6-1.672v-.727c-.58.667-1.37 1-2.37 1-.99 0-1.79-.398-2.41-1.195-.6-.797-.91-1.883-.91-3.258zm1.45.164c0 .953.2 1.703.59 2.25.39.542.94.813 1.64.813.91 0 1.58-.414 2.01-1.242v-3.86c-.44-.807-1.11-1.211-1.99-1.211-.71 0-1.26.274-1.65.821-.4.546-.6 1.356-.6 2.429zm11.96-3.023a4.146 4.146 0 00-.71-.055c-.94 0-1.59.404-1.93 1.211v6h-1.44v-8.453h1.41l.02.976c.47-.755 1.14-1.132 2.01-1.132.29 0 .5.036.64.109v1.344zm6.25 7.156c-.09-.167-.15-.464-.21-.891-.67.698-1.47 1.047-2.4 1.047-.84 0-1.52-.234-2.06-.703-.53-.474-.79-1.073-.79-1.797 0-.88.33-1.562 1-2.047.67-.489 1.61-.734 2.82-.734h1.41v-.664c0-.505-.15-.906-.45-1.203-.3-.302-.75-.453-1.34-.453-.51 0-.95.13-1.3.39-.34.261-.52.576-.52.946h-1.45c0-.422.15-.829.44-1.219a3.16 3.16 0 011.22-.938 4.148 4.148 0 011.7-.343c.97 0 1.73.244 2.29.734.55.484.83 1.154.86 2.008v3.89c0 .776.09 1.394.29 1.852V253h-1.51zm-2.4-1.102c.45 0 .88-.117 1.29-.351.4-.235.7-.539.88-.914v-1.735h-1.13c-1.77 0-2.66.519-2.66 1.555 0 .453.15.807.45 1.063.31.255.69.382 1.17.382zm7.84-9.398v2.047h1.58v1.117h-1.58v5.242c0 .339.07.594.21.766.14.167.38.25.72.25.17 0 .4-.031.69-.094V253c-.38.104-.75.156-1.11.156-.65 0-1.13-.195-1.46-.586-.33-.39-.49-.945-.49-1.664v-5.242h-1.54v-1.117h1.54V242.5h1.44zm6.78 10.656c-1.14 0-2.07-.375-2.79-1.125-.72-.755-1.08-1.763-1.08-3.023v-.266c0-.838.16-1.586.47-2.242.33-.661.78-1.177 1.35-1.547.58-.375 1.2-.562 1.87-.562 1.1 0 1.96.362 2.57 1.086.61.724.91 1.76.91 3.109v.602h-5.73c.02.833.27 1.507.73 2.023.47.51 1.06.766 1.78.766.51 0 .94-.105 1.3-.313.35-.208.66-.484.93-.828l.88.687c-.71 1.089-1.77 1.633-3.19 1.633zm-.18-7.578c-.58 0-1.07.214-1.46.641-.4.422-.65 1.015-.74 1.781h4.24v-.109c-.05-.735-.24-1.302-.6-1.703-.35-.407-.83-.61-1.44-.61zm15.63 2.399h-4.77V253h-1.5v-11.375h7.04v1.234h-5.54v3.891h4.77v1.227zm3.91 5.023h-1.44v-8.453h1.44V253zm-1.56-10.695c0-.235.07-.433.21-.594.15-.162.36-.242.64-.242s.5.08.64.242c.15.161.22.359.22.594a.81.81 0 01-.22.586c-.14.156-.36.234-.64.234s-.49-.078-.64-.234a.848.848 0 01-.21-.586zm11.04 6.562c0 1.292-.3 2.331-.89 3.117-.59.782-1.39 1.172-2.39 1.172-1.07 0-1.9-.377-2.48-1.133l-.07.977h-1.33v-12h1.45v4.477c.58-.724 1.39-1.086 2.41-1.086 1.03 0 1.83.388 2.42 1.164.59.776.88 1.838.88 3.187v.125zm-1.45-.164c0-.984-.19-1.745-.57-2.281-.38-.537-.92-.805-1.64-.805-.95 0-1.63.443-2.05 1.328v3.657c.44.885 1.13 1.328 2.07 1.328.69 0 1.23-.269 1.62-.805.38-.536.57-1.344.57-2.422zm6.79 4.453c-1.15 0-2.08-.375-2.8-1.125-.72-.755-1.08-1.763-1.08-3.023v-.266c0-.838.16-1.586.48-2.242.32-.661.77-1.177 1.34-1.547.58-.375 1.2-.562 1.88-.562 1.09 0 1.95.362 2.56 1.086.61.724.91 1.76.91 3.109v.602h-5.72c.02.833.26 1.507.72 2.023.47.51 1.06.766 1.78.766.51 0 .95-.105 1.3-.313.35-.208.66-.484.93-.828l.88.687c-.71 1.089-1.77 1.633-3.18 1.633zm-.18-7.578c-.59 0-1.08.214-1.47.641-.4.422-.64 1.015-.74 1.781h4.24v-.109c-.04-.735-.24-1.302-.6-1.703-.35-.407-.83-.61-1.43-.61zm9.24.266a4.315 4.315 0 00-.71-.055c-.95 0-1.59.404-1.93 1.211v6h-1.45v-8.453h1.41l.02.976c.48-.755 1.15-1.132 2.02-1.132.28 0 .49.036.64.109v1.344zm4.24 5.039l1.97-6.336h1.55l-3.4 9.758c-.53 1.406-1.36 2.109-2.51 2.109l-.27-.023-.54-.102v-1.172l.39.031c.49 0 .87-.099 1.14-.296.27-.198.5-.56.68-1.086l.32-.86-3.02-8.359h1.58l2.11 6.336zm16.27.125l1.62-6.461h1.45l-2.46 8.453h-1.18l-2.05-6.406-2 6.406h-1.17l-2.46-8.453h1.44l1.66 6.328 1.97-6.328h1.17l2.01 6.461zm6.11 1.992h-1.44v-8.453h1.44V253zm-1.56-10.695c0-.235.07-.433.21-.594.15-.162.36-.242.64-.242s.5.08.64.242c.15.161.22.359.22.594a.81.81 0 01-.22.586c-.14.156-.36.234-.64.234s-.49-.078-.64-.234a.848.848 0 01-.21-.586zm5.84.195v2.047h1.58v1.117h-1.58v5.242c0 .339.07.594.22.766.14.167.38.25.71.25.17 0 .4-.031.69-.094V253c-.38.104-.75.156-1.11.156-.64 0-1.13-.195-1.46-.586-.33-.39-.49-.945-.49-1.664v-5.242h-1.54v-1.117h1.54V242.5h1.44zm4.72 3.07c.64-.786 1.48-1.179 2.5-1.179 1.79 0 2.69 1.007 2.71 3.023V253h-1.45v-5.594c0-.609-.15-1.06-.42-1.351-.27-.292-.7-.438-1.27-.438-.47 0-.88.125-1.24.375-.35.25-.63.578-.83.985V253h-1.44v-12h1.44v4.57zm-177.51 28.125c0-.828.16-1.573.48-2.234.33-.662.78-1.172 1.36-1.531.58-.36 1.25-.539 1.99-.539 1.15 0 2.08.398 2.79 1.195.72.797 1.07 1.857 1.07 3.18v.101c0 .823-.16 1.563-.47 2.219a3.613 3.613 0 01-1.36 1.523c-.58.365-1.25.547-2.01.547-1.15 0-2.08-.398-2.79-1.195s-1.06-1.852-1.06-3.164v-.102zm1.45.172c0 .938.22 1.69.65 2.258.44.568 1.02.852 1.75.852s1.32-.287 1.75-.86c.43-.578.65-1.385.65-2.422 0-.927-.22-1.677-.67-2.25-.43-.578-1.02-.867-1.75-.867-.71 0-1.29.284-1.72.852-.44.567-.66 1.38-.66 2.437zm10.02-6.367v2.047h1.57v1.117h-1.57v5.242c0 .339.07.594.21.766.14.167.38.25.72.25.16 0 .39-.031.68-.094V278c-.38.104-.75.156-1.11.156-.64 0-1.13-.195-1.46-.586-.33-.39-.49-.945-.49-1.664v-5.242h-1.54v-1.117h1.54V267.5h1.45zm4.71 3.07c.65-.786 1.48-1.179 2.5-1.179 1.79 0 2.69 1.007 2.71 3.023V278h-1.45v-5.594c0-.609-.14-1.06-.42-1.351-.27-.292-.69-.438-1.27-.438-.47 0-.88.125-1.24.375-.35.25-.63.578-.83.985V278h-1.44v-12h1.44v4.57zm10.88 7.586c-1.15 0-2.08-.375-2.8-1.125-.72-.755-1.08-1.763-1.08-3.023v-.266c0-.838.16-1.586.48-2.242a3.7 3.7 0 011.35-1.547c.57-.375 1.2-.562 1.87-.562 1.1 0 1.95.362 2.56 1.086.61.724.92 1.76.92 3.109v.602H1045c.02.833.26 1.507.73 2.023.47.51 1.06.766 1.78.766.51 0 .94-.105 1.29-.313.36-.208.67-.484.93-.828l.89.687c-.71 1.089-1.77 1.633-3.19 1.633zm-.18-7.578c-.58 0-1.07.214-1.47.641-.39.422-.64 1.015-.73 1.781h4.23v-.109c-.04-.735-.24-1.302-.59-1.703-.36-.407-.84-.61-1.44-.61zm9.24.266a4.23 4.23 0 00-.71-.055c-.95 0-1.59.404-1.93 1.211v6h-1.44v-8.453h1.4l.03.976c.47-.755 1.14-1.132 2.01-1.132.28 0 .5.036.64.109v1.344zm7.27-3.344v2.047h1.58v1.117h-1.58v5.242c0 .339.07.594.21.766.14.167.38.25.72.25.16 0 .39-.031.69-.094V278c-.39.104-.76.156-1.11.156-.65 0-1.14-.195-1.47-.586-.32-.39-.49-.945-.49-1.664v-5.242h-1.54v-1.117h1.54V267.5h1.45zm2.73 6.195c0-.828.16-1.573.49-2.234.32-.662.78-1.172 1.36-1.531.58-.36 1.24-.539 1.99-.539 1.15 0 2.08.398 2.79 1.195s1.07 1.857 1.07 3.18v.101c0 .823-.16 1.563-.48 2.219a3.527 3.527 0 01-1.35 1.523c-.58.365-1.26.547-2.02.547-1.14 0-2.07-.398-2.79-1.195-.7-.797-1.06-1.852-1.06-3.164v-.102zm1.46.172c0 .938.21 1.69.64 2.258.44.568 1.02.852 1.75.852.74 0 1.32-.287 1.75-.86.44-.578.65-1.385.65-2.422 0-.927-.22-1.677-.66-2.25-.44-.578-1.02-.867-1.75-.867-.72 0-1.29.284-1.73.852-.44.567-.65 1.38-.65 2.437zm7.67-.172c0-.828.16-1.573.48-2.234.33-.662.78-1.172 1.36-1.531.58-.36 1.25-.539 1.99-.539 1.15 0 2.08.398 2.79 1.195.72.797 1.07 1.857 1.07 3.18v.101c0 .823-.16 1.563-.47 2.219a3.613 3.613 0 01-1.36 1.523c-.58.365-1.25.547-2.01.547-1.15 0-2.08-.398-2.79-1.195s-1.06-1.852-1.06-3.164v-.102zm1.45.172c0 .938.22 1.69.65 2.258.44.568 1.02.852 1.75.852s1.32-.287 1.75-.86c.43-.578.65-1.385.65-2.422 0-.927-.22-1.677-.67-2.25-.43-.578-1.02-.867-1.75-.867-.71 0-1.29.284-1.72.852-.44.567-.66 1.38-.66 2.437zm9.63 4.133h-1.45v-12h1.45v12zm7.24-2.242c0-.391-.15-.693-.45-.906-.29-.219-.8-.407-1.54-.563-.73-.156-1.31-.344-1.74-.562-.43-.219-.74-.48-.95-.782-.21-.302-.31-.661-.31-1.078 0-.693.29-1.278.88-1.758.59-.479 1.34-.718 2.25-.718.96 0 1.73.247 2.33.742.6.495.89 1.127.89 1.898h-1.45c0-.396-.17-.737-.51-1.023-.33-.287-.75-.43-1.26-.43-.53 0-.94.115-1.24.344-.29.229-.44.529-.44.898 0 .349.14.612.41.789.28.177.78.347 1.49.508.73.162 1.31.354 1.76.578.45.224.78.495.99.813.22.312.33.695.33 1.148 0 .755-.3 1.362-.9 1.821-.61.453-1.39.679-2.36.679-.67 0-1.27-.12-1.79-.359-.52-.24-.93-.573-1.23-1a2.469 2.469 0 01-.44-1.399h1.45c.03.485.22.87.58 1.157.36.281.84.422 1.43.422.55 0 .99-.11 1.32-.329.33-.224.5-.52.5-.89zm10.8 2.398c-1.14 0-2.08-.375-2.79-1.125-.72-.755-1.08-1.763-1.08-3.023v-.266c0-.838.16-1.586.47-2.242.33-.661.77-1.177 1.35-1.547.58-.375 1.2-.562 1.87-.562 1.1 0 1.96.362 2.56 1.086.61.724.92 1.76.92 3.109v.602h-5.73c.02.833.27 1.507.73 2.023.47.51 1.06.766 1.78.766.51 0 .94-.105 1.3-.313.35-.208.66-.484.93-.828l.88.687c-.71 1.089-1.77 1.633-3.19 1.633zm-.18-7.578c-.58 0-1.07.214-1.47.641-.39.422-.64 1.015-.73 1.781h4.23v-.109c-.04-.735-.24-1.302-.59-1.703-.35-.407-.83-.61-1.44-.61zm10.38 7.422c-.09-.167-.15-.464-.21-.891-.67.698-1.47 1.047-2.4 1.047-.84 0-1.52-.234-2.06-.703-.53-.474-.79-1.073-.79-1.797 0-.88.33-1.562 1-2.047.67-.489 1.61-.734 2.82-.734h1.41v-.664c0-.505-.15-.906-.45-1.203-.3-.302-.75-.453-1.34-.453-.51 0-.95.13-1.3.39-.34.261-.52.576-.52.946h-1.45c0-.422.15-.829.44-1.219a3.16 3.16 0 011.22-.938 4.148 4.148 0 011.7-.343c.97 0 1.73.244 2.29.734.55.484.84 1.154.86 2.008v3.89c0 .776.1 1.394.29 1.852V278h-1.51zm-2.4-1.102c.45 0 .88-.117 1.29-.351.4-.235.7-.539.88-.914v-1.735h-1.13c-1.77 0-2.66.519-2.66 1.555 0 .453.15.807.46 1.063.3.255.69.382 1.16.382zm10.8-1.14c0-.391-.14-.693-.44-.906-.29-.219-.81-.407-1.54-.563-.73-.156-1.31-.344-1.74-.562-.43-.219-.75-.48-.96-.782-.2-.302-.3-.661-.3-1.078 0-.693.29-1.278.87-1.758.59-.479 1.34-.718 2.25-.718.96 0 1.74.247 2.33.742.6.495.9 1.127.9 1.898h-1.45c0-.396-.17-.737-.51-1.023-.33-.287-.76-.43-1.27-.43-.52 0-.93.115-1.23.344-.3.229-.45.529-.45.898 0 .349.14.612.42.789.27.177.77.347 1.49.508.72.162 1.31.354 1.76.578.45.224.78.495.99.813.22.312.33.695.33 1.148 0 .755-.3 1.362-.91 1.821-.6.453-1.39.679-2.35.679-.68 0-1.27-.12-1.8-.359-.52-.24-.93-.573-1.22-1a2.469 2.469 0 01-.44-1.399h1.45c.02.485.21.87.57 1.157.37.281.85.422 1.44.422.55 0 .99-.11 1.31-.329.34-.224.5-.52.5-.89zm4.9 2.242h-1.44v-8.453h1.44V278zm-1.56-10.695c0-.235.07-.433.21-.594.15-.162.36-.242.64-.242s.5.08.64.242c.15.161.22.359.22.594a.81.81 0 01-.22.586c-.14.156-.36.234-.64.234s-.49-.078-.64-.234a.848.848 0 01-.21-.586zm5.45 10.695h-1.44v-12h1.44v12zm5.09-2.117l1.97-6.336h1.54l-3.39 9.758c-.53 1.406-1.37 2.109-2.51 2.109l-.28-.023-.53-.102v-1.172l.39.031c.49 0 .87-.099 1.14-.296.27-.198.5-.56.68-1.086l.32-.86-3.02-8.359h1.58l2.11 6.336zm4 1.359c0-.25.07-.458.22-.625.15-.166.37-.25.67-.25.3 0 .52.084.67.25.16.167.24.375.24.625 0 .24-.08.44-.24.602-.15.161-.37.242-.67.242-.3 0-.52-.081-.67-.242a.848.848 0 01-.22-.602z" fill="#242938"/><defs><clipPath id="clip0"><path fill="#fff" transform="translate(1019.66 60)" d="M0 0h36v36H0z"/></clipPath><filter id="filter0_d" x="939.656" y="0" width="378" height="485" filterUnits="userSpaceOnUse" color-interpolation-filters="sRGB"><feFlood flood-opacity="0" result="BackgroundImageFix"/><feColorMatrix in="SourceAlpha" values="0 0 0 0 0 0 0 0 0 0 0 0 0 0 0 0 0 0 127 0" result="hardAlpha"/><feOffset dy="20"/><feGaussianBlur stdDeviation="25"/><feColorMatrix values="0 0 0 0 0 0 0 0 0 0 0 0 0 0 0 0 0 0 0.05 0"/><feBlend in2="BackgroundImageFix" result="effect1_dropShadow"/><feBlend in="SourceGraphic" in2="effect1_dropShadow" result="shape"/></filter></defs></svg>