<svg width="36" height="36" fill="none" xmlns="http://www.w3.org/2000/svg"><path fill-rule="evenodd" clip-rule="evenodd" d="M18 0C8.055 0 0 8.055 0 18c0 7.965 5.152 14.693 12.307 17.078.9.157 1.238-.383 1.238-.856 0-.427-.022-1.845-.022-3.352C9 31.702 7.83 29.767 7.47 28.755c-.202-.517-1.08-2.115-1.845-2.543-.63-.337-1.53-1.17-.022-1.192 1.417-.023 2.43 1.305 2.767 1.845 1.62 2.723 4.208 1.958 5.243 1.485.157-1.17.63-1.958 1.147-2.408-4.005-.45-8.19-2.002-8.19-8.887 0-1.957.697-3.578 1.845-4.838-.18-.45-.81-2.295.18-4.77 0 0 1.507-.472 4.95 1.846 1.44-.405 2.97-.608 4.5-.608 1.53 0 3.06.202 4.5.607 3.442-2.34 4.95-1.845 4.95-1.845.99 2.475.36 4.32.18 4.77 1.148 1.26 1.845 2.858 1.845 4.838 0 6.907-4.207 8.438-8.212 8.887.652.563 1.215 1.643 1.215 3.33 0 2.408-.023 4.343-.023 4.95 0 .473.337 1.035 1.238.855C30.848 32.694 36 25.944 36 18c0-9.945-8.055-18-18-18z" fill="#1B1F23"/></svg>