<svg width="37" height="36" fill="none" xmlns="http://www.w3.org/2000/svg"><g clip-path="url(#clip0)"><path d="M18.436 34.564l6.632-20.4H11.814l6.622 20.4z" fill="#E24329"/><path d="M2.524 14.164l-2.02 6.198a1.373 1.373 0 00.498 1.534l17.434 12.668-15.912-20.4z" fill="#FCA326"/><path d="M2.524 14.164h9.29L7.816 1.878c-.205-.629-1.096-.629-1.308 0L2.524 14.164z" fill="#E24329"/><path d="M34.358 14.164l2.012 6.198a1.373 1.373 0 01-.497 1.534L18.436 34.564l15.922-20.4z" fill="#FCA326"/><path d="M34.358 14.164h-9.29l3.99-12.286c.206-.629 1.097-.629 1.31 0l3.99 12.286z" fill="#E24329"/><path d="M18.436 34.564l6.632-20.4h9.29l-15.922 20.4z" fill="#FC6D26"/><path d="M18.436 34.564l-15.912-20.4h9.29l6.622 20.4z" fill="#FC6D26"/></g><defs><clipPath id="clip0"><path fill="#fff" transform="translate(.438)" d="M0 0h36v36H0z"/></clipPath></defs></svg>