<svg width="20" height="18" fill="none" xmlns="http://www.w3.org/2000/svg"><g clip-path="url(#clip0)"><path d="M.78 9A3 3 0 000 11a3 3 0 003 3h5.18A3 3 0 0011 18h6a3 3 0 003-3 3 3 0 00-.78-2 3 3 0 000-4 3 3 0 000-4A3 3 0 0020 3a3 3 0 00-3-3H3A3 3 0 00.78 5a3 3 0 000 4zM11 2h6a1 1 0 110 2h-6a1 1 0 110-2zm0 4h6a1 1 0 110 2h-6a1 1 0 110-2zm0 4h6a1 1 0 010 2h-6a1 1 0 010-2zm0 4h6a1 1 0 010 2h-6a1 1 0 010-2zM2.31 2.29A.93.93 0 013 2h5.18a2.87 2.87 0 000 2H3a1 1 0 01-1-1 1 1 0 01.31-.71zm0 4A.93.93 0 013 6h5.18a2.87 2.87 0 000 2H3a1 1 0 01-1-1 1 1 0 01.31-.71zm0 4A.93.93 0 013 10h5.18a2.87 2.87 0 000 2H3a1 1 0 01-1-1 1 1 0 01.31-.71z" fill="#0EC8E2"/></g><defs><clipPath id="clip0"><path fill="#fff" d="M0 0h20v18H0z"/></clipPath></defs></svg>