<svg width="70" height="70" fill="none" xmlns="http://www.w3.org/2000/svg"><path d="M57 35h-9c-7.18 0-13 5.82-13 13v9c0 7.18 5.82 13 13 13h9c7.18 0 13-5.82 13-13v-9c0-7.18-5.82-13-13-13z" fill="#A7FEE9"/><path d="M35 52.5C35 42.835 27.165 35 17.5 35S0 42.835 0 52.5 7.835 70 17.5 70 35 62.165 35 52.5z" fill="#FFEEA7"/><path d="M35 17.5C35 7.835 27.165 0 17.5 0S0 7.835 0 17.5 7.835 35 17.5 35 35 27.165 35 17.5z" fill="#A0D0FF"/><path d="M70 17.5C70 7.835 62.165 0 52.5 0S35 7.835 35 17.5 42.835 35 52.5 35 70 27.165 70 17.5z" fill="#FFDDEB"/></svg>