<svg width="18" height="18" fill="none" xmlns="http://www.w3.org/2000/svg"><path fill-rule="evenodd" clip-rule="evenodd" d="M6.507 4.52l.77.77-.769.768a.883.883 0 101.25 1.25l.768-.77 2.935 2.935-.769.769a.884.884 0 101.249 1.249l.769-.77.77.77a.883.883 0 001.249 0l.697-.696c2.056-2.056 2.243-5.274.575-7.548l1.514-1.513a.881.881 0 00.2-1.026.884.884 0 00-1.45-.223l-1.512 1.513a5.811 5.811 0 00-7.548.575l-.698.697a.883.883 0 000 1.25zm7.67 5.026l-.073.072-4.977-4.977-.746-.746.073-.073a4.02 4.02 0 015.723 0 4.023 4.023 0 010 5.724zm-2.705 5.204a.936.936 0 00.054-.056l.007-.008a.883.883 0 00-.059-1.19L4.503 6.524a.883.883 0 00-1.25 0l-.697.697a5.811 5.811 0 00-.575 7.548L.466 16.285a.882.882 0 101.249 1.249l1.515-1.516c2.274 1.668 5.492 1.48 7.548-.575l.694-.694zM3.805 8.47l.073-.072 5.724 5.723-.073.073a4.024 4.024 0 01-5.724 0 4.024 4.024 0 010-5.724z" fill="#8EC351"/></svg>