<svg width="36" height="36" fill="none" xmlns="http://www.w3.org/2000/svg"><path fill-rule="evenodd" clip-rule="evenodd" d="M11.992 1.052v6.592A11.946 11.946 0 006.008 18c0 6.615 5.376 11.992 11.992 11.992 6.616 0 11.992-5.377 11.992-11.992 0-4.442-2.408-8.299-5.984-10.38V1.053C30.998 3.53 36 10.192 36 18.023 36 27.958 27.935 36 18.023 36 8.112 36 0 27.935 0 18 0 10.169 5.003 3.506 11.992 1.052z" fill="#CCC"/><path fill-rule="evenodd" clip-rule="evenodd" d="M14.984.257A18.247 18.247 0 0117.977 0c1.028 0 2.01.094 2.992.257v6.125a11.536 11.536 0 00-2.992-.374c-1.029 0-2.034.14-2.993.374V.257zm0 23.237V9.514A9.039 9.039 0 0117.977 9c1.052 0 2.057.187 2.992.514v13.98a9.04 9.04 0 01-2.992.514 9.145 9.145 0 01-2.993-.514z" fill="#308CBB"/></svg>