<svg width="36" height="36" fill="none" xmlns="http://www.w3.org/2000/svg"><path d="M31.2 19.793a1.2 1.2 0 01-2.4 0V9a1.2 1.2 0 012.4 0v10.793zm-.419 7.51c-.185.16-4.63 3.89-12.781 3.89-8.15 0-12.596-3.73-12.781-3.89a1.2 1.2 0 011.56-1.824c.07.06 4.04 3.314 11.221 3.314 7.272 0 11.18-3.278 11.219-3.311a1.2 1.2 0 111.562 1.822zM4.8 9a1.2 1.2 0 012.4 0v10.793a1.2 1.2 0 01-2.4 0V9zm6-2.4a1.2 1.2 0 012.4 0v16.03a1.2 1.2 0 01-2.4 0V6.6zm6-.607a1.2 1.2 0 012.4 0v17.4a1.2 1.2 0 01-2.4 0v-17.4zm6 .607a1.2 1.2 0 012.4 0v16.03a1.2 1.2 0 01-2.4 0V6.6zM31.5 0h-27A4.5 4.5 0 000 4.5v27A4.5 4.5 0 004.5 36h27a4.5 4.5 0 004.5-4.5v-27A4.5 4.5 0 0031.5 0z" fill="#1F8DED"/></svg>