<svg width="36" height="36" fill="none" xmlns="http://www.w3.org/2000/svg"><g clip-path="url(#clip0)"><path d="M35.569 16.993L19.552 1.502 18 0 5.943 11.661.431 16.993C.155 17.26 0 17.623 0 18c0 .378.155.74.43 1.007l11.016 10.654L18 36l12.056-11.661.187-.18 5.326-5.152c.275-.267.43-.63.43-1.007 0-.378-.155-.74-.43-1.007zm-17.57 6.33L12.498 18 18 12.678 23.502 18 18 23.322z" fill="#2684FF"/><path d="M18 12.678c-1.73-1.674-2.706-3.943-2.714-6.31-.007-2.367.954-4.641 2.675-6.325L5.918 11.685l6.554 6.339L18 12.678z" fill="url(#paint0_linear)"/><path d="M23.517 17.986L18 23.322a8.95 8.95 0 012.01 2.908 8.708 8.708 0 01.706 3.43c0 1.178-.24 2.344-.706 3.432A8.947 8.947 0 0118 36l12.07-11.675-6.554-6.34z" fill="url(#paint1_linear)"/></g><defs><linearGradient id="paint0_linear" x1="17.017" y1="7.294" x2="9.589" y2="14.974" gradientUnits="userSpaceOnUse"><stop offset=".18" stop-color="#0052CC"/><stop offset="1" stop-color="#2684FF"/></linearGradient><linearGradient id="paint1_linear" x1="486.121" y1="1103.89" x2="746.202" y2="929.61" gradientUnits="userSpaceOnUse"><stop offset=".18" stop-color="#0052CC"/><stop offset="1" stop-color="#2684FF"/></linearGradient><clipPath id="clip0"><path fill="#fff" d="M0 0h36v36H0z"/></clipPath></defs></svg>