<svg width="99" height="27" fill="none" xmlns="http://www.w3.org/2000/svg"><g clip-path="url(#clip0)" fill="#08D8FF"><path d="M1.87 1.858v5.588c0 3.54.002 7.079-.001 10.617 0 .949-.6 1.377-1.475.973-.219-.102-.37-.578-.371-.881C0 12.677.006 7.199.006 1.723c0-.337.015-.676-.004-1.01C-.023.217.17-.038.69.002c.141.01.282.001.425.001h87.343c1.045 0 1.162.148 1.093 1.16-.061.915-.74.688-1.256.69-23.127.006-46.256.004-69.383.004H1.87zm95.271 23.3V8.988c0-1 .547-1.404 1.49-1.018.195.08.331.535.335.818.023 2.977.015 5.954.015 8.93 0 2.753-.032 5.506.018 8.258.015.84-.276 1.026-1.068 1.026-29.108-.017-58.216-.016-87.323-.01-.649 0-1.205.09-1.2-.903.005-.96.52-.933 1.188-.933 28.401.005 56.803.003 85.204.003l1.341-.001z"/><path d="M39.294 9.911c0 2.665.005 5.33-.003 7.994-.004 1-.23 1.216-1.173 1.21-.925-.004-1.127-.199-1.129-1.15-.005-2.835-.008-5.671.002-8.506.003-1.17.46-1.62 1.636-1.661.366-.012.735.008 1.1-.005.913-.033 1.449.38 1.754 1.251.94 2.694 1.932 5.37 3.094 8.052.012-.247.036-.495.036-.74.003-2.442-.002-4.886.003-7.327.002-1.177.725-1.685 1.826-1.221.23.096.455.518.458.792.032 3.031.036 6.064.01 9.095-.006.882-.507 1.318-1.39 1.355-2.657.115-2.655.115-3.544-2.374-.763-2.134-1.53-4.267-2.298-6.4-.051-.142-.133-.275-.199-.412l-.183.047zm40.469 3.405c0-1.515.017-3.03-.007-4.546-.011-.752.282-1.05 1.06-1.023 1.408.047 2.822.002 4.232.017 1.773.018 3.576 1.382 4.05 3.038.53 1.842-.203 3.69-1.87 4.717-.834.515-.84.532-.166 1.286.413.46.85.9 1.24 1.38.123.15.228.44.162.584-.068.147-.348.25-.548.276-.97.12-1.831-.019-2.456-.91-.351-.5-.803-.943-1.256-1.361-.26-.239-.592-.459-.928-.542-1.013-.252-1.252-.039-1.256.99v.59c-.005 1.134-.738 1.661-1.756 1.172-.26-.126-.47-.618-.48-.95-.048-1.573-.02-3.146-.02-4.718zm2.26-3.222c0 1.216-.021 2.303.023 3.39.006.18.29.49.456.498.927.044 1.862.066 2.785-.007 1.01-.08 1.853-1.075 1.807-2.002-.05-1.036-.913-1.857-2.002-1.876-.981-.017-1.964-.003-3.068-.003zM32.22 13.447c-.047.726-.043 1.46-.154 2.176-.329 2.13-1.573 3.362-3.742 3.566a9.82 9.82 0 01-2.925-.178c-1.896-.408-3.014-1.91-3.023-3.832-.005-1.179-.04-2.36.01-3.537.072-1.65.798-2.91 2.407-3.524 1.828-.7 3.662-.65 5.398.237 1.419.726 1.908 2.064 1.982 3.575.024.504.004 1.01.004 1.515l.044.002zm-2.165-.08L30 13.362c0-.42.019-.842-.003-1.26-.081-1.536-1.117-2.464-2.732-2.464-1.667 0-2.678.944-2.709 2.554a83.3 83.3 0 00-.001 2.687c.02 1.375.765 2.183 2.128 2.332 1.773.195 2.883-.428 3.175-1.853.134-.65.136-1.327.198-1.99zm-18.298-.523c.328-.313.524-.483.701-.672 1.147-1.237 2.29-2.48 3.437-3.717.408-.442 2.02-.755 2.51-.457.468.284.245.604-.024.897-1.205 1.3-2.388 2.621-3.627 3.888-.541.554-.604.921-.012 1.51 1.236 1.23 2.39 2.539 3.557 3.834.17.188.228.474.336.716-.263.117-.516.3-.79.339-.84.12-1.526-.127-2.07-.84-.578-.759-1.257-1.441-1.871-2.172-.436-.519-.944-.827-1.624-.578-.638.234-.604.801-.582 1.346.013.337.003.674.001 1.011-.006 1.082-.69 1.577-1.714 1.165-.239-.096-.514-.477-.517-.731-.034-3.257-.024-6.514-.022-9.772 0-.701.482-.808 1.035-.81.592-.002 1.191.03 1.21.825.025 1.067.005 2.133.01 3.2.002.268.029.535.056 1.018zm63.184-.624c0 1.012.053 2.024-.01 3.032-.139 2.237-1.254 3.54-3.458 3.916a8.676 8.676 0 01-2.846.007c-2.288-.386-3.423-1.786-3.498-4.259-.06-2.02-.024-4.043-.008-6.065.007-.813.312-1.048 1.176-1.058.743-.009 1.069.304 1.059 1.065a195.189 195.189 0 00-.002 5.644c.029 2.03 1.68 3.239 3.61 2.678 1.152-.335 1.851-1.342 1.829-2.52-.039-1.965-.027-3.93-.056-5.894-.01-.755.424-.955 1.078-.972.692-.018 1.164.178 1.159.976-.007 1.151-.002 2.303-.002 3.454-.012-.003-.02-.003-.03-.003zm-19.85-2.128c-1.003 0-1.873.01-2.742-.003-.937-.014-1.151-.234-1.154-1.138-.004-.931.188-1.146 1.128-1.152 2.596-.01 5.191.006 7.788-.008.784-.003 1.125.322 1.093 1.121-.038.933-.2 1.156-1.12 1.173-.895.017-1.789.004-2.787.004v1.68c0 2.049.002 4.098 0 6.146 0 1.062-.175 1.267-1.078 1.275-.945.009-1.123-.198-1.125-1.319v-6.736c-.003-.3-.003-.603-.003-1.043z"/></g><defs><clipPath id="clip0"><path fill="#fff" d="M0 0h99v27H0z"/></clipPath></defs></svg>