<svg width="131" height="30" fill="none" xmlns="http://www.w3.org/2000/svg"><path fill-rule="evenodd" clip-rule="evenodd" d="M121.237 21.079l-.09-.764c-.02-.127-.449-3.136 1.588-5.252.593-.618 1.308-.971 1.963-.971.557 0 1.016.244 1.248.709 1.126 2.251-4.709 6.278-4.709 6.278zm-8.868-4.742l-.078-1.27-.011-.16c-.002-.04-.285-4.058-.033-6.918.276-3.111 1.183-5.12 2.308-5.12.232 0 .452.118.625.335.562.703.726 2.578.375 4.268-.567 2.698-1.464 4.838-2.121 6.405-.186.443-.35.835-.479 1.175l-.586 1.285zm-6.152 8.473c-1.438 0-2.117-1.384-2.117-2.684 0-6.712 3.688-8.034 5.3-7.519 0 0 .053 1.275.183 2.916.113 1.424.215 3.11.239 3.256 0 0-1.34 4.03-3.605 4.03zm-11.72-9.942s-.41 9.942-4.142 9.942c-1.79 0-1.928-2.004-1.928-2.618 0-7.09 5.352-8.353 6.07-7.324zM59.96 25.048c-2.141 0-2.904-2.137-2.904-4.136 0-3.643 2.112-6.468 3.927-6.468 1.768 0 2.41 2.442 2.41 4.083 0 3.656-1.508 6.52-3.433 6.52zm-34.08-8.457c-1.227 1.92-4.023 3.819-4.836 4.121 0 0-.583-3.76 2.47-5.956 2.236-1.608 3.254.447 2.366 1.835zm93.377 8.817c.873 1.382 2.426 2.055 4.621 2.055 2.414 0 4.912-1.826 6.341-3.526.85-1.008.942-1.588.584-1.904-.325-.288-1.043.088-1.7.687-.887.807-2.766 1.967-4.409 1.967-1.993 0-2.902-1.303-2.902-1.303 4.059-2.491 7.049-5.319 7.049-7.746 0-2.72-2.005-3.936-3.992-3.936-3.554 0-7.391 3.268-7.391 8.548 0 1.745.584 3.227.584 3.227s-.705 1.104-2.946.917c-2.383-.197-2.232-4.53-2.232-4.53s.729-1.367 1.005-1.876c1.612-2.98 3.819-7.06 4.176-11.953.197-2.741-.574-4.214-1.256-4.966C116.182.4 115.37 0 114.619 0c-2.756 0-4.668 2.845-5.131 5.655-.453 2.755-.27 6.854-.27 6.854s-2.476-.616-4.96 1.08c-2.273 1.552-3.282 4.658-3.599 6.225a8.257 8.257 0 00-.147 2.187c.022.35.129 1.022.129 1.022s-.818 1.733-2.27 1.733c-2.34 0-.796-10.915-.706-11.53.073-.494.373-1.549-1.278-1.622-.997-.045-1.414.33-1.49.819l-.067.487s-3.383-2.317-7.213 1.856c-2.041 2.219-2.782 5.43-2.816 8.007l-.001.162s-.84 2.443-2.793 2.077c-1.3-.244-1.464-2.572-1.464-3.472 0-1.726.396-3.65.714-5.196.2-.98.374-1.824.374-2.286 0-1.651-.46-2.355-1.536-2.355-1.465 0-2.78 1.168-4.236 2.972-1.859 2.301-3.242 5.897-3.242 5.897s.061-.643.157-1.262c.062-.401.231-2.258.543-3.943.174-.933.237-1.697.248-1.78.054-.456-.048-.85-.296-1.14a1.338 1.338 0 00-1.024-.448c-.65 0-1.488.438-1.886 1.666a12.28 12.28 0 00-.415 1.623l-.122.611-.452-.415c-1.793-1.65-4.276-3.616-7.837-3.616-5.015 0-7.722 4.672-7.722 9.07 0 .542.034 1.058.099 1.537l.025.189s-1.047 2.551-2.884 2.086c-.805-.203-1.3-1.067-1.3-3.123 0-1.71.341-4.035.546-5.43.069-.473.124-.847.14-1.021l.045-.517c.14-1.552.18-2.254-.332-2.592a2.15 2.15 0 00-1.209-.364c-.42 0-.752.196-1.047.408-.454.326-1.939 2.316-4.744 6.924a3.18 3.18 0 01-.074.117l-.306.593-.735 1.631.4-2.37.026-.154c.066-.4.181-1.102.23-1.325l.117-.515c.19-.825.584-2.542.636-2.845.169-1.006.102-1.678-.204-2.053-.226-.277-.604-.41-1.157-.41-1.017 0-1.836.777-3.248 3.085-.22.36-1.045 1.737-1.697 2.827-.844 1.413-1.61 2.457-1.61 2.457l.178-1.888c.137-.848.647-4.743.654-4.926-.002-.82-.405-1.203-1.27-1.203-.353 0-1.212.078-1.571.801-.33.66-1.245 3.654-1.69 8.231 0 0-3.54 3.45-7.326 3.45-1.395 0-2.499-.55-2.9-1.623 0 0 2.026-1.065 2.988-1.739 2.462-1.725 4.254-3.483 4.254-5.741 0-2.763-2.515-4.007-4.593-3.732-3.569.471-6.585 4.254-6.585 8.649 0 4.133 2.276 7.112 6.237 7.112 4.588 0 7.755-3.829 7.755-3.829l-.095 1.748c-.06.91.312 2.08 1.823 2.08.4 0 1.133-.129 1.522-.994 2.35-5.195 4.812-9.315 4.836-9.356l.084-.14.427-.83.636-1.073-.51 2.304c-.092.526-.903 5.2-1.019 7.26-.06 1.041-.06 2.065.342 2.504.203.223.53.326 1.028.326 1.113 0 1.803-.39 2.052-1.158 1.81-5.536 3.762-9.27 3.845-9.428l.076-.145 1.024-2.02s-.807 4.61-.807 7.754c0 1.503.292 4.239 2.408 4.758 3.259.8 5.26-2.61 5.26-2.61l.212.597c.93 1.579 2.476 2.414 4.47 2.414 4.133 0 6.804-3.247 6.804-8.273 0-3.119-1.421-4.905-1.421-4.905s1.577.56 2.735 1.399a16.19 16.19 0 012.146 1.87l-.031.206c-.037.24-.07.48-.105.724a75.58 75.58 0 00-.342 3.006c-.09.96-.137 1.83-.137 2.581 0 .457.025.878.077 1.29.045.383.139.732.276 1.035.043.093.455.905 1.494.905.693 0 1.139-.254 1.467-1.026 3.212-7.551 5.784-9.971 6.01-10.212.596-.634.327.547.327.547l-.023.155c-.004.025-.401 2.582-.49 3.36-.09.767-.136 1.5-.136 2.179 0 2.104.466 4.5 2.901 4.88 3.33.517 4.483-2.112 4.483-2.112s1.205 2.229 4.05 2.229c4.17 0 5.462-3.218 5.462-3.218.439 1.936 1.22 2.98 3.101 2.98 2.036 0 3.45-2.308 3.45-2.308s1.177 2.546 4.054 2.546c3.331 0 5.033-2.567 5.104-2.674l.386-.61s1.085 2.77 3.881 2.928c2.644.15 4.461-1.7 4.461-1.7zm-114.271.989c-2.941-.11-3.103-2.41-.402-3.005 2.467-.542 4.526.326 4.526.326s-.623 2.81-4.124 2.679zM18.044 3.142c1.7.14 1.572 2.52 1.11 4.01-1.356 4.372-4.597 4.503-4.597 4.503s1.025-8.716 3.487-8.513zM14.27 13.743s5.448.037 7.303-6.429c1.08-3.763-.449-6.97-3.637-7.038-3.22-.069-5.713 2.8-6.882 11.372 0 0-3.112-.413-4.486-2.883-.65-1.168-1.632-.624-1.326.486 1.035 3.755 5.616 4.36 5.616 4.36s-.19 1.661-.473 3.696c-.275 1.974-.747 4.457-.747 4.457s-2.89-.92-5.966-.273c-4.726.994-5.246 6.89.537 7.472 6.782.683 8.062-4.036 8.062-4.036s1.333.652 3.223 2.353c2.095 1.885 3.053 3.054 3.487 2.635.477-.46-.573-2.063-2.515-4.109-2.197-2.315-3.718-2.912-3.718-2.912s.364-1.531.76-4.016c.42-2.63.762-5.135.762-5.135z" fill="#4A4A4A"/></svg>