<svg width="61" height="20" fill="none" xmlns="http://www.w3.org/2000/svg"><path d="M0 .71h9.27v2.165H2.257v3.959h6.079v2.151H2.293v6.207H0V.71zm10.959 1.048a1.416 1.416 0 01.447-1.035 1.461 1.461 0 011.067-.4 1.424 1.424 0 011.05.403 1.378 1.378 0 01.409 1.032 1.407 1.407 0 01-.412 1.039 1.453 1.453 0 01-1.046.43 1.494 1.494 0 01-1.076-.417 1.447 1.447 0 01-.439-1.052zm.379 13.434V4.62h2.194v10.572h-2.194zM27.64 9.916a5.231 5.231 0 01-.348 2.091 5.3 5.3 0 01-1.15 1.791 5.405 5.405 0 01-1.771 1.207 5.476 5.476 0 01-2.11.429 4.542 4.542 0 01-2.026-.458 4.463 4.463 0 01-1.598-1.308v1.524h-2.174V.323h2.188v5.828c.42-.558.967-1.01 1.598-1.321a4.542 4.542 0 012.034-.465 5.49 5.49 0 012.108.442 5.416 5.416 0 011.767 1.216c.5.518.888 1.13 1.143 1.799.254.669.37 1.38.338 2.094zm-2.251 0a3.317 3.317 0 00-.215-1.334 3.359 3.359 0 00-.73-1.143 3.424 3.424 0 00-1.128-.77 3.47 3.47 0 00-3.82.77 3.339 3.339 0 00-.944 2.477 3.346 3.346 0 00.945 2.478c.32.329.703.59 1.128.77a3.47 3.47 0 003.82-.77 3.36 3.36 0 00.73-1.144c.162-.425.235-.88.214-1.334zm14.576.821h-8.413c.125.82.564 1.563 1.228 2.076.663.513 1.5.757 2.34.683a6.866 6.866 0 003.647-1.138l.918 1.586a8.048 8.048 0 01-4.628 1.476c-4.045 0-5.756-2.759-5.756-5.517a5.163 5.163 0 01.335-2.127 5.23 5.23 0 011.176-1.816 5.334 5.334 0 011.818-1.197 5.407 5.407 0 012.154-.378c3.008 0 5.259 1.98 5.259 5.331a7.92 7.92 0 01-.078 1.021zm-8.378-1.752h6.275a2.905 2.905 0 00-.956-1.988 3.002 3.002 0 00-2.094-.77 3.25 3.25 0 00-2.145.776 3.15 3.15 0 00-1.08 1.982zM41.908 4.62h2.103v1.51a3.17 3.17 0 011.25-1.348 3.24 3.24 0 011.8-.438c.432-.003.862.058 1.276.18l-.203 2.068a3.602 3.602 0 00-1.157-.165c-1.55 0-2.847 1-2.847 3.351v5.414h-2.222V4.62zm18.517 0L55.98 16.15c-.96 2.49-2.195 3.525-4.01 3.525a3.381 3.381 0 01-1.83-.448l.315-1.862c.42.196.875.309 1.339.33.855 0 1.535-.489 2.103-1.8l.344-.786-4.663-10.49h2.531l3.156 7.628 2.748-7.627h2.412z" fill="#000"/></svg>