<svg width="83" height="27" fill="none" xmlns="http://www.w3.org/2000/svg"><g clip-path="url(#clip0)"><path d="M82.999-.023H75.2l-7.801 13.511L75.2 27h7.793L75.2 13.496l7.799-13.52z" fill="#121212"/><path d="M58.796-.023h7.802l8.605 13.511L66.598 27h-7.802l8.606-13.512L58.796-.023z" fill="url(#paint0_radial)"/><path d="M58.796-.023h7.802l8.605 13.511L66.598 27h-7.802l8.606-13.512L58.796-.023z" fill="#E5A00D"/><path d="M56.1 27H40.585V-.023H56.1v4.69h-9.804v5.937h9.124v4.69h-9.124v6.974H56.1V27zm-34.814 0V-.023h5.705v22.29h10.911V27H21.286zM18.585 8.404c0 2.91-.904 5.135-2.713 6.676-1.808 1.541-4.381 2.31-7.718 2.31H5.706V27H0V-.024h8.595c3.26 0 5.741.703 7.44 2.108 1.7 1.406 2.55 3.512 2.55 6.32zm-12.88 4.29h1.878c1.755 0 3.068-.348 3.937-1.043.874-.693 1.297-1.71 1.297-3.041 0-1.332-.366-2.346-1.094-2.976-.73-.63-1.868-.962-3.424-.962H5.706v8.021z" fill="#121212"/></g><defs><radialGradient id="paint0_radial" cx="0" cy="0" r="1" gradientUnits="userSpaceOnUse" gradientTransform="matrix(11.1391 0 0 11.1925 67 13.488)"><stop offset=".17" stop-color="#F9BE03"/><stop offset=".51" stop-color="#E8A50B"/><stop offset="1" stop-color="#CC7C19"/></radialGradient><clipPath id="clip0"><path fill="#fff" d="M0 0h83v27H0z"/></clipPath></defs></svg>