<svg width="105" height="45" fill="none" xmlns="http://www.w3.org/2000/svg"><path d="M7.726 17.118c.899-.375 1.563-.93 2.006-1.656.467-.766.705-1.66.705-2.66 0-.57-.1-1.136-.293-1.672a4.089 4.089 0 00-.949-1.487c-.428-.433-.994-.788-1.68-1.061-.686-.273-1.529-.412-2.514-.412H.18a.18.18 0 00-.18.18v15.152c0 .099.08.18.179.18h2.107a.18.18 0 00.178-.18v-6.023h2.747L8.4 23.584c.03.06.092.097.158.097h2.446a.18.18 0 00.158-.266l-3.438-6.307.002.01zm.132-4.249c0 .748-.215 1.323-.657 1.759-.442.436-1.119.654-2.015.654H2.463v-4.865H5.14c.856 0 1.532.216 2.01.646.477.43.718 1.022.718 1.808l-.009-.002zm13.018 1.262a5.642 5.642 0 00-4.115-1.713c-.837 0-1.615.153-2.313.458a5.538 5.538 0 00-1.813 1.256 5.994 5.994 0 00-1.19 1.838 5.778 5.778 0 00-.432 2.24c0 .797.146 1.549.432 2.236.287.694.69 1.314 1.19 1.838a5.38 5.38 0 001.813 1.256c.696.301 1.48.45 2.313.45a5.698 5.698 0 002.291-.459 5.611 5.611 0 001.824-1.255 5.786 5.786 0 001.202-1.839 5.79 5.79 0 00.434-2.237c0-.793-.146-1.547-.434-2.239a5.83 5.83 0 00-1.202-1.838v.008zm-4.116 7.735c-.515 0-.989-.103-1.38-.309a3.405 3.405 0 01-1.054-.83 3.621 3.621 0 01-.67-1.172 4.054 4.054 0 01-.229-1.348c0-.463.078-.924.23-1.363a3.58 3.58 0 01.658-1.168 3.184 3.184 0 012.446-1.121c.51 0 .976.104 1.38.31.403.204.761.487 1.054.832.295.347.523.748.67 1.18a4.127 4.127 0 010 2.698 3.613 3.613 0 01-.66 1.17 3.23 3.23 0 01-1.051.82c-.422.21-.878.31-1.394.31v-.009zm14.478-3.652a4.36 4.36 0 00-1.18-.64c-.464-.169-.936-.31-1.415-.426-.832-.193-1.512-.4-2.022-.615-.452-.18-.672-.466-.672-.845 0-.417.162-.708.494-.887.36-.198.865-.297 1.48-.297.607 0 1.144.095 1.595.283.449.18.84.421 1.138.693a.17.17 0 00.135.045.18.18 0 00.125-.067l1.11-1.409a.18.18 0 00-.023-.245 5.42 5.42 0 00-1.745-1.023c-.662-.242-1.45-.362-2.36-.362a5.95 5.95 0 00-1.577.21 4.69 4.69 0 00-1.376.627c-.41.276-.746.623-.995 1.031-.248.408-.377.9-.377 1.446 0 .53.108.991.317 1.37.204.372.481.7.815.961.34.267.719.48 1.124.63.401.152.813.276 1.232.37l1.43.372c.366.108.666.228.9.358.204.12.359.254.43.396.083.168.125.352.124.538 0 .399-.18.685-.58.872-.424.208-.97.31-1.62.31-.667 0-1.26-.11-1.763-.326a4.134 4.134 0 01-1.303-.87.17.17 0 00-.13-.052.18.18 0 00-.129.057l-1.24 1.364a.18.18 0 00.001.245c1.027 1.108 2.579 1.67 4.615 1.67.576 0 1.15-.07 1.707-.21a4.642 4.642 0 001.46-.639c.416-.275.768-.64 1.028-1.066.258-.43.388-.931.388-1.49 0-.54-.101-1.01-.303-1.402a2.945 2.945 0 00-.819-.977h-.019zm11.452-3.79a4.9 4.9 0 00-1.658-1.441c-.672-.36-1.485-.543-2.419-.543a5.308 5.308 0 00-3.912 1.658 5.387 5.387 0 00-1.124 1.808 6.25 6.25 0 00-.398 2.234c0 .862.137 1.664.408 2.381a5.323 5.323 0 001.168 1.856 5.21 5.21 0 001.808 1.2 6.16 6.16 0 002.309.424 6.9 6.9 0 001.824-.224 7.29 7.29 0 001.394-.522c.395-.202.724-.418.975-.638l.56-.537a.18.18 0 00-.002-.244l-1.157-1.226a.205.205 0 00-.133-.055c-.043-.002-.09.022-.13.06-.24.27-.641.555-1.195.847-.545.286-1.258.432-2.116.432a3.197 3.197 0 01-1.221-.236 3.481 3.481 0 01-1.035-.649c-.3-.271-.545-.6-.719-.966a2.934 2.934 0 01-.277-1.036h8.112c.09 0 .18-.09.18-.18a9.296 9.296 0 00-.301-2.364 6.174 6.174 0 00-.944-2.036l.003-.003zm-4.077.102c.898 0 1.558.263 2.043.811.442.497.719 1.1.796 1.791h-5.817c.03-.293.105-.58.22-.852.14-.332.343-.632.598-.886.267-.264.582-.474.927-.62a3.09 3.09 0 011.232-.236l.001-.008zm20.343 7.592c-.136-.31-.232-.805-.233-.81a.18.18 0 00-.298-.097 2.884 2.884 0 01-.725.515c-.23.108-.532.165-.898.165-.431 0-.755-.135-.986-.412-.233-.283-.353-.834-.353-1.635V14.83h2.902a.18.18 0 00.179-.18v-1.71a.18.18 0 00-.179-.18h-2.902V9.484a.18.18 0 00-.082-.151.194.194 0 00-.18-.012l-2.04.946a.18.18 0 00-.104.163v2.33h-4.414V9.485a.18.18 0 00-.083-.151.197.197 0 00-.18-.012l-2.039.946a.18.18 0 00-.104.163v2.33h-1.723a.18.18 0 00-.18.18v1.711c.001.1.081.18.18.18h1.723v5.227c0 1.326.27 2.32.824 2.955.554.645 1.426.973 2.594.973.652 0 1.228-.09 1.71-.297.39-.16.75-.386 1.06-.669a.18.18 0 00.038-.221 9.343 9.343 0 01-.336-.672 4.624 4.624 0 01-.234-.809.18.18 0 00-.299-.096 2.809 2.809 0 01-.725.514c-.227.108-.528.164-.896.164-.434 0-.754-.136-.983-.412-.237-.285-.356-.835-.356-1.636V14.83h4.414v5.227c0 1.327.27 2.321.827 2.955.553.645 1.426.973 2.593.973.654 0 1.229-.09 1.71-.297a3.57 3.57 0 001.06-.67.18.18 0 00.035-.22 9.593 9.593 0 01-.334-.671l.017-.01zm10.306 1.333l-.018-.883v-6.145c0-1.26-.413-2.25-1.23-2.941-.806-.685-1.923-1.032-3.321-1.032a8.428 8.428 0 00-1.55.128 7.349 7.349 0 00-1.206.327 6.172 6.172 0 00-.938.433c-.237.14-.464.297-.678.47a.18.18 0 00-.034.24l.952 1.386a.18.18 0 00.252.044c.305-.218.691-.44 1.15-.654.443-.207 1.057-.313 1.825-.313.776 0 1.393.162 1.833.477.428.307.629.813.629 1.547v.18l-.19-.017-.63-.046-.772-.046-.782-.024c-1.527 0-2.722.359-3.546 1.067-.83.714-1.252 1.676-1.252 2.861 0 .633.117 1.177.349 1.617.231.44.535.81.912 1.083.371.27.788.479 1.24.598.44.116.893.175 1.348.175a5.5 5.5 0 002.048-.398c.498-.195.95-.495 1.323-.879l.03.81a.18.18 0 00.178.174h1.9c.109 0 .188-.09.188-.18a.18.18 0 00-.011-.06v.001zm-7.048-3.671a1.44 1.44 0 01.375-.607c.186-.185.446-.344.775-.47s.779-.193 1.33-.193l.736.022.722.045.59.057.196.027v1.054c0 .288-.077.572-.225.845a2.62 2.62 0 01-.614.744c-.251.21-.553.388-.899.514-.337.13-.696.195-1.057.193-.65 0-1.162-.137-1.523-.407-.349-.27-.517-.643-.517-1.164a2.31 2.31 0 01.106-.663l.005.003zm-36.93 13.976a5.233 5.233 0 00-1.465-.905 12.91 12.91 0 00-1.736-.563l-1.69-.466c-.513-.164-.952-.36-1.307-.61-.359-.249-.655-.542-.853-.873-.205-.344-.308-.757-.308-1.229.002-.334.07-.663.2-.97.13-.325.341-.62.627-.879.27-.252.63-.457 1.048-.612.418-.155.914-.232 1.473-.232s1.06.068 1.493.2a5.15 5.15 0 011.134.494c.318.186.593.387.81.596l.117.116a.154.154 0 00.218.007l.862-.793a.156.156 0 00.012-.218l-.147-.162-.094-.103a4.363 4.363 0 00-.91-.705 6.196 6.196 0 00-1.412-.595c-.54-.162-1.215-.246-1.977-.246-.864 0-1.629.117-2.273.35-.644.232-1.186.54-1.617.918-.41.36-.734.808-.949 1.31a4.082 4.082 0 00-.317 1.592c0 .605.108 1.153.317 1.626.21.476.514.904.893 1.26.412.383.884.695 1.397.924a8.42 8.42 0 001.851.593c1.354.293 2.366.67 3.095 1.15.79.52 1.191 1.302 1.191 2.326 0 .947-.359 1.71-1.04 2.269-.664.542-1.59.817-2.752.817a5.53 5.53 0 01-1.552-.21 5.748 5.748 0 01-2.322-1.328l-.455-.455a.155.155 0 00-.216-.007l-.956.871a.153.153 0 00-.05.108c-.002.042.013.09.04.112a6.907 6.907 0 001.893 1.467 8.24 8.24 0 001.653.665 7.36 7.36 0 002.013.256 6.82 6.82 0 002.178-.34 5.28 5.28 0 001.724-.95 4.477 4.477 0 001.133-1.431 3.99 3.99 0 00.405-1.797c0-.786-.125-1.455-.37-1.988a4.227 4.227 0 00-1.013-1.37l.004.01zm9.19 6.475l-.052-.09-.175-.298a.155.155 0 00-.224-.051 2.995 2.995 0 01-.455.267c-.4.191-.776.27-1.183.27-.632 0-1.132-.215-1.483-.642-.345-.412-.512-1.108-.512-2.124v-6h3.194c.085 0 .155-.07.155-.156v-.85a.156.156 0 00-.155-.155H30.39v-3.316a.155.155 0 00-.072-.131.15.15 0 00-.148-.01l-1.217.564a.17.17 0 00-.09.142v2.752H26.95a.156.156 0 00-.155.156v.848c0 .086.069.156.155.156h1.914v6.217c0 1.308.258 2.27.766 2.86.494.577 1.305.868 2.412.868.64 0 1.197-.094 1.653-.28.326-.142.637-.317.926-.523a.154.154 0 00.063-.09.167.167 0 00-.027-.118l-.184-.283v.017zm10.061-8.495a5.654 5.654 0 00-1.812-1.243 5.679 5.679 0 00-2.276-.452c-.836 0-1.617.153-2.3.453a5.463 5.463 0 00-1.795 1.243 6.07 6.07 0 00-1.186 1.833 5.842 5.842 0 00-.428 2.225 5.802 5.802 0 001.616 4.059 5.447 5.447 0 001.796 1.243c.692.3 1.46.45 2.3.45.824 0 1.59-.15 2.277-.45a5.679 5.679 0 001.813-1.245 6.027 6.027 0 001.195-1.832c.284-.687.43-1.436.43-2.226a5.782 5.782 0 00-1.624-4.057h-.006zm-4.09 8.577c-.642 0-1.23-.133-1.745-.393a4.221 4.221 0 01-1.309-1.036 4.541 4.541 0 01-.828-1.442 4.994 4.994 0 01-.279-1.646 5.159 5.159 0 01.277-1.658 4.446 4.446 0 01.816-1.444 4.144 4.144 0 011.314-1.024c.526-.27 1.116-.394 1.755-.394.639 0 1.228.133 1.743.394.507.26.95.608 1.313 1.036.364.428.643.916.827 1.457a5.026 5.026 0 010 3.287 4.3 4.3 0 01-.814 1.447 4.133 4.133 0 01-1.316 1.022c-.518.27-1.11.395-1.755.395h.002zM53.29 30.138c-.485 0-.925.06-1.312.18a4.37 4.37 0 00-1.015.458c-.677.432-1.185.957-1.707 1.754l-.12.18-.093-2.16a.155.155 0 00-.154-.149h-1.123c-.041 0-.09.018-.11.047a.206.206 0 00-.045.112l.009.666v9.808c0 .086.069.156.155.156h1.215c.085 0 .155-.07.155-.156v-4.832c0-.58.06-1.157.18-1.714a4.942 4.942 0 01.597-1.539c.277-.461.66-.845 1.138-1.141.48-.297 1.077-.446 1.78-.446.93 0 1.67.29 2.2.865.518.567.782 1.441.782 2.594v6.215c0 .086.069.156.155.156h1.213c.085 0 .156-.07.156-.156V34.64c0-1.409-.337-2.522-1.002-3.335-.659-.796-1.66-1.184-3.06-1.184l.006.018zm16.017 3.872a6.174 6.174 0 00-.944-2.034 4.756 4.756 0 00-1.621-1.405c-.65-.348-1.45-.525-2.376-.525-.788 0-1.514.148-2.16.439a5.355 5.355 0 00-1.7 1.193 5.293 5.293 0 00-1.11 1.787A6.272 6.272 0 0059 35.7c0 .87.138 1.675.41 2.396.251.684.64 1.308 1.142 1.835.489.506 1.09.902 1.78 1.17.69.27 1.469.419 2.31.419.687 0 1.307-.075 1.841-.222a7.452 7.452 0 001.41-.53c.39-.198.72-.405.953-.618l.225-.202a.159.159 0 00.05-.108.158.158 0 00-.041-.114l-.582-.616a.154.154 0 00-.21-.015c-.282.23-.633.453-1.074.683-.668.355-1.527.535-2.548.535a4.069 4.069 0 01-1.536-.297 4.4 4.4 0 01-1.283-.806 3.929 3.929 0 01-.903-1.217 3.56 3.56 0 01-.367-1.488l-.012-.357h8.882a.156.156 0 00.155-.164 9.887 9.887 0 00-.295-1.98v.006zm-4.94-2.78c1.116 0 2 .354 2.624 1.052.608.687.952 1.521 1.024 2.48l.027.37h-7.49l.016-.36c.018-.454.12-.901.298-1.32.179-.423.438-.807.763-1.13a3.75 3.75 0 011.179-.794c.456-.198.98-.299 1.55-.299l.01.001z" fill="#231F1F"/><path d="M102.595 39.357c.193 0 .381.05.564.148.183.1.326.242.429.426a1.168 1.168 0 01.002 1.148c-.098.18-.245.328-.424.427a1.144 1.144 0 01-1.143 0 1.079 1.079 0 01-.425-.427 1.157 1.157 0 01.001-1.148c.099-.18.248-.328.43-.426a1.28 1.28 0 01.563-.148h.003zm0 .19a.968.968 0 00-.829.48.979.979 0 00-.13.481.971.971 0 00.127.477.96.96 0 001.662 0 .977.977 0 00.127-.478.969.969 0 00-.13-.48.873.873 0 00-.357-.356.974.974 0 00-.47-.124zm-.503 1.597v-1.238h.424a1.04 1.04 0 01.315.035.31.31 0 01.155.12.317.317 0 01.058.18c0 .09-.033.17-.096.237a.383.383 0 01-.257.112.365.365 0 01.105.066c.049.049.11.13.182.245l.15.243h-.242l-.11-.195c-.086-.153-.156-.25-.209-.288a.264.264 0 00-.159-.044h-.116v.526h-.198l-.002.001zm.198-.696h.242c.117 0 .195-.018.237-.052a.17.17 0 00.063-.137c0-.036-.009-.07-.031-.09-.021-.021-.048-.05-.084-.065a.62.62 0 00-.2-.022h-.226v.374l-.001-.008z" fill="#000"/><path d="M76.651 41.834c.209 1.808 2.225 2.45 3.73 2.756l.638.123c1.088.204 1.822.167 2.164.126l.418-.058 3.684-.53 5.99-.796 1.818-.25a5.426 5.426 0 001.135-.297c1.25-.48 2.485-1.306 3.286-2.402l2.919-4.036.48-.673.75-1.038c.179-.285.356-.638.359-.641l.403-.988c.236-.72.415-1.468.462-2.23.072-1.183-.162-2.405-.275-3.575l-1.156-11.874-.069-.512c-.038-.258-.203-1.23-.719-2.928l-1.054-3.132-.809-2.124-.851-2.13c-.49-1.086-1.284-1.892-1.617-2.226-.88-.861-1.901-1.919-3.168-2.14a2.332 2.332 0 00-1.145.097l-.474.176-2.136.783-1.224.454c-1.401.526-2.785 1.613-3.617 2.863l-8.468 12.37a5.91 5.91 0 00-.42.727 7.954 7.954 0 00-.192.416l-.178.44a8.762 8.762 0 00-.51 1.912 6.63 6.63 0 00-.052.512l-.006.19c-.005.077 0 .155-.001.231l-.059 17.908c-.004.81-.139 1.683-.038 2.497" fill="url(#paint0_linear)"/><path d="M77.594 43.13a1.233 1.233 0 00.634.06l3.529-.556 2.27-.34 4.55-.66 1.923-.289c.318-.048.67-.162 1.035-.32a7.58 7.58 0 001.112-.608c.696-.458 1.365-1.018 1.852-1.699l1.407-1.96.599-.831.815-1.134.602-.858.144-.205.769-1.054a6.11 6.11 0 00.61-1.095c.184-.413.347-.862.476-1.32.129-.444.225-.897.288-1.355a5.67 5.67 0 00.046-1.208l-1.27-15.625c-.06-.76-.269-1.748-.556-2.816l-.994-3.243-1.606-4.43a5.492 5.492 0 00-.314-.739 1.583 1.583 0 00-.184-.272.775.775 0 00-.217-.18.99.99 0 00-.264-.103 1.326 1.326 0 00-.305-.034 1.69 1.69 0 00-.336.034 2.216 2.216 0 00-.36.102l-1.413.524-1.126.406-1.393.517c-.606.23-1.161.607-1.669 1.004-.289.227-.565.468-.828.725a7.69 7.69 0 00-.689.766l-.09.108-.078.111-8.511 12.41c-.178.258-.349.57-.505.909a9.69 9.69 0 00-.694 2.096 5.426 5.426 0 00-.126 1.076v.332l-.001.168v.166L76.6 41.405c0 .14.01.275.03.405.02.125.05.247.092.367.074.22.192.423.345.596.141.157.315.285.514.36l.012-.004z" fill="url(#paint1_linear)"/><path d="M97.819 11.776l1.222 15.028c.029.345-.027 1.393-.08 1.814a8.913 8.913 0 01-.278 1.305c-.126.44-.281.874-.449 1.268a5.646 5.646 0 01-.588 1.053l-1.456 2.038-2.713 3.784c-.467.657-1.111 1.195-1.782 1.635-.352.231-.717.43-1.077.585-.362.155-.692.27-.998.309l-12.539 2.174c.14.16.317.283.514.36.097.036.2.06.306.072.11.01.22.008.329-.01l3.528-.556 2.27-.338 4.552-.663 1.923-.288c.317-.05.668-.162 1.035-.32.365-.16.745-.37 1.11-.609.698-.457 1.367-1.018 1.853-1.699l1.407-1.96.6-.831.814-1.134.602-.857.144-.208.15-.203.628-.85c.22-.307.427-.682.61-1.095a9.999 9.999 0 00.764-2.676 5.67 5.67 0 00.047-1.207L98.999 12.07c-.061-.76-.27-1.75-.556-2.816L97.45 6.01l-1.606-4.43a5.488 5.488 0 00-.316-.739 1.596 1.596 0 00-.184-.272.756.756 0 00-.216-.18.984.984 0 00-.263-.103 1.322 1.322 0 00-.306-.034c.91 2.94 1.821 5.878 2.736 8.816.273 1.027.475 1.978.534 2.708l-.01-.001z" fill="url(#paint2_linear)"/><path d="M99.212 14.81l-.207-2.739c0-.003-.016-.009-.016-.013-11.934 2.432-19.563 8.52-22.262 11.554l-.004.7c2.785-2.797 11.952-8.492 22.491-9.502h-.002zm.761 9.134l-.092-1.006c-12.308 1.84-20.664 7.52-23.215 9.977l-.005.86c2.425-2.129 11.77-7.688 23.391-8.626-.033-.394-.045-.791-.079-1.205z" fill="#2978C8"/><path d="M99.24 15.136l-.207-2.535c-12.128 2.434-19.657 8.591-22.312 11.61l-.004.675c2.626-2.775 9.704-7.969 22.522-9.749" fill="url(#paint3_linear)"/><path d="M99.953 23.939l-.034-.421c-13.021 1.948-20.823 7.523-23.256 9.946l-.006.838c2.26-2.002 10.793-6.883 23.475-8.144l-.18-2.221" fill="url(#paint4_linear)"/><defs><linearGradient id="paint0_linear" x1="96.325" y1="1.053" x2="83.212" y2="42.483" gradientUnits="userSpaceOnUse"><stop stop-color="#058ED4"/><stop offset="1" stop-color="#002D56"/></linearGradient><linearGradient id="paint1_linear" x1="70.053" y1="28.248" x2="99.679" y2="24.323" gradientUnits="userSpaceOnUse"><stop stop-color="#016FC5"/><stop offset=".552" stop-color="#2A9CE3"/><stop offset="1" stop-color="#47BBF7"/></linearGradient><linearGradient id="paint2_linear" x1="95.167" y1="1.225" x2="64.722" y2="24.353" gradientUnits="userSpaceOnUse"><stop stop-color="#72C6EC"/><stop offset=".553" stop-color="#98D6F1"/><stop offset="1" stop-color="#34AAE2"/></linearGradient><linearGradient id="paint3_linear" x1="87.978" y1="12.601" x2="87.978" y2="24.886" gradientUnits="userSpaceOnUse"><stop stop-color="#FDFEFE"/><stop offset="1" stop-color="#DDF3FD"/></linearGradient><linearGradient id="paint4_linear" x1="88.395" y1="23.518" x2="88.395" y2="34.302" gradientUnits="userSpaceOnUse"><stop stop-color="#FDFEFE"/><stop offset="1" stop-color="#DDF3FD"/></linearGradient></defs></svg>