<svg width="100" height="101" fill="none" xmlns="http://www.w3.org/2000/svg"><path fill="#FFE180" d="M0 1h100v100H0z"/><g clip-path="url(#clip0)"><path d="M27.81 96.184l-.92 2.142-1.639.54v1.822h7.387l.611-.88-.458-1.813-.84-2.345-4.141.534z" fill="#1D1D1B" stroke="#fff" stroke-miterlimit="10"/><path d="M47.193 95.692l2.264 2.498 4.39.69-.126 1.808H41.036l.137-2.195 1.187-2.801" fill="#1D1D1B"/><path d="M47.193 95.692l2.264 2.498 4.39.69-.126 1.808H41.036l.137-2.195 1.187-2.801" stroke="#fff" stroke-miterlimit="10"/><path d="M25.793 97.293h8.597l-.694-31.658-.106-7.654 7.04 39.312 9.428-1.11-6.1-36.804-2.891-17.786-.578-9.822 1.008-7.728s4.891 2.901 12.76 6.184c8.25 3.13 12.223 4.275 12.223 4.275l2.062-4.788-5.882-1.854-5.271-2.443s-6.647-5.038-13.598-8.32c-5.195-1.986-12.452-2.062-12.452-2.062s-6.035.153-10.695 2.138c-4.966 2.519-4.66 3.26-4.66 3.26S9.871 28.7 8.343 33.738c-.917 3.512.458 4.046.458 4.046s1.681 1.07 3.82.687c2.14-.381 10.39-4.427 10.39-4.427l-.917 10.382s-.458 3.053-.153 8.474c.306 5.42 3.851 44.393 3.851 44.393z" fill="#1D1D1B" stroke="#fff" stroke-miterlimit="10"/><path d="M27.847 16.72v-5.588s-.098-3.581-.196-6.325c-.099-2.743 3.627-4.098 5.882-3.273 2.255.824 4.216 1.76 3.824 5.091-.224 1.906-.737 3.895-1.136 5.248a1.657 1.657 0 01-2.15 1.09l-.832-.298 1.437 4.056s.078 2.71-1.105 3.706c-2.605-.912-5.724-3.706-5.724-3.706z" fill="#1D1D1B" stroke="#fff" stroke-miterlimit="10"/><path d="M31.18 11.622l2.059 1.043m8.258 9.441v1.937" stroke="#fff" stroke-miterlimit="10"/><path d="M22.298 42.13s9.46 2.436 13.98 2.706c4.522.27 4.935-2.347 4.935-2.347" fill="#1D1D1B"/><path d="M22.298 42.13s9.46 2.436 13.98 2.706c4.522.27 4.935-2.347 4.935-2.347" stroke="#fff" stroke-miterlimit="10"/><path d="M71.151 35.638l-1.155 4.312 8.509 2.18 3.585-13.355-8.751-2.308-2.188 9.17zm-51.983-9.026s2.756-3.265 1.481-8.54c-1.275-5.276-6.165-9.161-6.165-9.161l-3.95 3.647 1.655 2.135-2.645 2.081c-.26.205-.508.424-.743.656l-2.393 2.367-1.916-1.905-4.11 3.468s3.257 5.328 8.338 7.243c5.082 1.915 8.664-.416 8.664-.416l.915 1.21 2.466-1.035a.103.103 0 00.032-.17l-1.63-1.58zm-6.426 1.081c-.995 0-2.154-.168-3.433-.65-3.099-1.168-5.496-3.848-6.682-5.394L4.4 20.152l.831.827s4.319 4.669 8.55 5.668c1.067.252 1.882.148 2.467.062.032.051.064.101.098.151-.406.221-1.7.833-3.604.833zm5.237-2.274a4.666 4.666 0 00-.139-.116c.158-.57.361-1.365.242-2.454-.47-4.319-4.574-9.177-4.574-9.177l-.718-.926 1.705-1.575c1.389 1.368 3.755 4.075 4.532 7.293.32 1.327.346 2.497.223 3.484-.235 1.887-1.002 3.096-1.271 3.471z" fill="#1D1D1B" stroke="#fff" stroke-miterlimit="10"/><path d="M11.915 32.117l9.19-3.915a.854.854 0 00.254-1.404l-.009-.008a2.982 2.982 0 01-.727-3.225" stroke="#fff" stroke-miterlimit="10"/><path d="M20.909 19.516l.625.064c.816.085 1.552.53 2.005 1.214l1.52 2.29c.21.318.36.673.441 1.046l.634 2.934a2.98 2.98 0 01-.937 2.86l-2.476 2.194" fill="#1D1D1B"/><path d="M20.909 19.516l.625.064c.816.085 1.552.53 2.005 1.214l1.52 2.29c.21.318.36.673.441 1.046l.634 2.934a2.98 2.98 0 01-.937 2.86l-2.476 2.194" stroke="#fff" stroke-miterlimit="10"/><path d="M20.074 28.64l3.68 4.183a.621.621 0 01-.208.976l-.534.245" fill="#1D1D1B"/><path d="M20.074 28.64l3.68 4.183a.621.621 0 01-.208.976l-.534.245" stroke="#fff" stroke-miterlimit="10"/><path d="M24.753 30.317h.938s.969-.026 2.24.351c.434.129.62.641.385 1.026-.235.384-.524.788-.83 1.183a19.862 19.862 0 01-5.025 4.585c-.421.27-.85.52-1.253.718a.694.694 0 01-.988-.474c-.261-1.3-.146-2.262-.146-2.262l2.8-1.467c.65-.34.815-1.196.338-1.754l-.415-.486 1.956-1.42z" fill="#1D1D1B" stroke="#fff" stroke-miterlimit="10"/><path d="M33.59 57.981l.267-5.786" stroke="#fff" stroke-miterlimit="10"/><path d="M20.909 22.106h.378c.558 0 1.01.452 1.01 1.01v1.908" fill="#1D1D1B"/><path d="M20.909 22.106h.378c.558 0 1.01.452 1.01 1.01v1.908" stroke="#fff" stroke-miterlimit="10"/><path d="M68.242 30.411c.006-.015 1.2-.58 1.988-.952a1.92 1.92 0 011.394-.096l4.935 1.538a1.328 1.328 0 01-1.483.974l-2.71-.41-.59 2.1-.793 2.7-3.99-2.954 1.249-2.9z" fill="#1D1D1B" stroke="#fff" stroke-miterlimit="10"/><path d="M70.543 32.77l1.823-1.306" stroke="#fff" stroke-miterlimit="10"/></g><defs><clipPath id="clip0"><path fill="#fff" transform="translate(0 1)" d="M0 0h83v100H0z"/></clipPath></defs></svg>