<svg width="113" height="100" fill="none" xmlns="http://www.w3.org/2000/svg"><path fill="#80F8E0" d="M7 0h106v100H7z"/><path d="M46.536 28.495a5.52 5.52 0 01-.346-.341l-.036-.04a4.662 4.662 0 01-.25-.296l-.018-.026a2.737 2.737 0 01-.184-.273 1.062 1.062 0 01-.085-.2c-.01-.03-.017-.069-.026-.102-.013-.052-.027-.1-.039-.16-.008-.046-.015-.1-.022-.15-.009-.058-.018-.112-.025-.175-.007-.058-.011-.125-.017-.19l-.016-.198-.01-.225-.01-.227-.006-.26-.004-.256-.002-.3v-.65l.001-.14c-1.244 1.003-1.985 2.241-1.987 3.324-.001.642.256 1.187.744 1.574 1.049.834 2.053.862 2.469.832l.183-1.258a4.935 4.935 0 01-.314-.263zm4.912-3.696l-.001.277-.002.3-.004.257-.006.259-.01.229-.01.222-.016.202c-.006.063-.01.129-.017.187-.007.063-.016.118-.025.176-.007.05-.014.104-.022.15-.012.058-.026.108-.04.16-.008.033-.015.071-.025.101a1.068 1.068 0 01-.085.2c-.046.081-.11.174-.183.272l-.02.027a4.652 4.652 0 01-.245.292l-.042.046c-.09.098-.19.197-.294.294l-.053.049c-.1.09-.203.176-.31.258l.182 1.26c.416.03 1.42.001 2.469-.833.488-.387.745-.932.744-1.574-.002-1.083-.743-2.321-1.987-3.324v.14l.002.373zm-2.229 71.127c0 1.305-.358 2.853-.523 3.497h6.671v-.693l-1.7-.731-1.695-1.85.019-.113c.012-.075 1.203-7.5 1.599-10.407.149-1.096.177-2.94.2-4.42.013-.896.025-1.604.059-1.943.03-.29.137-.954.294-1.84-1.107.176-2.805.348-5.218.36.148 8.6.294 17.329.294 18.14zm1.349-17.043c.01.023.238.549 1.121.549.896 0 1.17-.54 1.181-.562l.436.203c-.017.035-.402.84-1.617.84-1.227 0-1.555-.82-1.569-.853l.448-.177zm1.229-46.873c-.012.056-.026.11-.04.165a3.887 3.887 0 01-.163.495 3.83 3.83 0 01-.711 1.12l-.102.106a3.657 3.657 0 01-.13.122c-.036.032-.072.065-.11.096-.046.038-.093.073-.14.109-.04.029-.078.058-.118.085-.05.034-.1.065-.152.096-.04.024-.08.05-.121.072-.054.03-.11.056-.165.082-.042.02-.082.041-.125.06-.057.024-.116.045-.175.066-.043.016-.084.033-.128.047-.062.019-.126.034-.19.05-.041.01-.082.023-.124.032-.071.015-.144.024-.216.034-.037.005-.073.013-.11.017a3.235 3.235 0 01-.666 0c-.036-.004-.071-.012-.107-.017-.073-.01-.145-.019-.216-.034-.043-.009-.085-.021-.127-.032-.063-.016-.125-.03-.187-.05-.043-.014-.085-.03-.128-.046-.058-.021-.117-.042-.173-.066-.044-.018-.085-.04-.128-.06a3.976 3.976 0 01-.16-.08c-.043-.023-.083-.05-.124-.074-.05-.03-.101-.06-.15-.094a2.359 2.359 0 01-.118-.086c-.047-.035-.094-.07-.14-.107-.037-.03-.074-.064-.11-.096a3.497 3.497 0 01-.13-.12c-.035-.035-.068-.071-.102-.107a3.749 3.749 0 01-.318-.394 3.896 3.896 0 01-.46-.893 3.895 3.895 0 01-.102-.33 3.947 3.947 0 01-.073-.344c-.008-.05-.017-.098-.023-.148l-.01-.06c-.583.066-1.019.133-1.251.172-.015.43-.062 1.49-.174 2.532l-.004.032c-.01.1-.022.199-.035.298l-.01.087a16.413 16.413 0 01-.083.564l-.017.102-.04.214-.017.086a7.14 7.14 0 01-.062.276c-.084.339-.199.727-.323 1.148-.068.23-.139.47-.21.716-.356 1.253-.702 2.704-.563 3.972.1.922.351 1.73.593 2.512.282.908.548 1.766.548 2.7 0 .715-.142 3.817-.783 5.393.036.028.065.063.1.093.035.032.07.064.103.098a2.2 2.2 0 01.31.388c.077.126.137.292.186.48h11.22c-.11-.365-.212-.7-.298-.975-.389-1.233-.966-4.645-.966-5.476 0-.935.266-1.793.548-2.7.242-.782.493-1.59.593-2.513.139-1.268-.207-2.72-.564-3.972-.07-.247-.141-.486-.209-.716-.124-.42-.239-.81-.323-1.148-.32-1.284-.419-3.542-.442-4.204a11.853 11.853 0 00-.988-.174l-.008.05c-.007.058-.017.116-.027.174-.01.059-.02.117-.032.175zM51.7 44.292h-6.513v-.48H51.7v.48z" fill="#1D1D1B"/><path d="M50.138 31.456l-.197-.01-.146-1.008-.201-1.386-.049.03c-.33.18-.644.271-.933.271h-.337c-.29 0-.602-.092-.933-.271l-.049-.03-.2 1.386-.15 1.026-.195.012c-.413.025-.83.059-1.242.1l.004.04c.007.053.016.105.025.157a3.323 3.323 0 00.103.436 3.232 3.232 0 00.159.412 3.153 3.153 0 00.552.833 3.107 3.107 0 00.2.198 3 3 0 00.216.178c.034.026.068.053.104.077.04.028.083.054.125.08.037.022.073.045.11.066.044.024.09.045.134.067.038.018.075.038.114.055.048.02.096.037.145.055.038.014.075.03.114.042.052.016.105.029.158.042.037.01.074.021.111.029.06.013.122.02.184.03l.094.014a2.754 2.754 0 00.573 0l.093-.015c.063-.008.125-.017.187-.03.036-.007.07-.018.106-.027.055-.014.11-.027.164-.044.038-.012.074-.027.11-.04.051-.02.101-.037.15-.058.038-.017.074-.035.11-.053.047-.023.094-.045.139-.07.036-.02.071-.043.106-.064.044-.027.088-.054.13-.083.034-.023.067-.049.1-.074.042-.03.083-.062.122-.095l.095-.084c.037-.034.075-.069.111-.105.03-.03.059-.062.088-.093a3.213 3.213 0 00.274-.346 3.207 3.207 0 00.285-.506 3.262 3.262 0 00.197-.566l.029-.122c.013-.06.023-.12.032-.18.007-.04.014-.081.019-.123l.005-.056c-.378-.04-.803-.073-1.245-.097zm-1.695 46.329h-.06c-2.39-.016-4.174-.216-5.38-.423a93.55 93.55 0 00.557 2.12l.014.05-.008.053c-.003.021-.324 2.095.076 4.987.433 3.13 1.242 7.013 1.725 9.335.395 1.892.407 1.978.382 2.079-.024.094-.095.38-2.963 2.414l-.092.04-2.687.547v.437h8.191c.043-.164.11-.434.184-.77.164-.749.355-1.814.355-2.727 0-.81-.146-9.54-.294-18.142zm-2.274 2.128c-1.227 0-1.555-.819-1.569-.853l.448-.176c.01.023.238.548 1.12.548.897 0 1.17-.539 1.182-.561l.435.203c-.015.034-.4.839-1.616.839zm2.086-58.883l.188-.234.188.234c.005.007.443.544 1.572 1.564l.28.232c.28.229.581.476.902.748v-.498c0-1.72-.91-3.454-2.942-3.454s-2.941 1.735-2.941 3.454l-.001.499c.332-.28.638-.527.917-.754l.133-.108c1.23-1.099 1.698-1.676 1.704-1.683z" fill="#1D1D1B"/><path d="M50.963 24.05v-.16a37.82 37.82 0 01-1.065-.924 20.676 20.676 0 01-1.455-1.42c-.241.268-.734.78-1.577 1.531-.275.246-.587.517-.941.813l-.002.16c-.009 1.338-.02 2.853.197 3.23.12.211.425.588.81.923a4.202 4.202 0 00.367.287c.024.017.047.029.071.044.335.219.648.338.907.338h.337c.258 0 .571-.12.907-.338.024-.015.047-.027.071-.044a4.372 4.372 0 00.366-.287c.386-.335.691-.712.81-.922.217-.378.207-1.893.197-3.23zm5.388 37.507a18.069 18.069 0 00-.09-1.427 20.17 20.17 0 00-.132-1.034 23.088 23.088 0 00-1.426-5.125H43.301c.002.312-.03.653-.078.991a14.091 14.091 0 01-.345 1.663 15.033 15.033 0 01-.086.308.24.24 0 01-.23.173h-.743c-.012 0-.022-.004-.034-.006a.24.24 0 01-.12-.05l-.39 2.349-.006.04a.24.24 0 01-.237.2h-.53a43.4 43.4 0 00-.1 2.96v.054l.362 5.215.16 2.3.441 6.333a12.681 12.681 0 001.246.296l.263.05c1.185.215 3.016.441 5.508.459h.053l.24.002h.005l.236-.001c2.509-.012 4.237-.204 5.316-.386l.252-.045c.09-.016.174-.033.253-.05.388-.077.653-.147.8-.19a484.085 484.085 0 00.568-8.262c.037-.637.072-1.272.104-1.893.089-1.745.15-3.371.15-4.547 0-.126-.005-.251-.008-.377z" fill="#1D1D1B"/><path d="M36.98 37.994c-2.356 3.102-3.823 5.517-4.038 6.648.437 1.448 5.185 6.627 6.998 8.522a.24.24 0 01.066.177l-.105 2.224.239 2.681.071.802.076.11h.54l.686-4.133c.02-.121.114-.215.252-.2a.236.236 0 01.105.035c.069.04.117.111.12.195l.02.51.04 1.06h.33a12.618 12.618 0 00.173-.695c.149-.665.268-1.404.269-1.959 0-.085-.003-.165-.01-.24a1.766 1.766 0 00-.032-.24.762.762 0 00-.084-.23 1.727 1.727 0 00-.26-.323c-.033-.033-.074-.06-.11-.091a1.756 1.756 0 00-.263-.195 1.722 1.722 0 00-.549-.198.244.244 0 01-.187-.133c-.017-.037-1.784-3.667-2.503-4.897-.717-1.225-1.804-2.659-1.816-2.673l-.004-.01-.001.001-.893-1.282.395-.274.718 1.032c.496-.555 1.789-2.003 2.475-2.795.8-.923 2.45-3.433 2.648-3.735l.2-.686c.123-.413.235-.794.318-1.127.02-.082.04-.169.058-.259l.018-.092a10.227 10.227 0 00.085-.499l.016-.109.037-.282.016-.134.023-.199.016-.156.016-.162a25.236 25.236 0 00.028-.309l.015-.174.002-.026.03-.418.008-.115a20.838 20.838 0 00.018-.289l.007-.122.01-.172.002-.063.017-.365c-2.092.782-4.455 3.629-6.306 6.064zm37.472 6.047c.005-.011.457-1.027.469-1.973a.864.864 0 01-.007-.377c.104-.491.546-.795.973-1.09a7.3 7.3 0 00.411-.295c.256-.202.27-.492.244-.673-.605.314-2.383 1.35-2.57 1.53-.217.217-1.514 1.682-1.527 1.696l-.077.087-.115-.006a113.95 113.95 0 00-4.93-.134h-5.395l-1.981.222-.054-.478 1.631-.182c-.452-.798-1.654-2.926-2.366-4.296-.748-1.44-2.035-3.276-3.06-4.363-.907-.961-2.15-1.528-2.742-1.76l.256 3.155.006.037c.483 2.5 1.396 3.992 2.657 6.055.226.37.464.76.714 1.177 1.352 2.263 2.524 3.626 3.792 4.408 1.847.199 12.06-1.96 12.164-1.983l.117-.025.806.705c.206.08 1.239.467 2.107.533 1.377.104 1.884-.013 2.358-.544.285-.32.421-.813.308-1.12-.064-.173-.203-.272-.422-.302l-1.772-.45c-.106-.055-.691-.376-1.112-.827a6.794 6.794 0 01-.445 1.471l-.438-.197zM100.598.017H87.394v62.137h25.446V.017h-12.242zM88.356.98h11.28v11.274h-11.28V.979zm0 12.235h11.28v11.274h-11.28V13.214zm23.521 47.979h-23.52v-23.51h23.52v23.509zm0-24.47h-23.52V25.449h23.52v11.274zm0-12.235h-11.279V13.214h11.279v11.274zm-11.279-12.235V.979h11.279v11.274h-11.279z" fill="#1D1D1B"/><path d="M99.636 36.732v24.471H87.395v12.235H75.153v25.431h37.687V36.732H99.636zM88.358 62.164h11.28v11.274h-11.28V62.164zM76.115 74.399h11.28v11.274h-11.28V74.399zm11.28 23.509h-11.28V86.634h11.28v11.274zm24.483 0h-23.52V74.399h23.52v23.509zm0-24.47h-11.279V49.929h11.279v23.509zm-11.279-24.47V37.694h11.279v11.274h-11.279z" fill="#1D1D1B"/></svg>