<svg width="107" height="101" fill="none" xmlns="http://www.w3.org/2000/svg"><path fill="#A0D0FF" d="M4 0h100v100H4z"/><g clip-path="url(#clip0)" fill="#1D1D1B"><path d="M20.137 8.49l-.239-.298c-.893-1.309-1.072-1.428-1.608-1.13a.625.625 0 00-.298.535c-.06.595.178 1.429.715 2.024.298.238.893.535 1.25.535v.596h-.118c-.477 0-1.073-.298-1.37-.536-.835 1.071-1.847 3.035-2.265 4.166-.06.12-.06.238-.119.357-.06.238-.178.477-.298.774l-.119.893 3.873.655.06-3.572.238-.06c.655-.118 2.502-.475 2.919-.594.476-.179.476-2.38.417-4.583-.06-1.964-.417-3.452-1.132-4.464-.179 1.19-.655 2.916-1.787 4.285l-.12.417z"/><path d="M12.51 17.477c1.61 0 2.324-1.012 2.741-2.024.12-.298.238-.536.298-.833.06-.12.06-.238.12-.298v-.06c.059-.238.237-.535.357-.892.476-1.071 1.25-2.56 2.025-3.512-.536-.714-.774-1.607-.715-2.32.06-.418.298-.775.596-.953.953-.595 1.49 0 2.204.952 1.013-1.428 1.37-3.154 1.49-4.166v-.12c0-.118 0-.178-.06-.297a.926.926 0 00-.357-.476c-.537-.238-1.43-.536-2.383-.536h-.06c-.774 0-1.608.179-2.383.655-2.145 1.31-2.68 3.452-2.979 4.88-.06.358-.178.655-.238.953-.179.416-.596.893-1.132 1.428-1.013 1.012-2.264 2.321-2.264 4.107-.06.357 0 3.512 2.74 3.512zm28.716 21.426c-.119-.12-1.072-.12-1.549-.12h-.953a8.943 8.943 0 00-1.37 1.965c-.06.06-.12.119-.179.119h-.119c-.12-.06-.179-.179-.12-.298.299-.714.716-1.31 1.252-1.904-.417-.12-1.192-.358-1.55-.834-.952 1.25-2.025 1.37-2.322 1.37h-.06c-.12 0-.238-.12-.179-.239 0-.119.12-.238.239-.178 0 0 .178 0 .416-.06.358-.06.954-.357 1.49-1.012.06-.119.179-.178.238-.297v-.179l.179-.119c.12-.06.238-.119.417-.238.596-.357 1.549-.893 1.668-1.428.06-.179-.12-.298-.238-.417-.358.238-1.132.714-1.787.952-.894.238-1.788.596-2.383.834-.537.238-1.55 1.13-1.907 1.428l-.12.119-.178-.06c-.178-.059-4.349-1.368-5.362-2.142-.417-.298-1.37-.833-2.323-1.31.357 1.548.715 3.274 1.013 4.762 2.025.476 4.468 1.012 5.898 1.13 1.072.18 1.847.358 2.502.536.715.179 1.31.358 2.085.417 1.43.12 3.872-.655 4.409-.893.357-.119 1.012-1.607.893-1.904z"/><path d="M24.128 26.94c0-1.369-.834-2.738-1.906-4.523l-.06-.06c-.714-1.13-1.489-2.618-1.965-3.63-.12-.238-.239-.417-.298-.595-.06-.179-.12-.298-.18-.358h-.118l-2.383-.416c.119.06.238.178.298.238.119.06.178.178.238.297.12.12.179.239.238.358l.179.357c.536 1.13.357 2.559-.536 4.107-.775 1.309-2.86 2.856-4.707 4.225-.417.298-.834.655-1.191.953.238 1.368.536 2.856.774 4.225.477 2.44.894 4.524.894 5.773 0 .774-.179 1.608-.477 2.5l.715-.119 3.098-1.428c.238-.12.953-.357 1.37-.238.239.06.477.297.596.535.06.179.06.417 0 .536-.06.06-.12.12-.179.238.894.238 2.026.714 2.383.893l4.051.535c-.059-.357-.119-.773-.238-1.19 0-.119-.06-.238-.06-.297 0-.12-.059-.238-.059-.298-.298-1.607-.715-3.392-1.013-4.94 0-.119-.06-.238-.06-.357 0-.12-.059-.238-.059-.357-.417-2.024-.655-3.214-.655-3.512 0-.06 0-.119.06-.178.655-.833 1.25-2.143 1.25-3.274zm.417 64.517c.179-10.058.834-45.71.834-47.733 0-.417-.06-1.012-.179-1.785l-3.812-.477c.06.179.119.476.178.834.06.238.06.476.12.535.06.238-.06.476-.418 1.072-.06.119-.178.297-.178.297-.06.12-.12.238-.596.655-.238.178-.536.298-.834.238l-1.966-.417c-.298.12-1.191.357-2.621.477h-.596c-1.37 0-2.383-.358-2.443-.358l-.06-.06s-.178-.118-.416-.297c-.358 1.012-.596 2.024-.656 2.917-.06 1.666.239 2.976.417 3.987.18.834.298 1.488.18 2.024-.06.417-.418 3.095-.775 6.19-.537 4.345-1.192 9.76-1.43 11.01-.179.953-.656 2.024-1.192 3.215-.655 1.547-1.43 3.273-1.906 5.416-.477 2.023-.596 4.88-.715 7.38-.06 1.369-.12 2.678-.238 3.75l4.05.892 6.316-18.986c0-.06 0-.06.06-.06 0 0 .953-1.19 1.37-2.678.06-.178.06-.297.119-.476.298-1.19.774-2.56 1.49-4.523.476-1.429 1.131-3.155 1.846-5.357 1.132-3.452 2.74-9.999 2.8-10.058l.596.119c0 .06-1.609 6.606-2.8 10.058-.715 2.202-1.37 3.988-1.847 5.357-.655 1.904-1.132 3.273-1.43 4.404.06 1.31.12 3.274.238 3.63.18.834.06 1.786-.119 2.917-.178 1.548-.417 3.333.06 5.297a51.846 51.846 0 001.072 3.274c.834 2.38 1.787 5.059 1.966 7.678l3.515-.358zm-14.12 6.428l-2.383-2.201-3.872-.774c-.179.655-.417 1.25-.596 1.844l-.298.834c-.238.715-.178 1.429.06 2.143l.12.238h11.259l.06-.655-4.17-1.369c-.12 0-.12-.06-.18-.06zm18.29.357c-.119-.06-2.383-1.25-3.038-1.785-.298-.238-.536-.655-.774-1.072l-4.17.655c-.06.774-.18 1.368-.239 1.845-.12.714.12 1.488.596 2.023l.06.06h11.14v-.714l-3.515-.893c0-.06 0-.119-.06-.119z"/><path d="M18.052 39.082c-.12-.06-.596.06-.954.238l-1.191.536 1.728-.179h.238c.179-.119.417-.238.476-.357-.06.06-.178-.179-.297-.238zM11.14 27.595c.06-.06.18-.12.298-.238.06-.06.18-.12.298-.18.298-.237.656-.475.954-.713 1.787-1.37 3.872-2.917 4.527-4.047.894-1.548 1.013-2.976.298-3.929-.119-.119-.178-.238-.298-.357l-.06-.06-.535-.356c-.298-.179-.656-.238-1.013-.298h-.298c-.12 0-.179 0-.298.06-.06 0-.12 0-.238.059a3.43 3.43 0 00-.715.238 3.852 3.852 0 00-.953.536 9.718 9.718 0 00-1.192 1.012c-.774.833-2.145 2.202-3.515 3.57L6.792 24.5l3.395 3.928c.298-.298.596-.536.954-.833z"/><path d="M11.2 43.546c.06.06.179.119.239.178.119.06.178.12.238.179.238.178.417.297.476.357.239.06 1.37.416 2.8.297 1.55-.119 2.503-.476 2.503-.476h.06l2.144.476c.119 0 .179 0 .298-.06.179-.178.298-.237.357-.356l-2.323-.536-1.43-.119c-.12 0-.238-.119-.179-.238.06-.119.12-.238.239-.178l1.489.118 2.442.596c0-.06.06-.12.12-.179.06-.06.119-.178.178-.297l-1.966-.655-.655-.179h-.357l-1.311-.06a.256.256 0 01-.238-.237c0-.12.06-.238.238-.238l1.787.119 2.562.833c0-.12-.06-.238-.06-.417v-.119l-1.906-.714-.536-.178h-.238l-1.013-.06a.256.256 0 01-.239-.238c0-.12.12-.238.239-.238l1.37.06 2.204.833c-.06-.239-.06-.417-.119-.477-.417-.238-2.502-1.011-3.038-.952l-2.502.238-2.383.476h-.06l-.06.358-.297 1.25c0 .118-.12.178-.239.178h-.06c-.119-.06-.178-.12-.178-.238l.06-.357.297-1.25-.06-.06c-.714-.535-3.157-2.38-3.99-3.452-1.014-1.904-2.86-4.285-2.86-4.344l-.18-.239.24-.178s2.74-2.262 4.408-3.869l-3.336-3.928c-.894.893-1.669 1.666-1.966 2.083-.954 1.19-2.8 3.452-3.635 4.643C.06 32.713 0 33.606 0 33.725c.12.953 1.609 3.333 5.123 5.833 2.503 1.607 4.766 3.154 6.077 3.988zM4.349 94.315l3.693.713.298.06.298.06 1.251.237.715-3.095-.953-.237-.298-.06-.298-.06-3.932-.893h-.06l-.774 3.275h.06zm20.136-2.262l-3.514.535h-.18v2.797h.06l3.873-.594h.298l.298-.06 1.906-.297-.238-2.738-1.847.238-.358.06-.298.059zm79.237-86.718c-.06.06-.06.06-.119.06-.06 0-.119-.06-.179-.06-.059-.119-.059-.238.06-.297l3.217-2.44c0-.06 0-.12-.06-.179-.059-.119-.179-.238-.298-.417l-3.456 2.5c-.059 0-.059.06-.119.06-.059 0-.119-.06-.178-.12-.06-.118-.06-.237.059-.297l3.397-2.5-.537-.535-3.396 2.5c-.059 0-.059.059-.119.059-.059 0-.119-.06-.178-.12-.06-.118-.06-.237.059-.297l3.336-2.44c-.059 0-.059-.06-.119-.06-.178-.178-.476-.178-.715-.059 0 0-2.561 1.786-3.515 2.5a2.023 2.023 0 01-.894.416c.358.536.716 1.429.299 2.322-.06.06-.119.119-.18.119h-.059c-.12-.06-.179-.179-.12-.298.06-.119.06-.238.12-.357.119-.595-.179-1.19-.358-1.548-.059-.119-.119-.178-.178-.238-.06 0-.12-.06-.179-.119-.06-.06-.297-.357 0-.892.179-.298.358-.953.477-1.786.06-.238-.12-.417-.298-.476l-.12-.06c-.715 1.667-1.667 4.107-1.727 4.405-.06.297.12 1.13.298 1.607.06.119 0 .238-.06.297l-.416.476 1.668 1.964.535-.535c.06-.06.18-.12.239-.06 0 0 .655.12 1.37-.238.775-.357 2.383-1.547 2.383-1.607l2.86-2.916s.179-.238.238-.595l-3.038 2.261zM77.985 98.481l-2.74-1.428c-.06-.06-.12-.12-.12-.18l-.12-.416h-3.99c0 .596 0 1.072-.06 1.31-.06.178-.12.356-.239.535-.238.477-.476.952-.119 1.547h10.307l.179-.714-3.039-.714c0 .06-.06.06-.06.06zm-20.911-.417a6.387 6.387 0 00-2.324-.416c-.536 0-.893.119-.893.119l-.18-.596c.06 0 1.371-.417 3.278.18-.18-.24-.239-.3-.239-.358 0-.06-.06-.239 0-.476h-4.23c-.357.833-1.012 1.607-1.489 2.142-.238.298-.298.715-.12 1.012l.18.238h6.91l.239-.535a.832.832 0 00-.18-.894 4.616 4.616 0 00-.952-.416zm2.918-93.086c.774-.238 1.37.357 1.43.417l-.239.238-.238.238s-.417-.417-.834-.238c-.179.06-.298.238-.358.357-.119.297-.119.774.06 1.19 0 .06.06.12.06.179.357.773 1.548.773 1.846.773h.06v.596h-.06c-.178 0-.774 0-1.31-.238.238.416.417.714.417.714.06.06.06.119.06.178l-.12 2.976c.12.06.298.12.536.179.656.238 1.728.535 2.681.654 1.132.12 1.668-.416 1.847-.654 0-.06.06-.06.06-.06l-.06-1.488c-.238 0-.417.06-.596.06-1.668 0-2.502-.893-2.502-.952l.417-.417s.179.179.536.357c.358.179.834.357 1.49.357.298 0 .536 0 .893-.06.12-.059 1.966-.475 2.74-1.25.716-.713-.595-4.344-1.131-5.891l-.06-.12c-.476-1.428-1.847-3.69-5.302-2.916-1.31.298-2.264.893-2.8 1.786-.536.892-.655 2.142-.357 3.57.357-.237.595-.416.834-.535z"/><path d="M98.716 9.561l-.178-.238L96.87 7.36l-.18-.238-.178-.238-8.102 6.19-1.43 2.678-.536-.298 1.191-2.202c-1.25.238-4.17.714-6.613 1.131-3.217.536-7.923.476-7.983.476l-3.753-.06h-.06l-2.919-.892a.327.327 0 01-.178-.298v-.357c-.358.238-.835.536-1.609.536h-.358c-1.25-.12-2.561-.595-3.217-.833l-.06 1.13c0 .12-.118.239-.237.298l-2.8.655c-.06 0-3.158.238-5.6 1.964-2.503 1.726-4.648 4.345-4.648 4.404-2.025 2.38-7.268 8.75-7.625 9.94-.358 1.25 2.92 4.642 5.54 6.19 2.324 1.368 6.375 3.928 7.09 4.344.357-.119.834-.297 1.37-.535.477-.179.894-.477 1.251-.715.12-.119.298-.238.358-.357l-4.707-4.463-3.455-4.583c-.12-.12-.06-.298.06-.417l6.553-6.13-1.37-1.31.178-.238.179-.238 1.549 1.488.834.536c.06.06.12.119.12.178 0 .06.833 4.762 1.19 6.012v.06c-.119 3.094 0 9.403 0 10.653.239.06.656.178 1.192.357 1.668.476 4.587 1.19 6.91 1.369 2.205.119 4.767-.06 6.256-.179.536-.06.894-.119 1.132-.119l-.536-10.773v-.06l1.549-8.927c0-.06 0-.06.06-.06l1.191-2.142.536.298-.834 1.547c2.443-.654 10.843-2.976 14.477-4.523 3.694-2.083 9.592-7.32 10.783-8.333l-.358-.476-.357-.238z"/><path d="M70.718 95.922h6.374l-4.826-51.067-.06-.952c-.833.12-3.276.357-5.778.357-.596 0-1.132 0-1.728-.06-3.515-.237-8.221-1.725-8.46-1.785-.119-.06-.178-.119-.178-.178l-.417-1.429c-.834.833-2.502 1.429-3.038 1.548l-.239.714.06.297.298 1.19.298.417.357-.357c.06-.06.179-.06.298 0 .06.06.12.238 0 .298l-.715.773-.655-.952-.179-.833-.417 1.19c.477.953 1.251 1.905 1.549 1.905.477-.06 1.49-.833 1.966-1.369.06-.06.238-.119.357-.06.12.06.179.18.179.298l-4.587 50.055h8.042c.239-2.202 1.728-17.26 2.383-21.367.656-4.345 2.026-20.593 2.026-20.772 0-.178.12-.298.298-.298.179 0 .298.12.298.239l5.064 42.079h1.43v.119z"/></g><defs><clipPath id="clip0"><path fill="#fff" d="M0 0h107v100H0z"/></clipPath></defs></svg>