<svg width="144" height="101" fill="none" xmlns="http://www.w3.org/2000/svg"><path fill="#80F8E0" d="M22 1h100v100H22z"/><path d="M17.031 48.175l.839-9.25-1.64-5.958-2.074-2.437 2.831-4.604h10.58l2.791-.344 2.43.27 7.488.31 2.854-.58 11.616.192-1.294 2.356-11.174 3.312-4.86-.2-6.592 1.48.508 1.563s-.004.952-.602 2.067c-.598 1.115-1.441 1.742-1.441 1.742l-.258 5.03.52 2.834c.005.16.003.318-.007.477l-.194 3.329-12.32-1.59z" fill="#242938" stroke="#fff" stroke-width=".758" stroke-miterlimit="10"/><path d="M44.733 1.385S42.92 5.88 47.035 7.818c3.212 1.512 7.418 3.34 9.282 7.414.818 1.787.673 3.848-.281 5.537-.305.54-.572 1.1-.74 1.697l-.018.064.075.711m-10.62 26.921s-1.813-4.495 2.302-6.432c3.212-1.513 7.418-3.34 9.282-7.414.818-1.788.673-3.849-.281-5.538-.305-.54-.572-1.1-.74-1.696l-.018-.065.075-.71" stroke="#242938" stroke-width="1.516" stroke-miterlimit="10"/><path d="M21.336 27.41l3.346-.028-.795-3.279c.804-.038 2.033.176 2.645-.38.597-.545.68-1.637.712-2.392.109-2.517.38-6.694-2.851-7.605-1.928-.543-4.378.288-5.043 2.11-.409 1.12-.341 2.29-.28 3.46.08 1.532.023 3.06.168 4.593.109 1.157.106 2.398.35 3.536l1.748-.015z" fill="#242938" stroke="#fff" stroke-width=".758" stroke-miterlimit="10"/><path d="M14.794 22.023c.41.425.818.873 1.325 1.183.466.285.974.375 1.509.376 2.077.005 3.628-1.619 4.523-3.324.319-.605 1.086-2.347 1.086-2.347s.497-.061.67-.126c.837-.313 1.74-.898 2.241-1.647" fill="#242938"/><path d="M14.794 22.023c.41.425.818.873 1.325 1.183.466.285.974.375 1.509.376 2.077.005 3.628-1.619 4.523-3.324.319-.605 1.086-2.347 1.086-2.347s.497-.061.67-.126c.837-.313 1.74-.898 2.241-1.647" stroke="#fff" stroke-width=".758" stroke-miterlimit="10"/><path d="M8.82 100.219h6.765c1.07 0 1.446-1.386.537-1.979l-3.844-2.508H9.016l-1.254 2.914c-.316.734.248 1.573 1.058 1.573zm25.233 0h10.55l-7.883-4.487h-3.263l-.62 3.009c-.155.754.44 1.478 1.216 1.478z" fill="#242938" stroke="#fff" stroke-width=".758" stroke-miterlimit="10"/><path d="M23.104 66.904l4.648 6.887-.46 1.628c-.563 1.993-.389 4.249.496 6.417l5.668 13.896h3.263l-3.364-21.535s-.668-7.782-2.294-16.736l-2.026-10.018-11.68.553-2.548 5.614a9.945 9.945 0 00-1.247 5.211l.619 15.619-1.268 1.607a10.304 10.304 0 00-2.147 5.147L9.015 95.731h3.263l10.826-28.828z" fill="#242938"/><path d="M26.887 55.242l-3.783 11.662 3.783-11.662zm-3.783 11.662l4.648 6.887-.46 1.628c-.563 1.993-.389 4.249.496 6.417l5.668 13.896h3.263l-3.364-21.535s-.668-7.782-2.294-16.736l-2.026-10.018-11.68.553-2.548 5.614a9.945 9.945 0 00-1.247 5.211l.619 15.619-1.268 1.607a10.304 10.304 0 00-2.147 5.147L9.015 95.731h3.263l10.826-28.828z" stroke="#fff" stroke-width=".758" stroke-miterlimit="10"/><path d="M52.761 25.583l1.397-1.822a.909.909 0 01.754-.353l2.679.086c.46.015.797.457.688.899l-.135.54-.325.374-.261 2.2a1.41 1.41 0 01-.311.73c-.346.42-.906.602-1.447.47l-2.348-.577-.69-2.547z" fill="#242938" stroke="#fff" stroke-width=".758" stroke-miterlimit="10"/><path d="M56.215 24.908l1.604.399" stroke="#fff" stroke-width=".758" stroke-miterlimit="10"/><path d="M14.156 30.53L3.059 28.312a4.113 4.113 0 01-2.402-3.08h0a.72.72 0 01.497-.813l2.878-.882a20.834 20.834 0 016.472-.906l9.764.173.07 2.184-5.901 2.162-6.554 1.07 6.554-1.07 2.32-.85-2.601 4.23z" fill="#242938" stroke="#fff" stroke-width=".758" stroke-miterlimit="10"/><path d="M30.826 32.721l-3.062-5.296-.744-1.364" fill="#242938"/><path d="M30.826 32.721l-3.062-5.296-.744-1.364" stroke="#fff" stroke-width=".758" stroke-miterlimit="10"/><path d="M20.268 22.804l2.722-1.31 3.92 1.121-.125 1.476-1.422-.138-2.18 2.029-2.846-.993-.069-2.185z" fill="#242938" stroke="#fff" stroke-width=".758" stroke-miterlimit="10"/><path d="M20.64 25.873c1.246 1.667 2.766 3.394 4.953 3.695.688.095 1.416-.006 1.903-.496 1.069-1.076-.208-2.415-.72-3.45" stroke="#fff" stroke-width=".758" stroke-miterlimit="10"/><path d="M27.46 22.196l31.247.525" stroke="#242938" stroke-width="1.516" stroke-miterlimit="10"/><path d="M46.101 25.63l.63 4.492m-22.971 7.55l5.531.421m10.944-10.482l-.691 1.78" stroke="#fff" stroke-width=".758" stroke-miterlimit="10"/><path d="M136.31 96.663l-6.84-10.795-2.734 1.73 6.841 10.794 2.733-1.73z" fill="#242938" stroke="#fff" stroke-width=".758" stroke-miterlimit="10"/><path d="M121.938 98.393l6.84-10.795-2.733-1.73-6.841 10.795 2.734 1.73z" fill="#242938" stroke="#fff" stroke-width=".758" stroke-miterlimit="10"/><path d="M129.401 39.024h-3.287v60.985h3.287V39.024z" fill="#242938" stroke="#fff" stroke-width=".758" stroke-miterlimit="10"/><path d="M127.642 48.541c5.718 0 10.355-8.955 10.355-20.002 0-11.047-4.637-20.002-10.355-20.002-5.719 0-10.355 8.955-10.355 20.002 0 11.047 4.636 20.002 10.355 20.002z" stroke="#242938" stroke-width="1.516" stroke-miterlimit="10"/><path d="M125.095 48.541c5.719 0 10.355-8.955 10.355-20.002 0-11.047-4.636-20.002-10.355-20.002-5.718 0-10.355 8.955-10.355 20.002 0 11.047 4.637 20.002 10.355 20.002z" fill="#fff" stroke="#242938" stroke-width="1.516" stroke-miterlimit="10"/><path d="M125.095 43.665c3.551 0 6.428-6.772 6.428-15.126s-2.877-15.125-6.428-15.125c-3.549 0-6.428 6.772-6.428 15.125 0 8.354 2.879 15.126 6.428 15.126z" stroke="#242938" stroke-width="1.516" stroke-miterlimit="10"/><path d="M125.095 38.085c1.514 0 2.742-4.274 2.742-9.546 0-5.272-1.228-9.545-2.742-9.545s-2.741 4.273-2.741 9.545 1.227 9.546 2.741 9.546z" fill="#242938"/><path d="M143.15 96.775h-31.017v3.234h31.017v-3.234z" fill="#242938" stroke="#fff" stroke-width=".758" stroke-miterlimit="10"/></svg>