<svg width="107" height="131" fill="none" xmlns="http://www.w3.org/2000/svg"><path fill="#FFAED0" d="M4 0h100v100H4z"/><path d="M31.631 32.787L16.854 43.093c-2.914 2.196-1.183 5.287 1.824 7.408l9.494 6.697 2.741-10.943-6.857-4.133 7.575-9.335zm29.438 9.953c-.637 1.377-1.347 2.722-1.965 4.125l-4.17-2.338.196-.308 3.69-5.803c.569-.894 1.149-1.782 1.706-2.683.784-1.267 1.662-1.82 3.194-1.916.646-.04 1.713-.09 2.252.368 1 .85.39 3.787.138 4.865-.508 2.167-2.639 1.812-4.42 1.919-.231.572-.356 1.198-.621 1.771zm-22.713-2.856c1.68-2.765 5.059-8.11 5.059-8.11s2.565 3.294 4.855 2.27c1.091-.488 1.731-1.958 2.14-2.985 1.366-3.423 3.755-9.065-.288-11.74-2.412-1.597-6.212-1.527-8.013.694-.86 1.059-1.71 3.005-2.005 4.357-.796 3.65-3.065 5.4-5.631 7.974l3.883 7.54zm30.696 13.809h4.227l1.321 6.114.69 12.745.488 3.616-.104 4.824H73.96l-2.953-3.583.84-4.859-3.136-12.146.341-6.71zm-.09-19.006l3.78-2.343v9.887h-5.547l1.767-7.544z" fill="#242938" stroke="#fff" stroke-miterlimit="10"/><path d="M69.05 53.694h4.227v-5.382l-.535-6.08h-5.547l1.856 11.462zm35.062-.001h-4.226l-1.321 6.114-.69 12.745-.488 3.616.103 4.824h1.715l2.953-3.583-.84-4.859 3.136-12.146-.342-6.71zm.086-19.006l-3.78-2.343v9.887h5.547l-1.767-7.544z" fill="#242938" stroke="#fff" stroke-miterlimit="10"/><path d="M104.109 53.694h-4.226v-5.382l.535-6.08h5.547l-1.856 11.462zM75.438 68.677l1.489 18.478 2.256 6.088h7.228l.171-24.566H75.438zm22.29 0l-1.49 18.478-2.256 6.088h-7.228l-.172-24.566h11.146z" fill="#242938" stroke="#fff" stroke-miterlimit="10"/><path d="M81.644 122.872l-2.94-20.823.48-8.807h7.228l.17 29.63h-4.938zm9.877 0l2.941-20.823-.48-8.807h-7.228l-.172 29.63h4.939zm-17.736 5.737l7.495-5.736h5.3v5.736H73.785zm25.592 0l-7.494-5.736h-5.301v5.736h12.795zM86.582 53.693H76.436l-.999 14.984h11.145V53.693z" fill="#242938" stroke="#fff" stroke-miterlimit="10"/><path d="M86.582 53.693h10.147l.999 14.984H86.582V53.693zm-.002 0H76.433l-3.156-5.381-.535-9.602H86.58v14.983zm.002 0h10.147l3.156-5.381.535-9.602H86.582v14.983zm3.655-29.866h-7.682v4.245h7.681v-4.245z" fill="#242938" stroke="#fff" stroke-miterlimit="10"/><path d="M72.742 32.344l6.92-1.125 3.187-3.147h3.731V38.71H72.742v-6.366zm27.678 0l-6.919-1.125-3.188-3.147h-3.731V38.71h13.838v-6.366zm-11.928-6.91h-4.196l-3.202-3.214v-7.095c0-2.644 2.135-4.787 4.77-4.787h1.061c2.635 0 4.77 2.143 4.77 4.787v7.095l-3.203 3.214zM2.36 128.609l.156-2.52 1.357-3.216 2.02-18.343a14.012 14.012 0 012.646-6.777l2.348-3.188v-3.51c0-1.62.201-3.234.599-4.804l1.855-7.331a15.21 15.21 0 00.412-5.005l-.228-2.71a15.211 15.211 0 01.407-4.987l1.267-5.033 20.184 5.326 9.966 56.251-5.754.708 4.485 2.405 4.303.882v1.852H34.47l-.252-1.813.396-1.857-8.888-40.917-5.39 13.526-6.689 25.325H9.4l2.589 2.868 5.019.792-.143 2.076H2.359z" fill="#242938" stroke="#fff" stroke-miterlimit="10"/><path d="M15.2 61.185l4.445-9.965 3.393-7.868a24.986 24.986 0 0113.828-13.38l5.313 4.142 1.426 2.398a30.938 30.938 0 013.352 8.04l2.36 7.894 7.668-12.154 5.049 2.93-8.761 16.255c-2.129 3.449-7.197 3.233-9.026-.384l-4.092-8.094-1.071 7.731-.429 6.724c-.062.979-1 1.657-1.945 1.408L15.2 61.186z" fill="#242938" stroke="#fff" stroke-miterlimit="10"/><path d="M25.727 84.021l4.889-12.464" stroke="#fff" stroke-miterlimit="10"/><path d="M34.473 45.032l3.772 1.833 1.911 4.134" fill="#242938"/><path d="M34.473 45.032l3.772 1.833 1.911 4.134" stroke="#fff" stroke-miterlimit="10"/><path d="M36.096 26.535l7.588-3.514 13.424 2.413.454-1.607-4.875-1.162s.19-5.335-5.307-5.76c-5.294-.411-6.819 5.21-6.819 5.21l-5.178 3.054.713 1.366z" fill="#242938" stroke="#fff" stroke-miterlimit="10"/><path d="M43.684 23.022l1.53-5.542a2.45 2.45 0 012.676-1.782 2.456 2.456 0 012.128 2.62l-.823 5.695-5.511-.991z" fill="#242938" stroke="#fff" stroke-miterlimit="10"/><path d="M65.438 32.788a3.612 3.612 0 003.605-3.618 3.612 3.612 0 00-3.606-3.618 3.612 3.612 0 00-3.605 3.618 3.612 3.612 0 003.605 3.618z" fill="#fff" stroke="#242938" stroke-miterlimit="10"/><path d="M64.692 32.709l-1.34 6.428" stroke="#242938" stroke-miterlimit="10"/><path d="M22.5 68.976c2.346.123 5.837-1.523 6.188-4.177L22.5 68.976z" fill="#242938"/><path d="M22.5 68.976c2.346.123 5.837-1.523 6.188-4.177m7.078-14.264l3.098-2.456m10.452 4.366l1.023 2.396" stroke="#fff" stroke-miterlimit="10"/></svg>