<svg width="178" height="131" fill="none" xmlns="http://www.w3.org/2000/svg"><path fill="#FFE180" d="M39 0h100v100H39z"/><path d="M20.934 65.024l1.03-11.376-2.014-7.329-2.55-2.998 3.48-5.662h13.005l3.43-.424 2.986.331 9.204.383 3.509-.714 14.278.236-1.59 2.899-13.735 4.074-5.975-.247-8.101 1.82.623 1.923s-.004 1.171-.74 2.543c-.734 1.37-1.77 2.142-1.77 2.142l-.317 6.188.638 3.485c.006.196.004.391-.008.587l-.238 4.094-15.145-1.955z" fill="#242938" stroke="#fff" stroke-width=".758" stroke-miterlimit="10"/><path d="M54.984 7.473s-2.228 5.53 2.83 7.912c3.948 1.86 9.118 4.109 11.41 9.12 1.005 2.197.827 4.733-.347 6.81-.375.664-.702 1.353-.909 2.087l-.022.079.092.875M54.984 67.47s-2.228-5.53 2.83-7.912c3.948-1.86 9.118-4.11 11.41-9.12 1.005-2.198.827-4.733-.347-6.81-.375-.664-.702-1.353-.909-2.087l-.022-.08.092-.874" stroke="#242938" stroke-width="1.516" stroke-miterlimit="10"/><path d="M26.226 39.485l4.112-.035-.977-4.033c.988-.047 2.499.217 3.25-.468.735-.67.836-2.013.877-2.942.133-3.096.466-8.234-3.505-9.354-2.37-.668-5.381.354-6.199 2.596-.502 1.376-.419 2.817-.344 4.255.099 1.885.03 3.764.207 5.65.134 1.422.13 2.949.43 4.349l2.148-.018z" fill="#242938" stroke="#fff" stroke-width=".758" stroke-miterlimit="10"/><path d="M18.185 32.858c.504.523 1.004 1.074 1.628 1.455.572.35 1.197.461 1.855.463 2.552.006 4.459-1.992 5.56-4.089.39-.744 1.334-2.887 1.334-2.887s.611-.075.824-.155c1.029-.385 2.14-1.104 2.754-2.026" fill="#242938"/><path d="M18.185 32.858c.504.523 1.004 1.074 1.628 1.455.572.35 1.197.461 1.855.463 2.552.006 4.459-1.992 5.56-4.089.39-.744 1.334-2.887 1.334-2.887s.611-.075.824-.155c1.029-.385 2.14-1.104 2.754-2.026" stroke="#fff" stroke-width=".758" stroke-miterlimit="10"/><path d="M10.841 129.039h8.316c1.314 0 1.777-1.705.66-2.434l-4.725-3.085h-4.01l-1.54 3.584c-.39.903.304 1.935 1.299 1.935zm31.016 0h12.967l-9.69-5.519h-4.01l-.762 3.701c-.19.928.541 1.818 1.495 1.818z" fill="#242938" stroke="#fff" stroke-width=".758" stroke-miterlimit="10"/><path d="M28.399 88.062l5.713 8.47-.565 2.003c-.692 2.452-.478 5.226.609 7.893l6.968 17.092h4.01l-4.135-26.489s-.821-9.57-2.82-20.585l-2.49-12.321-14.357.68-3.131 6.905a12.239 12.239 0 00-1.533 6.41l.76 19.21-1.559 1.977a12.676 12.676 0 00-2.639 6.331l-2.149 17.882h4.01L28.4 88.062z" fill="#242938"/><path d="M33.048 73.717l-4.65 14.345 4.65-14.345zm-4.65 14.345l5.714 8.47-.565 2.003c-.692 2.452-.478 5.226.609 7.893l6.968 17.092h4.01l-4.135-26.489s-.821-9.57-2.82-20.585l-2.49-12.321-14.357.68-3.131 6.905a12.239 12.239 0 00-1.533 6.41l.76 19.21-1.559 1.977a12.676 12.676 0 00-2.639 6.331l-2.149 17.882h4.01L28.4 88.062z" stroke="#fff" stroke-width=".758" stroke-miterlimit="10"/><path d="M64.853 37.237l1.716-2.242c.218-.285.562-.446.927-.434l3.292.107a.9.9 0 01.846 1.105l-.165.664-.4.46-.321 2.706c-.04.332-.172.643-.382.899a1.751 1.751 0 01-1.779.577l-2.886-.71-.848-3.132z" fill="#242938" stroke="#fff" stroke-width=".758" stroke-miterlimit="10"/><path d="M69.098 36.406l1.971.49" stroke="#fff" stroke-width=".758" stroke-miterlimit="10"/><path d="M17.4 43.322L3.76 40.594a5.059 5.059 0 01-2.953-3.788h0a.886.886 0 01.612-1l3.537-1.085a25.58 25.58 0 017.955-1.114l12.002.212.085 2.687-7.253 2.658L9.69 40.48l8.055-1.316 2.852-1.045-3.197 5.203z" fill="#242938" stroke="#fff" stroke-width=".758" stroke-miterlimit="10"/><path d="M37.89 46.017l-3.763-6.514-.915-1.679" fill="#242938"/><path d="M37.89 46.017l-3.763-6.514-.915-1.679" stroke="#fff" stroke-width=".758" stroke-miterlimit="10"/><path d="M24.913 33.82l3.345-1.612 4.82 1.379-.155 1.815-1.748-.17-2.678 2.496-3.499-1.222-.085-2.687z" fill="#242938" stroke="#fff" stroke-width=".758" stroke-miterlimit="10"/><path d="M25.37 37.594c1.531 2.05 3.4 4.174 6.088 4.545.845.116 1.74-.008 2.339-.61 1.314-1.324-.256-2.97-.885-4.244" stroke="#fff" stroke-width=".758" stroke-miterlimit="10"/><path d="M33.753 33.071l38.408.646" stroke="#242938" stroke-width="1.516" stroke-miterlimit="10"/><path d="M56.666 37.296l.775 5.524m-28.236 9.287l6.799.518m13.451-12.893l-.85 2.189" stroke="#fff" stroke-width=".758" stroke-miterlimit="10"/><path d="M167.548 124.665l-8.408-13.278-3.36 2.128 8.408 13.277 3.36-2.127z" fill="#242938" stroke="#fff" stroke-width=".758" stroke-miterlimit="10"/><path d="M149.882 126.793l8.408-13.278-3.36-2.128-8.408 13.278 3.36 2.128z" fill="#242938" stroke="#fff" stroke-width=".758" stroke-miterlimit="10"/><path d="M159.056 53.77h-4.041v75.011h4.041v-75.01z" fill="#242938" stroke="#fff" stroke-width=".758" stroke-miterlimit="10"/><path d="M156.893 65.476c7.029 0 12.728-11.015 12.728-24.603 0-13.587-5.699-24.602-12.728-24.602s-12.728 11.014-12.728 24.602c0 13.588 5.699 24.603 12.728 24.603z" stroke="#242938" stroke-width="1.516" stroke-miterlimit="10"/><path d="M153.763 65.476c7.029 0 12.728-11.015 12.728-24.603 0-13.587-5.699-24.602-12.728-24.602s-12.728 11.014-12.728 24.602c0 13.588 5.699 24.603 12.728 24.603z" fill="#fff" stroke="#242938" stroke-width="1.516" stroke-miterlimit="10"/><path d="M153.763 59.477c4.364 0 7.901-8.329 7.901-18.604 0-10.275-3.537-18.604-7.901-18.604-4.363 0-7.901 8.33-7.901 18.604 0 10.275 3.538 18.605 7.901 18.605z" stroke="#242938" stroke-width="1.516" stroke-miterlimit="10"/><path d="M153.763 52.614c1.861 0 3.37-5.257 3.37-11.741s-1.509-11.741-3.37-11.741c-1.861 0-3.369 5.256-3.369 11.741 0 6.484 1.508 11.741 3.369 11.741z" fill="#242938"/><path d="M175.955 124.804H137.83v3.977h38.125v-3.977z" fill="#242938" stroke="#fff" stroke-width=".758" stroke-miterlimit="10"/></svg>