<svg width="115" height="101" fill="none" xmlns="http://www.w3.org/2000/svg"><path fill="#A0D0FF" d="M8 1h100v100H8z"/><path d="M70.386 98.873l-.467-.155a1.382 1.382 0 01-.837-.767l-.033-.08h-5.174l-.061.173-.334 1.33a.82.82 0 00.792 1.022h5.87a.782.782 0 00.244-1.523zm-26.388-1.348l-1.01.9-4.5.686-.19 1.286H50.63l.301-1.937-.14-.683-6.794-.252zm.504-1.255l-.095.488-.035.18.274.01 6.022.222.309.012.309.011 1.843.069 6.578-27.737a25.691 25.691 0 01-9.489-2.486L44.502 96.27zm26.93-31.36l.359-8.445-.122-12.383c-.885-.002-3.73-.012-7.947-.068-3.684-.049-7.281-.743-8.796-1.074l-.386 2-3.838 19.624a23.326 23.326 0 009.569 2.581l1.847-7.788-.144-3.911a.3.3 0 01.289-.313.305.305 0 01.31.29l.065 1.74.132-.555-.191 10.555c3.218-.136 6.16-.94 8.853-2.253zM58.353 11.08a1.933 1.933 0 001.92 1.654l1.297-.06 1.954-.133a.301.301 0 01.041.6l-1.673.115v1.5l-.244.064-1.921.38c-.023.284-.001.822.39 1.332.593.772 1.843 1.202 3.617 1.242 3.854.086 5.487-2.104 5.99-2.994l-2.717-.281-.223-1.602c-.256-1.843-.169-3.848.266-6.13a4.37 4.37 0 00-1.327-4.048A4.526 4.526 0 0062.43 1.49l-.094.005c-2.067.1-3.829 1.632-4.188 3.643a12.911 12.911 0 00-.056 4.218l.261 1.724zm4.535-5.775c.39-.408 1.327-.492 1.79-.271.313.15.579.439.747.816.225.5.232 1.007.022 1.504-.386.914-1.41 1.563-2.24 1.865a.3.3 0 11-.205-.565c.033-.012.068-.028.102-.042.71-.281 1.512-.834 1.79-1.492a1.222 1.222 0 00-.017-1.024c-.11-.247-.272-.43-.457-.519-.271-.13-.919-.044-1.1.145a.298.298 0 01-.216.092.3.3 0 01-.217-.508z" fill="#1D1D1B"/><path d="M30.46 23.834l-.11-.005-.722 2.642c1.109.761 7.158 4.899 9.847 6.402 1.811 1.012 3.209 1.554 4.331 1.989.59.228 1.099.425 1.512.636.405.208.88.162 1.239-.116.927-.719 2.858-2.213 4.61-4.27 2.217-2.599 3.22-4.382 3.426-4.767-.06-.41-.324-2.089-.753-2.997l.542-.257c.31.654.532 1.628.667 2.343l.046-.092.785 7.497-.287 6.644-.553 2.867c.366.08.857.181 1.448.29 1.8.335 4.497.736 7.243.773 1.438.019 2.71.033 3.807.043 2.144.02 3.587.024 4.153.025l.84-10.107 1.215-8.32.003-.019.066-.45.009.007.533-3.153.296.05.297.05-.58 3.422a41.828 41.828 0 004.562 2.68 71.09 71.09 0 013.47 1.895c1.505 1.076 3.038.978 4.342-.262l11.299-9.321-2.982-3.377c-.943.618-4.732 3.097-7.015 4.568a126.476 126.476 0 00-3.039 2l1.386 1.775-.473.37-1.539-1.97-4.558-2.252-3.235-4.232a4.493 4.493 0 00-3.222-1.75l-2.734-.212-.268-.027c-.4.785-2.105 3.532-6.41 3.532-.078 0-.155 0-.234-.002-1.998-.046-3.373-.546-4.087-1.488a2.52 2.52 0 01-.51-1.57l-3.309.654a4.632 4.632 0 00-3.013 2.022c-.47.726-.853 1.431-1.223 2.113-.538.993-1.047 1.932-1.757 2.8-1.178 1.445-4.466 4.997-4.498 5.032l-.026.028c-.535.53-.537 1.282-.537 1.567 0 .054 0 .096-.002.121l-.6-.048.002-.073c0-.276.004-1.03.457-1.685-1.077-.478-4.358-1.948-6.722-3.159a970.327 970.327 0 01-6.562-3.417l-.729 2.137-.145.424zM62.034 97.27h8.021l1.261-29.643a24.508 24.508 0 01-8.78 1.944l-.502 27.7zm48.803-88.749a.6.6 0 10-.85.85l1.727 1.73.6.602h-9.136c-.105 0-.207.018-.307.046l.067-.005a1.167 1.167 0 011.216.908c1.373.062 2.069.139 2.432.254h5.728l-.6.602-1.727 1.73a.603.603 0 00.425 1.026.6.6 0 00.425-.176l3.776-3.784-3.776-3.783zm2.045 3.75l.033.033-.033.033v-.065z" fill="#1D1D1B"/><path d="M106.434 13.514c0-.002-.005-.004-.007-.006-.017-.03-.112-.059-.264-.085a6.608 6.608 0 00-.395-.052 25.872 25.872 0 00-1.249-.095c-.161-.01-.311-.017-.441-.024l-.159.256-.114.183-.041.005-.173.256 1.256.53h-.001l1.588-.1.003-.027a7.17 7.17 0 00.018-.304 3.545 3.545 0 00-.004-.413 1.005 1.005 0 00-.017-.124zm-4.057.579l-.088-.037-.22-.093c-.323.056-.667.12-1.019.189l-.226.044-.01.192-.024.382-.022.378-.082 1.406.619.258.556.232.827.345.391.162-.011.024c.01-.009.021-.016.031-.026a1.27 1.27 0 00.166-.218l.143-.235a5.235 5.235 0 00.738-2.257l-1.228-.517-.541-.229zm.808-.313l.009.004.062.027-.048-.033-.011.001-.012.002zm-1.588 3.805c-.001.026.001.05-.006.076l-.126.44.032-.005.894-.163c.007-.002.015-.006.023-.007l-.752-.313-.065-.028z" fill="#1D1D1B"/><path d="M100.069 16.816l.007-.121v-.001l.059-.99a4.652 4.652 0 01-.58.656c-.12.11-.201.173-.214.183l-.36-.482c.012-.009 1.113-.852 1.259-2.146l.024-.216.213-.045.147-.03c.247-.051.494-.1.736-.145a54.218 54.218 0 012.057-.34l.157-.232.01-.015-.001-.009-.005-.042v-.001a.549.549 0 00-.066-.2c-.01-.022-.028-.037-.042-.056-.027-.036-.053-.074-.086-.104-.021-.017-.047-.027-.07-.042-.034-.022-.068-.046-.107-.06-.027-.01-.058-.01-.087-.016-.034-.006-.066-.018-.102-.018h-.038l-.973.068-.778.053-1.737.12-4.117 3.427 2.175 2.37h1.315l.197-.586.006-.019.173-.514c0-.002.002-.003.003-.005a.299.299 0 01.566.192l-.012.043-.3.888h.024l-.185.602H99.3c-.307.93-.638 1.95-1.005 3.093-4.241 13.187-11.499 35.749-26.28 43.222-.101.052-.204.102-.306.152-.102.05-.205.097-.307.145a22.705 22.705 0 01-8.834 2.17c-.1.005-.201.004-.301.007l-.3.006c-.126.002-.25.008-.377.008a26.008 26.008 0 01-1.156-.028c-.102-.004-.203-.012-.305-.018a23.913 23.913 0 01-9.548-2.555c-.094-.047-.185-.097-.278-.145l-.282-.15c-13.807-7.428-20.339-27.41-24.2-39.225v-.003c-.26-.79-.499-1.52-.726-2.204l-.005-.001-.216-.65v-.001h.003l.007.002-.18-.545-.009.003-.012-.036-.001-.003v-.003l-.918.367-.2.08.02.058v.002l.002.007.156.47.83 2.501.003.01.105.32c3.954 12.103 10.658 32.608 25.097 40.099.094.049.187.1.282.147.093.047.187.09.28.136a25.096 25.096 0 009.508 2.509l.305.017c.102.005.202.013.304.018.375.015.752.024 1.135.024.119 0 .235-.006.354-.007l.3-.007c.1-.002.201-.002.3-.006a23.89 23.89 0 008.8-2.011l.306-.141.306-.142c15.626-7.377 23.12-30.67 27.48-44.23a455.96 455.96 0 011.025-3.157l.014-.042.127-.376.115-.342.105-.31.271-.807.009-.025.002-.005.004-.013-.009-.005-1.032-.547zm-77.952 1.102h-.139l-.179-.001h-.313l-.066.001-.246.003-.097.002-.1.002-.114.003-.102.002-.227.009-.06.002a9.21 9.21 0 00-.25.016l-.055.005a3.74 3.74 0 00-.207.023.96.96 0 00-.095.02l-.035.009c-.03.01-.051.022-.054.034a1.1 1.1 0 00.007.4c.02.113.048.192.048.192l1.758.448.21.054.014-.085.3-.251.394-.33-.392-.558z" fill="#1D1D1B"/><path d="M22.794 17.498v.001a.829.829 0 00.054.099h.001c.085.135.232.28.484.304.11.01.24.03.369.047.577.082 1.313.231 2.089.396l.212.045.024.215c.146 1.295 1.248 2.138 1.26 2.146a.301.301 0 01-.181.542.296.296 0 01-.179-.06 4.375 4.375 0 01-.794-.84l.073 1.244-.946.394.298.9.777.14 3.562.139.14.005.856-2.512-.254-.211-3.863-3.217-3.488-.24c-.021 0-.04.007-.06.008a.564.564 0 00-.081.01c-.029.006-.059.006-.086.016-.04.014-.073.038-.108.06-.023.015-.048.025-.069.042-.034.03-.06.068-.087.105-.013.019-.031.034-.042.054-.006.01-.006.024-.011.035l.003.007a.833.833 0 00.047.126z" fill="#1D1D1B"/><path d="M24.5 21.696l.56-.233.522-.218-.088-1.484-.04-.682-.011-.193a48.62 48.62 0 00-1.218-.243l-.233-.04-.017-.003-.306-.05a7.841 7.841 0 00-.272-.034l-.076.064-.284.237-.667.559-.004.02-.005.033-.132.773c.125.557.333 1.094.631 1.585l.143.235c.05.083.11.158.176.227l.01-.007.2-.084.191-.079.92-.383zM4.276 17.874l-.6-.602 17.446-.002c.024.008.05.031.076.047a65.015 65.015 0 01.922-.002 1.16 1.16 0 01.25-.477c-.395-.519-.788-.769-1.228-.769H3.676l.6-.601 1.726-1.73a.602.602 0 000-.85.6.6 0 00-.849 0l-2.575 2.58-.776.777-.176.177-.248.249.248.249.176.176.776.778 2.575 2.58a.598.598 0 00.85 0 .602.602 0 000-.85l-1.727-1.73z" fill="#1D1D1B"/></svg>