<svg width="37" height="36" fill="none" xmlns="http://www.w3.org/2000/svg"><g clip-path="url(#clip0)"><path d="M8.001 22.75c0 2.08-1.7 3.78-3.782 3.78a3.791 3.791 0 01-3.782-3.78c0-2.082 1.7-3.783 3.782-3.783h3.782v3.782zm1.905 0c0-2.082 1.7-3.783 3.782-3.783s3.782 1.7 3.782 3.782v9.47a3.79 3.79 0 01-3.782 3.78 3.791 3.791 0 01-3.782-3.78v-9.47z" fill="#E01E5A"/><path d="M13.688 7.564a3.791 3.791 0 01-3.782-3.782C9.906 1.7 11.606 0 13.688 0s3.782 1.7 3.782 3.782v3.782h-3.782zm0 1.906a3.79 3.79 0 013.782 3.781 3.79 3.79 0 01-3.782 3.782H4.22A3.791 3.791 0 01.437 13.25c0-2.081 1.7-3.782 3.782-3.782h9.47z" fill="#36C5F0"/><path d="M28.874 13.251a3.79 3.79 0 013.782-3.782c2.081 0 3.782 1.7 3.782 3.782s-1.7 3.782-3.782 3.782h-3.782V13.25zm-1.906-.001c0 2.082-1.7 3.783-3.781 3.783a3.791 3.791 0 01-3.782-3.782V3.78c0-2.08 1.7-3.781 3.782-3.781a3.79 3.79 0 013.781 3.782v9.469z" fill="#2EB67D"/><path d="M23.187 28.436a3.79 3.79 0 013.781 3.782A3.79 3.79 0 0123.187 36a3.79 3.79 0 01-3.782-3.782v-3.782h3.782zm0-1.906a3.791 3.791 0 01-3.782-3.78c0-2.082 1.7-3.783 3.782-3.783h9.469c2.081 0 3.781 1.7 3.781 3.782s-1.7 3.782-3.781 3.782h-9.47z" fill="#ECB22E"/></g><defs><clipPath id="clip0"><path fill="#fff" transform="translate(.438)" d="M0 0h36v36H0z"/></clipPath></defs></svg>