<svg width="37" height="36" fill="none" xmlns="http://www.w3.org/2000/svg"><g clip-path="url(#clip0)"><path d="M32.176 0H5.16A4.504 4.504 0 00.656 4.5v27A4.499 4.499 0 005.16 36h27.017a4.504 4.504 0 004.48-4.5v-27a4.499 4.499 0 00-4.48-4.5zM16.325 27.268a2.158 2.158 0 01-2.16 2.136H7.513a2.161 2.161 0 01-2.171-2.136V6.841a2.157 2.157 0 012.171-2.158h6.652a2.16 2.16 0 012.16 2.158v20.427zm15.674-9a2.158 2.158 0 01-2.16 2.159h-6.668a2.16 2.16 0 01-2.16-2.159V6.848a2.157 2.157 0 012.16-2.165h6.668A2.16 2.16 0 0132 6.84v11.427z" fill="url(#paint0_linear)"/></g><defs><linearGradient id="paint0_linear" x1="18.668" y1="36.006" x2="18.668" y2="0" gradientUnits="userSpaceOnUse"><stop offset=".18" stop-color="#0052CC"/><stop offset="1" stop-color="#2684FF"/></linearGradient><clipPath id="clip0"><path fill="#fff" transform="translate(.656)" d="M0 0h36v36H0z"/></clipPath></defs></svg>