<svg width="99" height="21" fill="none" xmlns="http://www.w3.org/2000/svg"><g clip-path="url(#clip0)" fill="#000"><path d="M33.62.168c4.932.14 8.126 2.151 9.468 5.963 1.366 3.88-.275 9.18-3.614 11.884-3.412 2.764-7.292 3.523-11.517 2.628-6.758-1.428-9.434-9.072-5.303-14.998C25.302 1.85 28.98.068 33.62.168zm-2.154 16.073c3.5-.012 6.237-2.912 6.29-6.664.04-2.857-1.795-4.678-4.754-4.718-3.537-.048-6.419 3-6.407 6.776.008 2.845 1.884 4.618 4.871 4.606zM75.64.538a6753.59 6753.59 0 01-1.394 7.466c2.433 0 4.632.065 6.823-.056.408-.024.994-.738 1.12-1.227.513-1.974.877-3.985 1.314-6.055h5.695c-1.35 6.696-2.664 13.228-3.994 19.837H79.51c.469-2.492.93-4.928 1.45-7.704-2.433 0-4.74-.064-7.033.064-.372.02-.873.87-1.006 1.409-.498 2.05-.87 4.132-1.302 6.255h-5.703c.897-4.51 1.766-8.908 2.647-13.3.3-1.493.8-2.974.898-4.479C69.59.782 70.564.313 72.335.518c1.047.12 2.114.02 3.306.02zM66.403 3.78c-1.637 1.291-2.89 2.278-4.14 3.261-4.13-4.349-10.056-1.6-10.946 2.901-.36 1.822-.457 3.623 1.072 4.996 1.572 1.412 3.508 1.665 5.46 1.03 1.116-.36 2.107-1.095 3.424-1.805.785.963 1.698 2.09 2.883 3.547-1.18.73-2.539 1.978-4.136 2.451-1.936.578-4.103.843-6.116.65-6.33-.605-9.584-5.143-8.367-11.29 1.495-7.58 11.1-11.944 17.92-8.1 1.006.57 1.826 1.448 2.946 2.359zM0 .546c1.847 0 3.4-.133 4.9.072.513.072 1.16.927 1.313 1.533.788 3.145 1.435 6.327 2.142 9.497.11.485.283.958.522 1.74 2.385-3.747 4.685-7.161 6.755-10.708.958-1.64 2.033-2.455 3.97-2.166.957.14 1.956.024 3.25.024-.498.866-.797 1.432-1.14 1.974-3.303 5.224-6.703 10.391-9.876 15.691-1.084 1.81-2.236 2.504-4.402 2.492-2.187-.012-3.1-.55-3.533-2.76C2.785 12.22 1.37 6.568 0 .545zm99.003.309c-1.326 6.552-2.653 13.1-3.982 19.66h-5.724c1.051-5.24 2.058-10.372 3.12-15.488C93.432.117 93.46.12 98.594.617c.06.005.117.065.409.238z"/></g><defs><clipPath id="clip0"><path fill="#fff" d="M0 0h99v21H0z"/></clipPath></defs></svg>