<svg width="37" height="36" fill="none" xmlns="http://www.w3.org/2000/svg"><path d="M32.334 12.96v-.075a15 15 0 00-28.17 0v.075a14.79 14.79 0 000 10.08v.075a15 15 0 0028.17 0v-.075a14.789 14.789 0 000-10.08zM6.609 21a11.73 11.73 0 010-6h2.79a25.095 25.095 0 000 6h-2.79zm1.23 3h2.1a18.227 18.227 0 001.5 3.855A12 12 0 017.839 24zm2.1-12h-2.1a12 12 0 013.555-3.855A18.23 18.23 0 009.939 12zm6.78 17.55A9.51 9.51 0 0113.074 24h3.645v5.55zm0-8.55h-4.29c-.28-1.99-.28-4.01 0-6h4.29v6zm0-9h-3.645a9.51 9.51 0 013.645-5.55V12zm11.88 0h-2.1a18.22 18.22 0 00-1.5-3.855 11.999 11.999 0 013.6 3.855zm-8.88-5.55A9.51 9.51 0 0123.364 12h-3.645V6.45zm0 23.1V24h3.645a9.51 9.51 0 01-3.645 5.55zm4.29-8.55h-4.29v-6h4.29c.28 1.99.28 4.01 0 6zm1.035 6.855a18.219 18.219 0 001.5-3.855h2.1a11.999 11.999 0 01-3.6 3.855zM29.829 21h-2.79a24.22 24.22 0 00.18-3 24.397 24.397 0 00-.18-3h2.79a11.73 11.73 0 010 6z" fill="#000"/></svg>