<svg width="37" height="36" fill="none" xmlns="http://www.w3.org/2000/svg"><g clip-path="url(#clip0)"><path d="M23.156 18.008c0 1.337-.245 2.618-.69 3.8a10.763 10.763 0 01-3.802.692h-.016c-1.337 0-2.618-.245-3.8-.691a10.768 10.768 0 01-.692-3.8v-.016c.001-1.338.246-2.618.691-3.8a10.771 10.771 0 013.801-.692h.016c1.338 0 2.62.246 3.801.692.445 1.182.69 2.462.691 3.8v.015zM36.406 15H25.9l7.43-7.43a18.094 18.094 0 00-4.243-4.243l-7.43 7.43V.25a18.11 18.11 0 00-2.99-.25h-.02a18.11 18.11 0 00-2.99.25v10.507l-7.43-7.43A18.084 18.084 0 005.93 5.273l-.003.002a18.1 18.1 0 00-1.942 2.296l7.43 7.43H.906s-.25 1.974-.25 2.993v.013c0 1.003.084 2.005.25 2.994h10.508l-7.43 7.43a18.1 18.1 0 004.243 4.242l7.43-7.429V35.75a18 18 0 002.987.25h.025c1.001 0 2-.084 2.988-.25V25.243l7.429 7.43a18.094 18.094 0 002.298-1.944l.001-.002a18.1 18.1 0 001.943-2.297L25.898 21h10.508c.166-.987.25-1.986.25-2.987v-.026c0-1-.084-2-.25-2.987z" fill="#FF4A00"/></g><defs><clipPath id="clip0"><path fill="#fff" transform="translate(.656)" d="M0 0h36v36H0z"/></clipPath></defs></svg>